<?xml version="1.0" encoding="UTF-8" standalone="no"?>
<!-- Created with Inkscape (http://www.inkscape.org/) -->

<svg
   version="1.1"
   id="svg1"
   width="880"
   height="880"
   viewBox="0 0 880 880"
   sodipodi:docname="driver-in-a-truck.svg"
   inkscape:version="1.3.2 (091e20e, 2023-11-25, custom)"
   xmlns:inkscape="http://www.inkscape.org/namespaces/inkscape"
   xmlns:sodipodi="http://sodipodi.sourceforge.net/DTD/sodipodi-0.dtd"
   xmlns="http://www.w3.org/2000/svg"
   xmlns:svg="http://www.w3.org/2000/svg">
  <defs
     id="defs1">
    <clipPath
       clipPathUnits="userSpaceOnUse"
       id="clipPath4">
      <path
         d="M 0,660 H 660 V 0 H 0 Z"
         transform="translate(0.99560005,-457.75731)"
         id="path4" />
    </clipPath>
    <clipPath
       clipPathUnits="userSpaceOnUse"
       id="clipPath6">
      <path
         d="M 0,660 H 660 V 0 H 0 Z"
         transform="translate(-505.29881,-447.14891)"
         id="path6" />
    </clipPath>
    <clipPath
       clipPathUnits="userSpaceOnUse"
       id="clipPath8">
      <path
         d="M 0,660 H 660 V 0 H 0 Z"
         transform="translate(-523.82131,-425.04201)"
         id="path8" />
    </clipPath>
    <clipPath
       clipPathUnits="userSpaceOnUse"
       id="clipPath10">
      <path
         d="M 0,660 H 660 V 0 H 0 Z"
         transform="translate(-531.71291,-486.48881)"
         id="path10" />
    </clipPath>
    <clipPath
       clipPathUnits="userSpaceOnUse"
       id="clipPath12">
      <path
         d="M 0,660 H 660 V 0 H 0 Z"
         transform="translate(-509.24512,-457.18601)"
         id="path12" />
    </clipPath>
    <clipPath
       clipPathUnits="userSpaceOnUse"
       id="clipPath14">
      <path
         d="M 0,660 H 660 V 0 H 0 Z"
         transform="translate(-535.70701,-454.58301)"
         id="path14" />
    </clipPath>
    <clipPath
       clipPathUnits="userSpaceOnUse"
       id="clipPath16">
      <path
         d="M 0,660 H 660 V 0 H 0 Z"
         transform="translate(-377.99321,-391.07671)"
         id="path16" />
    </clipPath>
    <clipPath
       clipPathUnits="userSpaceOnUse"
       id="clipPath18">
      <path
         d="M 0,660 H 660 V 0 H 0 Z"
         transform="translate(-365.46481,-337.09231)"
         id="path18" />
    </clipPath>
    <clipPath
       clipPathUnits="userSpaceOnUse"
       id="clipPath20">
      <path
         d="M 0,660 H 660 V 0 H 0 Z"
         transform="translate(-361.66701,-369.32521)"
         id="path20" />
    </clipPath>
    <clipPath
       clipPathUnits="userSpaceOnUse"
       id="clipPath22">
      <path
         d="M 0,660 H 660 V 0 H 0 Z"
         transform="translate(-659.80372,-273.89941)"
         id="path22" />
    </clipPath>
    <clipPath
       clipPathUnits="userSpaceOnUse"
       id="clipPath24">
      <path
         d="M 0,660 H 660 V 0 H 0 Z"
         transform="translate(-198.2422,-239.35741)"
         id="path24" />
    </clipPath>
    <clipPath
       clipPathUnits="userSpaceOnUse"
       id="clipPath26">
      <path
         d="M 0,660 H 660 V 0 H 0 Z"
         transform="translate(-550.35061,-366.91501)"
         id="path26" />
    </clipPath>
    <clipPath
       clipPathUnits="userSpaceOnUse"
       id="clipPath28">
      <path
         d="M 0,660 H 660 V 0 H 0 Z"
         transform="translate(-158.35641,0.22560001)"
         id="path28" />
    </clipPath>
    <clipPath
       clipPathUnits="userSpaceOnUse"
       id="clipPath30">
      <path
         d="M 0,660 H 660 V 0 H 0 Z"
         transform="translate(-158.35641,0.22560001)"
         id="path30" />
    </clipPath>
    <clipPath
       clipPathUnits="userSpaceOnUse"
       id="clipPath32">
      <path
         d="M 0,660 H 660 V 0 H 0 Z"
         transform="translate(-659.80472,-507.91021)"
         id="path32" />
    </clipPath>
    <clipPath
       clipPathUnits="userSpaceOnUse"
       id="clipPath34">
      <path
         d="M 0,660 H 660 V 0 H 0 Z"
         transform="translate(-565.75591,-262.7617)"
         id="path34" />
    </clipPath>
    <clipPath
       clipPathUnits="userSpaceOnUse"
       id="clipPath36">
      <path
         d="M 0,660 H 660 V 0 H 0 Z"
         transform="translate(-659.80372,0.22560001)"
         id="path36" />
    </clipPath>
    <clipPath
       clipPathUnits="userSpaceOnUse"
       id="clipPath38">
      <path
         d="M 0,660 H 660 V 0 H 0 Z"
         transform="translate(-588.45311,-59.519499)"
         id="path38" />
    </clipPath>
    <clipPath
       clipPathUnits="userSpaceOnUse"
       id="clipPath40">
      <path
         d="M 0,660 H 660 V 0 H 0 Z"
         transform="translate(-520.23241,-395.64551)"
         id="path40" />
    </clipPath>
    <clipPath
       clipPathUnits="userSpaceOnUse"
       id="clipPath42">
      <path
         d="M 0,660 H 660 V 0 H 0 Z"
         id="path42" />
    </clipPath>
    <clipPath
       clipPathUnits="userSpaceOnUse"
       id="clipPath44">
      <path
         d="M 0,660 H 660 V 0 H 0 Z"
         transform="translate(-533.51272,-141.3027)"
         id="path44" />
    </clipPath>
    <clipPath
       clipPathUnits="userSpaceOnUse"
       id="clipPath46">
      <path
         d="M 0,660 H 660 V 0 H 0 Z"
         transform="translate(-497.11521,-375.72021)"
         id="path46" />
    </clipPath>
    <clipPath
       clipPathUnits="userSpaceOnUse"
       id="clipPath48">
      <path
         d="M 0,660 H 660 V 0 H 0 Z"
         transform="translate(-281.17681,-468.21681)"
         id="path48" />
    </clipPath>
    <clipPath
       clipPathUnits="userSpaceOnUse"
       id="clipPath50">
      <path
         d="M 0,660 H 660 V 0 H 0 Z"
         transform="translate(-286.43991,-428.93601)"
         id="path50" />
    </clipPath>
    <clipPath
       clipPathUnits="userSpaceOnUse"
       id="clipPath52">
      <path
         d="M 0,660 H 660 V 0 H 0 Z"
         transform="translate(-158.60301,-473.51171)"
         id="path52" />
    </clipPath>
  </defs>
  <sodipodi:namedview
     id="namedview1"
     pagecolor="#ffffff"
     bordercolor="#000000"
     borderopacity="0.25"
     inkscape:showpageshadow="2"
     inkscape:pageopacity="0.0"
     inkscape:pagecheckerboard="0"
     inkscape:deskcolor="#d1d1d1"
     inkscape:zoom="0.69318182"
     inkscape:cx="439.27869"
     inkscape:cy="440"
     inkscape:window-width="1440"
     inkscape:window-height="830"
     inkscape:window-x="-6"
     inkscape:window-y="-6"
     inkscape:window-maximized="1"
     inkscape:current-layer="g1">
    <inkscape:page
       x="0"
       y="0"
       inkscape:label="1"
       id="page1"
       width="880"
       height="880"
       margin="0 0.25999999 0 0"
       bleed="0" />
  </sodipodi:namedview>
  <g
     id="g1"
     inkscape:groupmode="layer"
     inkscape:label="1">
    <g
       id="group-MC0">
      <path
         id="path2"
         d="M 0,0 H 659.804 V 660 H 0 Z"
         style="fill:#ebf0ce;fill-opacity:1;fill-rule:nonzero;stroke:none"
         transform="matrix(1.3333333,0,0,-1.3333333,0,880)" />
      <path
         id="path3"
         d="m 0,0 v -457.983 h 660.8 v 385.591 c -28.362,1.088 -56.83,8.811 -83.56,23.357 -80.6,43.862 -172.809,45.132 -254.111,3.798 -57.353,-29.159 -119.987,-28.047 -176.266,3.134 l -11.771,6.52 C 91.895,-11.649 45.867,0.189 0,0"
         style="fill:#d1de88;fill-opacity:1;fill-rule:evenodd;stroke:none"
         transform="matrix(1.3333333,0,0,-1.3333333,-1.3274667,269.65693)"
         clip-path="url(#clipPath4)" />
      <path
         id="path5"
         d="m 0,0 c 8.639,0 15.687,7.046 15.687,15.686 0,8.641 -7.048,15.688 -15.687,15.688 -8.641,0 -15.688,-7.047 -15.688,-15.688 C -15.688,7.046 -8.641,0 0,0"
         style="fill:#332d2a;fill-opacity:1;fill-rule:evenodd;stroke:none"
         transform="matrix(1.3333333,0,0,-1.3333333,673.73173,283.80147)"
         clip-path="url(#clipPath6)" />
      <path
         id="path7"
         d="M 0,0 H 36.104 L 26.275,-53.537 H -9.826 Z"
         style="fill:#d17547;fill-opacity:1;fill-rule:evenodd;stroke:none"
         transform="matrix(1.3333333,0,0,-1.3333333,698.4284,313.27733)"
         clip-path="url(#clipPath8)" />
      <path
         id="path9"
         d="m 0,0 v 0 c 20.117,0 36.575,-16.459 36.575,-36.574 v -8.78 C 36.575,-65.47 20.117,-81.929 0,-81.929 c -20.115,0 -36.575,16.459 -36.575,36.575 v 8.78 C -36.575,-16.459 -20.115,0 0,0"
         style="fill:#f29d72;fill-opacity:1;fill-rule:evenodd;stroke:none"
         transform="matrix(1.3333333,0,0,-1.3333333,708.95053,231.34827)"
         clip-path="url(#clipPath10)" />
      <path
         id="path11"
         d="M 0,0 C 13.319,0 24.184,10.862 24.184,24.183 24.184,37.502 13.319,48.367 0,48.367 -13.32,48.367 -24.184,37.502 -24.184,24.183 -24.184,10.862 -13.32,0 0,0"
         style="fill:#332d2a;fill-opacity:1;fill-rule:evenodd;stroke:none"
         transform="matrix(1.3333333,0,0,-1.3333333,678.99347,270.41867)"
         clip-path="url(#clipPath12)" />
      <path
         id="path13"
         d="m 0,0 c 11.408,0 20.712,9.305 20.712,20.712 0,11.409 -9.304,20.714 -20.712,20.714 -11.408,0 -20.715,-9.305 -20.715,-20.714 C -20.715,9.305 -11.408,0 0,0"
         style="fill:#332d2a;fill-opacity:1;fill-rule:evenodd;stroke:none"
         transform="matrix(1.3333333,0,0,-1.3333333,714.276,273.88933)"
         clip-path="url(#clipPath14)" />
      <path
         id="path15"
         d="m 0,0 c 21.293,-13.976 41.829,-21.055 61.657,-21.708 19.664,-0.65 39.672,5.006 59.995,16.494 l 28.079,-39.49 C 120.48,-61.239 90.523,-69.339 59.813,-68.327 29.263,-67.319 -1.001,-57.32 -30.95,-37.661 Z"
         style="fill:#f29d72;fill-opacity:1;fill-rule:evenodd;stroke:none"
         transform="matrix(1.3333333,0,0,-1.3333333,503.99093,358.5644)"
         clip-path="url(#clipPath16)" />
      <path
         id="path17"
         d="M 0,0 C 16.571,0 30.085,13.516 30.085,30.085 30.085,46.659 16.571,60.173 0,60.173 -16.572,60.173 -30.088,46.659 -30.088,30.085 -30.088,13.516 -16.572,0 0,0"
         style="fill:#f29d72;fill-opacity:1;fill-rule:evenodd;stroke:none"
         transform="matrix(1.3333333,0,0,-1.3333333,487.2864,430.5436)"
         clip-path="url(#clipPath18)" />
      <path
         id="path19"
         d="m 0,0 v 0 c 5.787,1.978 12.141,-1.135 14.121,-6.921 l 23.777,-69.505 c 1.979,-5.787 -1.134,-12.14 -6.92,-14.121 h -0.002 c -5.787,-1.98 -12.141,1.136 -14.12,6.921 L -6.921,-14.122 C -8.902,-8.334 -5.788,-1.98 0,0"
         style="fill:#332d2a;fill-opacity:1;fill-rule:evenodd;stroke:none"
         transform="matrix(1.3333333,0,0,-1.3333333,482.22267,387.5664)"
         clip-path="url(#clipPath20)" />
      <path
         id="path21"
         d="m 0,0 v -274.125 h -660.8 v 230.792 c 28.362,0.653 56.83,5.274 83.56,13.982 80.601,26.253 172.809,27.015 254.112,2.273 57.353,-17.451 119.986,-16.788 176.266,1.875 l 11.77,3.903 C -91.895,-6.974 -45.867,0.112 0,0"
         style="fill:#c0d162;fill-opacity:1;fill-rule:evenodd;stroke:none"
         transform="matrix(1.3333333,0,0,-1.3333333,879.73827,514.8008)"
         clip-path="url(#clipPath22)" />
      <path
         id="path23"
         d="m 0,0 h 42.344 l -21.23,-189.436 h -61.287 l 19.107,170.493 C -19.899,-8.524 -10.42,0 0,0"
         style="fill:#333814;fill-opacity:1;fill-rule:evenodd;stroke:none"
         transform="matrix(1.3333333,0,0,-1.3333333,264.32293,560.8568)"
         clip-path="url(#clipPath24)" />
      <path
         id="path25"
         d="m 0,0 -0.626,104.881 c -0.117,19.934 -16.395,36.114 -36.33,36.114 h -113.116 c -20.058,0 -37.022,-13.016 -42.212,-32.39 L -231.179,-36.548 H -36.33 c 10.042,0 18.684,3.595 25.765,10.719 C -3.484,-18.707 0.06,-10.042 0,0 m -391.994,-367.141 -8.238,30.743 c -3.753,14.005 2.163,28.286 14.721,35.535 l 0.757,0.437 45.137,168.456 c 7.815,29.164 23.461,51.843 47.952,69.499 l 35.956,25.923 41.16,153.612 c 9.701,36.208 39.894,61.162 77.288,63.78 l 246.715,17.276 v -565.261 z"
         style="fill:#8c9943;fill-opacity:1;fill-rule:evenodd;stroke:none"
         transform="matrix(1.3333333,0,0,-1.3333333,733.8008,390.78)"
         clip-path="url(#clipPath26)" />
      <path
         id="path27"
         d="m 0,0 -8.237,30.742 c -3.754,14.005 2.162,28.286 14.72,35.535 L 7.24,66.715 35.46,172.028 H 501.448 V 0 Z"
         style="fill:#7f8c36;fill-opacity:1;fill-rule:evenodd;stroke:none"
         transform="matrix(1.3333333,0,0,-1.3333333,211.14187,880.3008)"
         clip-path="url(#clipPath28)" />
      <path
         id="path29"
         d="m 0,0 -8.237,30.742 c -3.754,14.005 2.162,28.286 14.72,35.535 l 0.757,0.438 h 56.9 c 13.921,0 25.276,-11.354 25.276,-25.276 V 0 Z"
         style="fill:#333814;fill-opacity:1;fill-rule:evenodd;stroke:none"
         transform="matrix(1.3333333,0,0,-1.3333333,211.14187,880.3008)"
         clip-path="url(#clipPath30)" />
      <path
         id="path31"
         d="m 0,0 h -49.967 c -19.865,0 -36.12,-16.254 -36.12,-36.121 v -105.3 c 0,-19.868 16.253,-36.122 36.12,-36.122 H 0 Z"
         style="fill:#6a7529;fill-opacity:1;fill-rule:evenodd;stroke:none"
         transform="matrix(1.3333333,0,0,-1.3333333,879.7396,202.7864)"
         clip-path="url(#clipPath32)" />
      <path
         id="path33"
         d="m 0,0 v -148.324 l -2.417,-0.203 c -15.402,-1.306 -30.198,-4.75 -44.08,-10.035 -14.303,-5.443 -27.63,-12.829 -39.651,-21.83 l -0.715,-0.533 H -263.234 V 0 L -260.6,42.344 -257.969,0 v -175.661 h 169.394 c 12.25,9.071 25.76,16.517 40.206,22.014 13.61,5.182 28.068,8.65 43.104,10.14 l 0,143.507 2.632,42.344 z"
         style="fill:#6a7529;fill-opacity:1;fill-rule:evenodd;stroke:none"
         transform="matrix(1.3333333,0,0,-1.3333333,754.3412,529.65107)"
         clip-path="url(#clipPath34)" />
      <path
         id="path35"
         d="m 0,0 h -199.799 c 19.482,52.012 69.637,89.04 128.448,89.04 26.139,0 50.566,-7.32 71.351,-20.013 z"
         style="fill:#626e20;fill-opacity:1;fill-rule:evenodd;stroke:none"
         transform="matrix(1.3333333,0,0,-1.3333333,879.73827,880.3008)"
         clip-path="url(#clipPath36)" />
      <path
         id="path37"
         d="M 0,0 C 27.361,0 52.337,-10.197 71.351,-26.988 V -59.745 H -96.534 C -78.858,-24.329 -42.272,0 0,0"
         style="fill:#333814;fill-opacity:1;fill-rule:evenodd;stroke:none"
         transform="matrix(1.3333333,0,0,-1.3333333,784.60413,800.64067)"
         clip-path="url(#clipPath38)" />
      <path
         id="path39"
         d="m 0,0 h 29.995 v -76.331 h -59.988 v 46.338 C -29.993,-13.496 -16.497,0 0,0"
         style="fill:#ffffff;fill-opacity:1;fill-rule:evenodd;stroke:none"
         transform="matrix(1.3333333,0,0,-1.3333333,693.6432,352.47267)"
         clip-path="url(#clipPath40)" />
      <path
         id="path41"
         d="m 503.425,168.602 h 46.803 v 150.713 h -46.803 z"
         style="fill:#f29d72;fill-opacity:1;fill-rule:evenodd;stroke:none"
         transform="matrix(1.3333333,0,0,-1.3333333,0,880)"
         clip-path="url(#clipPath42)" />
      <path
         id="path43"
         d="M 0,0 C 16.569,0 30.085,13.516 30.085,30.085 30.085,46.657 16.569,60.173 0,60.173 -16.572,60.173 -30.088,46.657 -30.088,30.085 -30.088,13.516 -16.572,0 0,0"
         style="fill:#f29d72;fill-opacity:1;fill-rule:evenodd;stroke:none"
         transform="matrix(1.3333333,0,0,-1.3333333,711.35027,691.5964)"
         clip-path="url(#clipPath44)" />
      <path
         id="path45"
         d="M 0,0 -39.453,-45.353 H -0.477 Z"
         style="fill:#ffffff;fill-opacity:1;fill-rule:evenodd;stroke:none"
         transform="matrix(1.3333333,0,0,-1.3333333,662.82027,379.03973)"
         clip-path="url(#clipPath46)" />
      <path
         id="path47"
         d="M 0,0 H 11.142 V -78.56 H 0 c -6.13,0 -11.145,5.013 -11.145,11.143 v 56.273 C -11.145,-5.015 -6.13,0 0,0"
         style="fill:#8c9943;fill-opacity:1;fill-rule:evenodd;stroke:none"
         transform="matrix(1.3333333,0,0,-1.3333333,374.9024,255.71093)"
         clip-path="url(#clipPath48)" />
      <path
         id="path49"
         d="m 0,0 v -42.978 c 0,-5.508 2.249,-10.51 5.875,-14.135 3.626,-3.626 8.629,-5.875 14.136,-5.875 h 10.104 v -10.53 H 20.011 c -8.412,0 -16.049,3.431 -21.581,8.961 -5.529,5.53 -8.96,13.166 -8.96,21.579 l 0,42.978 z"
         style="fill:#8c9943;fill-opacity:1;fill-rule:evenodd;stroke:none"
         transform="matrix(1.3333333,0,0,-1.3333333,381.91987,308.08533)"
         clip-path="url(#clipPath50)" />
      <path
         id="path51"
         d="m 0,0 c 42.656,0 77.445,34.79 77.445,77.446 0,42.656 -34.789,77.446 -77.445,77.446 -42.656,0 -77.447,-34.79 -77.447,-77.446 C -77.447,34.79 -42.656,0 0,0"
         style="fill:#ffffff;fill-opacity:1;fill-rule:evenodd;stroke:none"
         transform="matrix(1.3333333,0,0,-1.3333333,211.47067,248.65107)"
         clip-path="url(#clipPath52)" />
    </g>
  </g>
</svg>
