<?xml version="1.0" encoding="UTF-8" standalone="no"?>
<!-- Created with Inkscape (http://www.inkscape.org/) -->

<svg
   version="1.1"
   id="svg1"
   width="4420"
   height="3370"
   viewBox="0 0 4420 3370"
   sodipodi:docname="2d.svg"
   inkscape:version="1.4.2 (ebf0e940d0, 2025-05-08)"
   xmlns:inkscape="http://www.inkscape.org/namespaces/inkscape"
   xmlns:sodipodi="http://sodipodi.sourceforge.net/DTD/sodipodi-0.dtd"
   xmlns="http://www.w3.org/2000/svg"
   xmlns:svg="http://www.w3.org/2000/svg">
  <defs
     id="defs1">
    <inkscape:path-effect
       effect="bspline"
       id="path-effect25"
       is_visible="true"
       lpeversion="1.3"
       weight="33.333333"
       steps="2"
       helper_size="0"
       apply_no_weight="true"
       apply_with_weight="true"
       only_selected="false"
       uniform="false" />
    <inkscape:path-effect
       effect="bspline"
       id="path-effect24"
       is_visible="true"
       lpeversion="1.3"
       weight="33.333333"
       steps="2"
       helper_size="0"
       apply_no_weight="true"
       apply_with_weight="true"
       only_selected="false"
       uniform="false" />
    <inkscape:path-effect
       effect="bspline"
       id="path-effect23"
       is_visible="true"
       lpeversion="1.3"
       weight="33.333333"
       steps="2"
       helper_size="0"
       apply_no_weight="true"
       apply_with_weight="true"
       only_selected="false"
       uniform="false" />
    <inkscape:path-effect
       effect="bspline"
       id="path-effect22"
       is_visible="true"
       lpeversion="1.3"
       weight="33.333333"
       steps="2"
       helper_size="0"
       apply_no_weight="true"
       apply_with_weight="true"
       only_selected="false"
       uniform="false" />
    <inkscape:path-effect
       effect="bspline"
       id="path-effect21"
       is_visible="true"
       lpeversion="1.3"
       weight="33.333333"
       steps="2"
       helper_size="0"
       apply_no_weight="true"
       apply_with_weight="true"
       only_selected="false"
       uniform="false" />
    <inkscape:path-effect
       effect="bspline"
       id="path-effect20"
       is_visible="true"
       lpeversion="1.3"
       weight="33.333333"
       steps="2"
       helper_size="0"
       apply_no_weight="true"
       apply_with_weight="true"
       only_selected="false"
       uniform="false" />
    <inkscape:path-effect
       effect="bspline"
       id="path-effect19"
       is_visible="true"
       lpeversion="1.3"
       weight="33.333333"
       steps="2"
       helper_size="0"
       apply_no_weight="true"
       apply_with_weight="true"
       only_selected="false"
       uniform="false" />
    <inkscape:path-effect
       effect="bspline"
       id="path-effect18"
       is_visible="true"
       lpeversion="1.3"
       weight="33.333333"
       steps="2"
       helper_size="0"
       apply_no_weight="true"
       apply_with_weight="true"
       only_selected="false"
       uniform="false" />
    <inkscape:path-effect
       effect="bspline"
       id="path-effect17"
       is_visible="true"
       lpeversion="1.3"
       weight="33.333333"
       steps="2"
       helper_size="0"
       apply_no_weight="true"
       apply_with_weight="true"
       only_selected="false"
       uniform="false" />
    <inkscape:path-effect
       effect="bspline"
       id="path-effect16"
       is_visible="true"
       lpeversion="1.3"
       weight="33.333333"
       steps="2"
       helper_size="0"
       apply_no_weight="true"
       apply_with_weight="true"
       only_selected="false"
       uniform="false" />
    <inkscape:path-effect
       effect="bspline"
       id="path-effect15"
       is_visible="true"
       lpeversion="1.3"
       weight="33.333333"
       steps="2"
       helper_size="0"
       apply_no_weight="true"
       apply_with_weight="true"
       only_selected="false"
       uniform="false" />
    <inkscape:path-effect
       effect="bspline"
       id="path-effect14"
       is_visible="true"
       lpeversion="1.3"
       weight="33.333333"
       steps="2"
       helper_size="0"
       apply_no_weight="true"
       apply_with_weight="true"
       only_selected="false"
       uniform="false" />
    <inkscape:path-effect
       effect="bspline"
       id="path-effect13"
       is_visible="true"
       lpeversion="1.3"
       weight="33.333333"
       steps="2"
       helper_size="0"
       apply_no_weight="true"
       apply_with_weight="true"
       only_selected="false"
       uniform="false" />
    <inkscape:path-effect
       effect="bspline"
       id="path-effect12"
       is_visible="true"
       lpeversion="1.3"
       weight="33.333333"
       steps="2"
       helper_size="0"
       apply_no_weight="true"
       apply_with_weight="true"
       only_selected="false"
       uniform="false" />
    <inkscape:path-effect
       effect="bspline"
       id="path-effect11"
       is_visible="true"
       lpeversion="1.3"
       weight="33.333333"
       steps="2"
       helper_size="0"
       apply_no_weight="true"
       apply_with_weight="true"
       only_selected="false"
       uniform="false" />
    <inkscape:path-effect
       effect="bspline"
       id="path-effect10"
       is_visible="true"
       lpeversion="1.3"
       weight="33.333333"
       steps="2"
       helper_size="0"
       apply_no_weight="true"
       apply_with_weight="true"
       only_selected="false"
       uniform="false" />
    <inkscape:path-effect
       effect="bspline"
       id="path-effect9"
       is_visible="true"
       lpeversion="1.3"
       weight="33.333333"
       steps="2"
       helper_size="0"
       apply_no_weight="true"
       apply_with_weight="true"
       only_selected="false"
       uniform="false" />
    <inkscape:path-effect
       effect="bspline"
       id="path-effect8"
       is_visible="true"
       lpeversion="1.3"
       weight="33.333333"
       steps="2"
       helper_size="0"
       apply_no_weight="true"
       apply_with_weight="true"
       only_selected="false"
       uniform="false" />
    <inkscape:path-effect
       effect="bspline"
       id="path-effect7"
       is_visible="true"
       lpeversion="1.3"
       weight="33.333333"
       steps="2"
       helper_size="0"
       apply_no_weight="true"
       apply_with_weight="true"
       only_selected="false"
       uniform="false" />
    <inkscape:path-effect
       effect="bspline"
       id="path-effect6"
       is_visible="true"
       lpeversion="1.3"
       weight="33.333333"
       steps="2"
       helper_size="0"
       apply_no_weight="true"
       apply_with_weight="true"
       only_selected="false"
       uniform="false" />
    <inkscape:path-effect
       effect="bspline"
       id="path-effect5"
       is_visible="true"
       lpeversion="1.3"
       weight="33.333333"
       steps="2"
       helper_size="0"
       apply_no_weight="true"
       apply_with_weight="true"
       only_selected="false"
       uniform="false" />
    <inkscape:path-effect
       effect="bspline"
       id="path-effect4"
       is_visible="true"
       lpeversion="1.3"
       weight="33.333333"
       steps="2"
       helper_size="0"
       apply_no_weight="true"
       apply_with_weight="true"
       only_selected="false"
       uniform="false" />
    <inkscape:path-effect
       effect="bspline"
       id="path-effect3"
       is_visible="true"
       lpeversion="1.3"
       weight="33.333333"
       steps="2"
       helper_size="0"
       apply_no_weight="true"
       apply_with_weight="true"
       only_selected="false"
       uniform="false" />
    <inkscape:path-effect
       effect="bspline"
       id="path-effect2"
       is_visible="true"
       lpeversion="1.3"
       weight="33.333333"
       steps="2"
       helper_size="0"
       apply_no_weight="true"
       apply_with_weight="true"
       only_selected="false"
       uniform="false" />
    <inkscape:path-effect
       effect="bspline"
       id="path-effect1"
       is_visible="true"
       lpeversion="1.3"
       weight="33.333333"
       steps="2"
       helper_size="0"
       apply_no_weight="true"
       apply_with_weight="true"
       only_selected="false"
       uniform="false" />
    <inkscape:path-effect
       effect="bspline"
       id="path-effect15-7"
       is_visible="true"
       lpeversion="1.3"
       weight="33.333333"
       steps="2"
       helper_size="0"
       apply_no_weight="true"
       apply_with_weight="true"
       only_selected="false"
       uniform="false" />
    <inkscape:path-effect
       effect="bspline"
       id="path-effect17-9"
       is_visible="true"
       lpeversion="1.3"
       weight="33.333333"
       steps="2"
       helper_size="0"
       apply_no_weight="true"
       apply_with_weight="true"
       only_selected="false"
       uniform="false" />
    <inkscape:path-effect
       effect="bspline"
       id="path-effect16-1"
       is_visible="true"
       lpeversion="1.3"
       weight="33.333333"
       steps="2"
       helper_size="0"
       apply_no_weight="true"
       apply_with_weight="true"
       only_selected="false"
       uniform="false" />
    <inkscape:path-effect
       effect="bspline"
       id="path-effect19-0"
       is_visible="true"
       lpeversion="1.3"
       weight="33.333333"
       steps="2"
       helper_size="0"
       apply_no_weight="true"
       apply_with_weight="true"
       only_selected="false"
       uniform="false" />
    <inkscape:path-effect
       effect="bspline"
       id="path-effect24-7"
       is_visible="true"
       lpeversion="1.3"
       weight="33.333333"
       steps="2"
       helper_size="0"
       apply_no_weight="true"
       apply_with_weight="true"
       only_selected="false"
       uniform="false" />
  </defs>
  <sodipodi:namedview
     id="namedview1"
     pagecolor="#ffffff"
     bordercolor="#000000"
     borderopacity="0.25"
     inkscape:showpageshadow="2"
     inkscape:pageopacity="0.0"
     inkscape:pagecheckerboard="0"
     inkscape:deskcolor="#d1d1d1"
     showgrid="false"
     inkscape:zoom="0.082"
     inkscape:cx="1067.0732"
     inkscape:cy="963.41463"
     inkscape:window-width="1920"
     inkscape:window-height="1011"
     inkscape:window-x="0"
     inkscape:window-y="0"
     inkscape:window-maximized="1"
     inkscape:current-layer="layer1" />
  <g
     inkscape:groupmode="layer"
     id="layer1"
     inkscape:label="Layer 1"
     transform="translate(-1400,-840)">
    <path
       id="path4"
       style="fill:#00ffff;stroke:none;stroke-width:30.2362;stroke-linecap:round;stroke-dasharray:none;stroke-opacity:1;paint-order:markers fill stroke"
       d="m 2755.0508,1993.4336 -83.8379,8.5859 -53.0313,32.3243 -4.5449,30.8085 10.1016,9.5957 c 6.5656,0 70.707,-9.5957 70.707,-9.5957 l 68.1817,-38.3847 z m -560.1016,32.8281 3.0313,37.375 105.5547,24.2422 46.9707,-13.1309 -38.8907,-42.9296 z" />
    <path
       id="path3"
       style="fill:#deaa87;stroke:none;stroke-width:30.2362;stroke-linecap:round;stroke-dasharray:none;stroke-opacity:1;paint-order:markers fill stroke"
       d="m 3352.4688,1736.4199 -85.8028,2.4688 -117.9004,4.9394 -90.123,2.4688 -84.5684,27.7773 -101.2344,56.1719 -57.4082,40.125 -75.3086,36.4199 -13.58,8.0235 -29.6289,-34.5684 -59.873,21.9612 -53.5439,-13.4818 -65.5968,-97.3681 -53.7031,-4.9375 -46.9141,-3.7031 -41.3574,14.1973 29.6289,43.8261 -30.2461,69.7539 c 0,0 -46.2963,35.1852 -50,37.0371 -3.7037,1.8518 -41.3574,1.8516 -41.3574,1.8516 l -40.1231,-26.543 -23.457,0.6172 -30.8652,-5.5566 -88.8887,-40.1231 -118.5176,-78.3945 -85.1855,-25.9258 -184.5684,-8.0254 -108.0254,-4.9375 5.5567,29.6289 51.2343,53.7051 78.3946,71.6035 73.457,46.2969 60.4941,19.1348 113.5801,-1.8516 89.5059,5.5567 59.2597,12.9628 56.7891,24.0743 52.4707,4.3203 75.9258,14.1972 19.7519,30.8653 -9.8769,13.5801 h -65.4317 l -66.666,-16.0508 v 41.3594 l 45.6797,165.4316 25.2988,53.5605 -24.8847,33.7481 -71.9629,192.5234 -83.1777,266.3555 -8.4102,161.6816 20.5605,179.4395 46.7286,108.4101 55.1406,109.3457 131.7754,181.3086 124.2988,186.9161 11.2148,19.6269 -20.5605,6.541 -70.0938,15.8887 -242.0546,76.6348 -156.0762,36.4492 -98.1309,18.6914 -37.3828,37.3828 9.3457,63.5527 36.4492,46.7286 142.0567,17.7558 259.8125,-3.7383 310.2812,-19.625 h 292.5235 l 256.0742,7.4766 c 0,0 234.578,-3.7383 249.5312,-3.7383 14.9533,0 222.4316,-23.3652 228.0391,-23.3652 5.6075,0 70.0937,-8.4102 70.0937,-8.4102 0,0 30.8407,9.3457 46.7286,11.2149 15.8878,1.8691 110.2793,11.2148 110.2793,11.2148 l 172.8984,-25.2344 178.5039,-35.5136 151.4023,-2.8047 404.6719,25.2343 258.8789,29.9063 127.1035,14.9531 110.2793,-2.8027 c 0,0 197.1973,-8.4121 204.6739,-12.1504 7.4767,-3.7383 88.7851,-27.1016 88.7851,-27.1016 0,0 65.4208,-35.5145 68.2246,-43.9257 2.8037,-8.4113 49.5313,-70.0938 49.5313,-70.0938 l 36.4492,-99.0645 7.4766,-101.8691 -17.7578,-91.5898 -66.3536,-154.2051 -114.0195,-169.1602 -161.6816,-173.83 -186.916,-141.1231 -251.4024,-104.6719 -172.8965,-41.1211 -253.2715,-66.3554 -248.5976,-50.4668 -191.5899,-21.4961 -393.457,-23.3653 -335.5137,-28.9707 -170.0937,3.7383 -185.0469,33.6446 -86.916,28.0371 -56.0742,-0.9336 -32.711,-17.7578 -57.9433,-67.2891 -85.9824,-268.2246 -1.7872,-6.4004 6.2754,-22.1797 19.7539,-70.3711 37.6543,-100.6172 50.6172,-98.7656 -18.5195,-8.6406 -39.5059,14.8144 -74.0742,17.9004 c 0,0 -23.4556,-18.5188 -19.1347,-22.8398 4.321,-4.3209 43.8261,-38.2715 43.8261,-38.2715 l 52.4688,-14.8145 44.4453,-5.5547 56.791,-25.3085 89.5059,-16.668 154.3203,7.4082 90.7402,-33.334 101.2344,-72.8379 87.6543,-79.0137 z"
       sodipodi:nodetypes="ccccccccccccccccccsccccccccccccccccccccccccccccccccccccccccccccccccccsscsccccccccscsccccccccccccccccccccccccccccccscccccccccc" />
    <path
       id="path2"
       style="fill:#ac9d93;stroke:none;stroke-width:30.2362;stroke-linecap:round;stroke-dasharray:none;stroke-opacity:1;paint-order:markers fill stroke"
       d="m 3380.5312,984.07031 -15.9296,24.77929 -40.7071,87.6113 -26.5488,199.1153 -18.584,194.6894 -61.0625,-5.3105 h -143.3633 l -220.3535,46.9043 -167.2558,100 -146.0196,146.0176 v 28.7152 l 10.7196,44.7851 34.5047,37.9469 56.0238,10.0987 52.739,-28.626 111.5058,-156.6367 103.5391,-84.9571 70.7968,-14.1582 c 0,0 214.1591,12.3894 228.3184,17.6992 14.1592,5.3097 110.619,2.6543 120.3535,2.6543 9.7346,0 75.2207,-24.7793 75.2207,-24.7793 l 8.8496,-53.9824 -14.1582,-166.3711 -23.0097,-231.8594 24.7793,-146.9023 z m -1837.5781,48.81639 -21.1406,26.8457 18.1211,68.791 8.7246,120.8047 -3.6914,112.752 -21.1406,133.2226 -11.7461,128.1875 23.8261,30.8731 48.9922,26.5097 c 0,0 96.9799,0.335 100,-0.6718 3.0202,-1.0067 91.6114,-17.4492 91.6114,-17.4492 l 103.0195,-15.4375 96.6445,8.7265 78.5235,38.2539 88.5918,87.2481 66.1074,82.8867 24.2324,30.2598 45.1328,52.2128 43.3613,-9.7343 33.629,-8.8496 c 0,0 39.8242,-57.5221 39.8242,-63.7168 0,-6.1947 8.8492,-27.4339 1.7695,-35.3985 -7.0796,-7.9646 -76.9922,-91.1504 -76.9922,-91.1504 l -97.3437,-80.5312 -130.0899,-79.6445 -132.7422,-38.0547 -108.8496,-15.9278 -90.2656,-7.08 -106.6992,21.4414 -19.4649,-105.0352 -18.455,-167.1133 -23.1543,-160.0664 -26.5098,-61.4101 z"
       sodipodi:nodetypes="ccccccccccccccccccsscccccccccccccccsccccccccccsscccccccccccc" />
    <path
       id="path1"
       style="baseline-shift:baseline;display:inline;overflow:visible;vector-effect:none;fill:#000000;stroke-linecap:round;paint-order:markers fill stroke;enable-background:accumulate;stop-color:#000000"
       d="m 3381.8184,973.01953 c -3.2295,0.1644 -6.4873,0.83676 -9.4805,2.14844 -7.9821,3.49781 -14.1088,9.54851 -20.7949,18.17578 -13.3721,17.25455 -30.2015,48.52345 -40.7813,104.16605 -10.5798,55.6425 -15.0127,134.3554 -22.1582,203.9297 -6.6079,64.34 -15.475,121.3585 -24.5605,178.1035 -32.9952,-5.8877 -78.9111,-11.754 -130.4766,-11.7539 -67.4158,10e-5 -143.1793,9.9669 -204.6504,24.6582 -61.4711,14.6913 -108.7729,34.3838 -157.5508,63.0312 -48.7778,28.6474 -99.4593,66.2754 -141.6347,105.3555 -40.3942,37.4296 -72.4294,75.7271 -103.6836,113.5058 -20.872,-3.171 -42.8895,-6.2637 -67.877,-5.2929 -26.7303,1.0384 -55.1567,6.5568 -83.039,11.8847 -0.1699,0.033 -0.3392,0.069 -0.5079,0.1075 -22.7391,-26.6505 -46.9762,-53.3542 -75.332,-79.6289 -42.1754,-39.0801 -92.857,-76.7081 -141.6348,-105.3555 -48.7779,-28.6474 -96.0796,-48.34 -157.5507,-63.0313 -61.4711,-14.6913 -137.2346,-24.6581 -204.6504,-24.6582 -51.5655,0 -97.4814,5.8682 -130.4766,11.7559 -9.0855,-56.7449 -17.9526,-113.7655 -24.5605,-178.1055 -7.1455,-69.5742 -11.5784,-148.2872 -22.1582,-203.9297 -10.5798,-55.6425 -27.4092,-86.9115 -40.7813,-104.166 -6.6861,-8.6272 -12.8128,-14.6779 -20.7949,-18.1758 -3.991,-1.7489 -8.4514,-2.3613 -12.6895,-2.1484 -4.2382,0.213 -8.2545,1.2513 -11.3613,2.8047 -6.2137,3.1068 -12.7794,9.5984 -16.0723,18.2051 -3.293,8.6066 -4.0973,18.8064 -2.8203,32.0019 2.5539,26.3911 13.0088,63.5081 17.42,110.5606 4.4112,47.0524 2.9796,104.3851 -5.2676,174.8613 -8.2471,70.4762 -23.3994,154.3103 -28.4492,209.8574 -2.5249,27.7736 -2.6591,48.6214 1.1347,66.084 3.7937,17.4626 12.5268,31.5794 24.9864,41.4531 24.9192,19.7476 63.159,26.8212 115,24.4649 51.841,-2.3564 116.9969,-14.5755 175.0156,-21.6875 58.0187,-7.112 109.1051,-9.1578 150.2422,-2.3614 41.137,6.7965 71.4556,20.9286 118.207,68.4161 37.4849,38.075 84.4124,97.6666 133.1719,161.5761 -1.0755,3.3198 -2.1531,6.6419 -3.2266,9.9629 -6.1662,-0.4214 -12.7933,-1.6868 -23.0879,-5.4531 -16.1949,-5.9249 -41.1017,-18.6745 -71.664,-38.0449 -30.5623,-19.3705 -67.9019,-46.0993 -109.6641,-66.9805 -41.7622,-20.8812 -87.0331,-35.4086 -130.5898,-41.3691 -43.5571,-5.9606 -83.701,-3.2241 -124.9805,-4.084 -41.2794,-0.86 -85.6531,-5.2025 -114.7363,-6.9922 -7.2708,-0.4474 -13.5454,-0.7379 -19.0176,-0.8613 -5.4721,-0.1234 -10.1408,-0.08 -14.2051,0.1425 -8.1284,0.4445 -14.1034,-0.8417 -22.2559,7.3106 -4.0763,4.0762 -5.8142,13.4094 -4.2851,18.1641 1.5292,4.7546 3.5392,6.9763 5.5371,9.4101 3.9958,4.8676 9.109,9.868 16.4297,17.6191 14.6414,15.5028 38.5461,42.0706 63.9922,67.0704 25.4461,24.9997 52.4485,48.4192 83.541,70.0488 31.0925,21.6296 66.5088,41.7954 103.6992,52.1523 37.1905,10.357 74.0717,10.2055 115.6641,8.4356 41.5924,-1.7699 88.3547,-4.9953 124.1738,0.7031 33.9651,5.4035 60.816,18.8672 88.9336,33.709 -3.8052,25.6018 -3.9534,50.4527 1.7363,78.2441 7.3321,35.8145 23.3743,75.0799 33.0879,108.8223 9.7137,33.7424 13.9275,64.9614 27.2539,97.5684 1.0948,2.6786 2.2446,5.3455 3.4414,8 -14.419,38.0406 -28.9814,76.4022 -47.5762,124.0117 -19.3912,49.6487 -43.2969,109.6673 -66.1894,175.9492 -22.8926,66.2818 -44.9134,139.1978 -56.4922,219.1719 -11.5788,79.9741 -12.6752,166.2163 -3.209,240.3242 9.4662,74.1079 29.6256,135.7139 57.2168,192.5195 27.5912,56.8057 62.5366,108.8706 107.3926,171.5098 44.856,62.6392 99.8642,136.1742 138.9629,193.3789 34.9242,51.0972 57.3819,89.4397 78.748,126.834 -92.0016,11.5894 -171.3158,36.9641 -237.5,58.2851 -80.1449,25.8185 -142.2513,46.1094 -194.2011,57.1289 -51.9499,11.0196 -95.538,12.7075 -130.2852,24.6895 -34.7471,11.9819 -58.0173,34.8964 -63.6445,62.3301 -5.6272,27.4335 6.3851,52.8817 17.2031,72.2402 5.409,9.6792 12.9092,21.0207 26.7324,29.5977 13.8232,8.5769 32.7905,14.623 62.5899,19.3574 59.5986,9.4688 164.2317,13.6367 316.9375,7.7012 152.7057,-5.9356 352.4842,-22.0352 531.7597,-23.1055 179.2755,-1.0703 339.0719,12.8923 463.7559,13.9765 124.6839,1.0843 212.9189,-10.8888 270.373,-18.4062 57.4541,-7.5174 85.3996,-10.736 110.7266,-14.6231 7.2327,-1.11 14.4344,-2.2203 21.4258,-3.9101 0.9895,0.167 1.9931,0.235 2.9961,0.2031 l 66.1738,-2.0976 c 0.1355,0 0.2709,-0.01 0.4062,-0.018 13.057,6.8759 27.6708,13.1807 45.2481,17.0019 27.309,5.9368 59.6153,5.7213 100.9785,3 41.3633,-2.7212 92.0981,-8.0734 128.8106,-15.3047 36.7125,-7.2312 56.8765,-15.7738 98.2871,-23.6367 41.4106,-7.8628 105.2897,-15.3536 190.1269,-18.0215 84.8373,-2.6678 190.9832,-0.5315 290.0254,5.3575 99.0422,5.8889 191.1747,15.5263 289.9629,27.3379 98.7882,11.8116 204.0133,25.7904 267.1621,31.2343 31.5744,2.722 52.5591,3.3964 68.2305,1.7911 3.232,-0.3311 6.3054,-0.7961 9.2148,-1.4004 1.6902,0.5278 3.4599,0.7545 5.2285,0.6699 59.4961,-2.8494 119.0095,-5.7009 178.3614,-8.7403 59.3519,-3.0393 120.685,-5.959 174.9824,-33.1074 54.2974,-27.1484 98.2019,-77.1182 126.291,-137.2285 28.0892,-60.1103 40.2308,-130.0567 36.8867,-196.9414 -3.3441,-66.8848 -22.2794,-130.0922 -49.7676,-189.4668 -27.4881,-59.3746 -63.6805,-115.2101 -116.1523,-184.9922 -52.4718,-69.7821 -121.7693,-154.3152 -201.3633,-226.8222 -79.594,-72.5071 -169.3288,-132.688 -278.9062,-180.1172 -109.5775,-47.4293 -238.0887,-81.9046 -344.5,-110.9258 -106.4114,-29.0213 -191.8525,-52.821 -296.2949,-72.8438 -104.4427,-20.0227 -227.4279,-36.1981 -344.6055,-45.9179 -117.1776,-9.7199 -228.0077,-12.9542 -325.1953,-21.4981 -97.1877,-8.5439 -182.0306,-22.5076 -272.4629,-31.1719 -90.4324,-8.6642 -185.6268,-11.9233 -269.8653,-8.1191 -84.2384,3.8042 -157.2897,14.6933 -222.7617,30.5156 -65.472,15.8224 -123.0321,35.4583 -157.875,34.5293 -34.8427,-0.9289 -52.9416,-18.5312 -76.8359,-51.7754 -23.8943,-33.2441 -49.0099,-78.2182 -66.8594,-131.8496 -17.8495,-53.6313 -28.8047,-117.2966 -39.7773,-181.5683 -0.1417,-0.8313 -0.3528,-1.6492 -0.6309,-2.4453 9.5418,-41.8054 16.7691,-74.5436 29.2969,-103.2715 14.414,-33.053 37.2527,-63.7762 54.4219,-95.0684 17.1693,-31.2923 27.681,-62.6504 29.1015,-99.0098 0.3609,-9.2387 0.1886,-18.7568 -0.5293,-28.3183 26.3402,-13.7881 51.9959,-26.0061 83.9512,-31.0899 35.8191,-5.6984 82.5814,-2.473 124.1738,-0.7031 41.5924,1.7699 78.4736,1.9215 115.6641,-8.4355 37.1904,-10.3569 72.6067,-30.5228 103.6992,-52.1524 31.0925,-21.6296 58.0949,-45.0491 83.541,-70.0488 25.4461,-24.9998 49.3508,-51.5676 63.9922,-67.0703 7.3207,-7.7513 12.4339,-12.7516 16.4297,-17.6192 1.9979,-2.4338 4.0079,-4.6555 5.5371,-9.4101 1.5291,-4.7547 -0.209,-14.0879 -4.2851,-18.1641 -8.1526,-8.1523 -14.1275,-6.866 -22.2559,-7.3105 -4.0643,-0.2225 -8.733,-0.266 -14.2051,-0.1426 -5.4722,0.1234 -11.7468,0.4139 -19.0176,0.8613 -29.0832,1.7897 -73.4569,6.1322 -114.7363,6.9922 -41.2795,0.8599 -81.4236,-1.8766 -124.9805,4.084 -43.5568,5.9605 -88.8276,20.4879 -130.5898,41.3691 -41.7622,20.8812 -79.1018,47.61 -109.6641,66.9805 -30.5623,19.3704 -55.4347,32.2369 -72.8867,41.4609 -10.4621,5.5296 -18.0429,9.6418 -24.4277,13.1622 -9.6143,-10.6536 -20.1941,-19.1547 -30.543,-26.7754 51.2219,-67.3094 100.8277,-130.7723 140.0801,-170.6426 46.7514,-47.4875 77.07,-61.6195 118.207,-68.416 41.1371,-6.7964 92.2235,-4.7507 150.2422,2.3613 58.0187,7.112 123.1746,19.3311 175.0156,21.6875 51.841,2.3563 90.0808,-4.7172 115,-24.4648 12.4596,-9.8737 21.1927,-23.9906 24.9864,-41.4532 3.7938,-17.4626 3.6596,-38.3104 1.1347,-66.084 -5.0498,-55.5471 -20.2021,-139.3812 -28.4492,-209.8574 -8.2472,-70.4762 -9.6788,-127.8089 -5.2676,-174.8613 4.4112,-47.0525 14.866,-84.1695 17.4199,-110.5606 1.2771,-13.1953 0.4727,-23.3953 -2.8203,-32.0019 -3.2929,-8.60663 -9.8585,-15.09829 -16.0722,-18.20508 -3.1068,-1.55338 -7.1232,-2.59174 -11.3614,-2.80469 -1.0595,-0.0532 -2.1324,-0.0548 -3.2089,0 z m 1.8066,30.49217 c 0.1387,0.2375 0.2608,0.447 0.5957,1.3223 0.8738,2.2835 1.9605,7.9957 0.9648,18.2851 -1.9914,20.5788 -12.7478,60.7324 -17.4277,110.6504 -4.6799,49.9181 -3.0796,109.2481 5.3399,181.1973 8.4196,71.9492 23.5701,156.294 28.3691,209.082 2.3995,26.394 2.0752,44.7503 -0.5703,56.9278 -2.6456,12.1776 -6.6025,18.1382 -14.2188,24.1738 -15.2324,12.0711 -46.6879,20.146 -94.8476,17.957 -48.1597,-2.189 -113.3041,-14.212 -172.711,-21.4941 -59.4069,-7.2822 -112.8645,-9.7791 -158.8496,-2.1817 -45.9852,7.5975 -85.3628,26.7971 -134.8242,77.0372 -49.3582,50.1352 -110.4933,131.0652 -171.7285,211.957 -13.4875,4.1694 -24.3732,6.8099 -36.3535,3.918 -13.1773,-3.181 -31.9012,-15.209 -44.6016,-28.625 -12.7005,-13.4161 -20.6075,-28.6829 -24.1582,-40.3497 -2.9026,-9.5372 -3.2106,-16.8729 -3.0039,-25.2285 32.4448,-39.235 64.4387,-77.8393 104.6816,-115.1289 40.4012,-37.4359 89.7188,-74.047 136.3965,-101.4609 46.6777,-27.414 90.2833,-45.6004 149.2676,-59.6973 58.9843,-14.097 133.2172,-23.828 197.6211,-23.8281 64.4039,-10e-5 120.279,9.6722 150.5469,16.3164 15.1339,3.322 23.6139,5.8589 28.2773,7.6641 4.6634,1.8052 5.1922,2.3716 7.8438,4.2656 6.7945,4.8532 16.237,3.2792 21.0898,-3.5156 4.8533,-6.7946 3.2793,-16.237 -3.5156,-21.0899 -2.6516,-1.894 -7.4248,-5.1171 -14.5039,-7.8574 -6.6056,-2.557 -15.4961,-5.1348 -29.5957,-8.3086 9.1662,-57.2212 18.2231,-115.2511 24.9726,-180.9707 7.2487,-70.5785 11.9084,-149.4381 21.7832,-201.3731 9.8748,-51.9347 24.8636,-78.2419 34.9766,-91.291 4.2857,-5.53 7.0393,-7.606 8.1836,-8.3535 z m -1838.2285,40.5762 c 1.1443,0.7475 3.8979,2.8235 8.1836,8.3535 10.113,13.0491 25.1017,39.3562 34.9765,91.291 9.8748,51.9349 14.5345,130.7946 21.7832,201.3731 6.7496,65.7196 15.8065,123.7514 24.9727,180.9726 -14.0996,3.1738 -22.9901,5.7497 -29.5957,8.3067 -7.0791,2.7403 -11.8523,5.9634 -14.5039,7.8574 -6.7948,4.8528 -8.3688,14.2953 -3.5156,21.0898 4.8528,6.7948 14.2952,8.3689 21.0898,3.5157 2.6516,-1.894 3.1804,-2.4605 7.8438,-4.2657 4.6634,-1.8052 13.1434,-4.342 28.2773,-7.664 30.2679,-6.6442 86.143,-16.3165 150.5469,-16.3164 64.4039,10e-5 138.6368,9.7311 197.6211,23.8281 58.9843,14.0969 102.5898,32.2833 149.2676,59.6973 46.6777,27.4139 95.9953,64.025 136.3964,101.4609 40.2431,37.2895 72.2369,75.8958 104.6817,115.1309 0.2067,8.3554 -0.1013,15.6893 -3.0039,25.2265 -3.5507,11.6668 -11.4577,26.9335 -24.1582,40.3496 -12.7004,13.4161 -31.4243,25.4442 -44.6016,28.625 -11.9803,2.8919 -22.8641,0.2535 -36.3516,-3.916 -61.2352,-80.8918 -122.3722,-161.8236 -171.7304,-211.959 -49.4614,-50.2401 -88.839,-69.4396 -134.8242,-77.0371 -45.9851,-7.5974 -99.4428,-5.1005 -158.8497,2.1817 -59.4069,7.2821 -124.5512,19.3051 -172.7109,21.4941 -48.1597,2.189 -79.6153,-5.8859 -94.8476,-17.957 -7.6163,-6.0356 -11.5732,-11.9963 -14.2188,-24.1739 -2.6455,-12.1775 -2.9698,-30.5337 -0.5703,-56.9277 4.799,-52.788 19.9495,-137.1328 28.3691,-209.082 8.4195,-71.9492 10.0198,-131.2792 5.3399,-181.1973 -4.6799,-49.918 -15.4364,-90.0716 -17.4278,-110.6504 -0.9957,-10.2894 0.091,-16.0017 0.9649,-18.2851 0.3349,-0.8753 0.457,-1.0848 0.5957,-1.3223 z m 1786.5937,706.4551 c -0.6839,0.721 -0.711,0.764 -1.4355,1.5312 -15.1833,16.0764 -38.6448,42.1381 -63.1992,66.2617 -24.5543,24.1236 -50.1829,46.3189 -79.6172,66.795 -29.4343,20.4761 -62.4363,38.9058 -94.5449,47.8476 -32.1085,8.9417 -65.4033,9.0924 -106.2676,7.3535 -40.8644,-1.7389 -88.8362,-5.5314 -130.211,1.0508 -32.5997,5.1862 -59.2189,16.7879 -83.6328,29.1992 -3.5413,-17.0654 -8.9319,-33.3951 -16.2324,-47.5508 -0.5527,-1.0716 -1.1151,-2.1253 -1.6875,-3.164 5.5886,-3.0612 12.1812,-6.6177 20.8496,-11.1992 17.2211,-9.102 43.2245,-22.5508 74.9434,-42.6543 31.7188,-20.1034 68.0616,-46.0064 107.0019,-65.4766 38.9403,-19.4702 81.3867,-33.0118 121.1641,-38.4551 39.7773,-5.4433 78.5798,-2.9161 121.5117,-3.8105 42.9318,-0.8943 88.0297,-5.3239 115.9649,-7.043 6.012,-0.37 10.8942,-0.5553 15.3925,-0.6855 z m -109.3769,25.1679 c -2.6523,0.1 -5.2315,0.8959 -7.4785,2.3086 -30.9105,19.426 -60.815,37.9447 -90.9043,46.584 -30.0894,8.6394 -64.9382,8.3258 -108.0684,16.4336 -43.1303,8.1078 -91.5112,24.4279 -139.5078,40.5313 -7.916,2.6561 -12.1798,11.2266 -9.5234,19.1425 2.6561,7.916 11.2266,12.1799 19.1425,9.5235 47.9967,-16.1035 95.6073,-31.9884 135.4727,-39.4824 39.8653,-7.494 75.0102,-6.8032 110.8301,-17.0879 35.8199,-10.2847 67.736,-30.6189 98.6465,-50.045 7.0707,-4.4422 9.201,-13.7756 4.7578,-20.8457 -2.8742,-4.573 -7.9698,-7.2652 -13.3672,-7.0625 z m -1602.6113,0.6543 c 4.4983,0.1302 9.3805,0.3156 15.3925,0.6856 27.9352,1.7191 73.0331,6.1485 115.9649,7.043 42.9319,0.8942 81.7344,-1.6328 121.5117,3.8105 39.7774,5.4433 82.2238,18.9849 121.1641,38.4551 38.9403,19.4702 75.2831,45.3731 107.0019,65.4765 31.7189,20.1035 57.6906,33.6694 77.4609,40.9024 9.2492,3.3838 17.2215,5.2436 24.1641,6.2637 -6.5253,20.9004 -12.5279,41.4221 -17.1133,60.8203 -26.2379,-13.6552 -54.6945,-26.9574 -90.2715,-32.6172 -41.3748,-6.5822 -89.3465,-2.7897 -130.2109,-1.0508 -40.8643,1.7389 -74.1591,1.5882 -106.2676,-7.3535 -32.1086,-8.9418 -65.1106,-27.3716 -94.5449,-47.8477 -29.4343,-20.4761 -55.0629,-42.6713 -79.6172,-66.7949 -24.5544,-24.1236 -48.0159,-50.1853 -63.1992,-66.2617 -0.7245,-0.7672 -0.7516,-0.8103 -1.4355,-1.5313 z m 839.3418,22.8946 c 19.6181,-0.7623 37.5995,1.3503 56.0117,4.0547 0.1199,8.4335 1.0282,18.0339 4.3222,28.8574 4.9858,16.3822 14.9635,35.2619 31.125,52.334 16.1616,17.0722 37.2758,31.8725 59.4649,37.2285 22.1891,5.3561 41.2305,-0.8876 56.6777,-5.7656 3.4447,-1.0882 6.3859,-3.374 8.291,-6.4434 0.8156,-0.7001 1.5541,-1.4851 2.2032,-2.3418 3.7293,-4.9265 7.4589,-9.8533 11.1855,-14.7715 11.3722,8.357 21.6551,16.7541 30.2734,27.4551 0.2846,0.8003 0.6361,1.5752 1.0508,2.3164 1.0322,1.8437 2.4394,3.4505 4.1309,4.7168 2.0949,3.1206 4.0635,6.4362 5.8965,9.9902 6.2485,12.1158 11.1095,27.921 14.1953,44.6758 -1.3403,-0.1955 -2.7008,-0.2099 -4.0449,-0.043 -13.4123,1.6671 -27.0677,3.2648 -40.4727,5.5625 -22.3414,3.8298 -43.9903,9.6043 -62.668,20.8829 -14.942,9.0226 -26.7324,20.8327 -34.1738,33.2558 -3.7207,6.2115 -6.4573,12.6006 -7.3223,19.7598 -0.8649,7.1592 0.7363,16.1138 6.8555,22.4863 6.1193,6.3726 13.49,8.2763 20.4316,9.1777 6.9418,0.9014 14.1135,0.61 21.6582,-0.2714 15.0895,-1.763 31.6201,-6.0626 46.6563,-11.2442 20.5279,-7.0741 37.8078,-15.7917 53.6855,-24.793 -3.9105,20.1643 -11.3824,38.8033 -22.3418,58.7774 -15.6354,28.4967 -39.3568,60.2071 -55.6308,97.5254 -16.2739,37.318 -23.6897,77.2628 -35.5215,128.0078 -11.8318,50.7449 -28.2628,113.6304 -42.1348,153.1914 -13.8721,39.561 -24.8605,55.9921 -32.4277,66.5859 -7.2565,13.2474 -18.4673,15.0743 -32.2285,18.2188 -22.5462,-1.0547 -43.5407,-2.7823 -59.5313,-8.9785 -17.7734,-6.8871 -32.8475,-20.2101 -46.4941,-36.586 -13.6465,-16.3758 -25.5923,-35.4997 -41.584,-59.7539 -15.9918,-24.2541 -35.599,-52.8679 -55.7031,-82.2304 -20.1041,-29.3626 -40.1125,-58.8848 -51.6543,-87.125 -11.5417,-28.2403 -15.7934,-58.3966 -26.1856,-94.4961 -10.3923,-36.0996 -26.0966,-75.1395 -32.5214,-106.5215 -1.4058,-6.8664 -2.413,-13.4327 -3.0586,-19.836 18.5262,6.7716 38.5723,13.1616 62.5507,16.7598 15.5222,2.3293 32.4512,3.5365 47.5547,2.5215 7.5517,-0.5075 14.6419,-1.5248 21.295,-3.6719 6.6531,-2.1471 13.5503,-5.3516 18.4121,-12.7285 4.8617,-7.3768 4.8114,-16.4739 2.6621,-23.3574 -2.1493,-6.8835 -5.9995,-12.67 -10.7852,-18.1035 -9.5715,-10.8671 -23.3078,-20.3433 -39.6387,-26.5059 -20.4137,-7.7032 -42.7505,-9.4545 -65.416,-9.168 -10.0459,0.1271 -20.1566,0.6554 -30.1933,1.2422 5.6488,-24.638 14.1637,-52.4093 23.3047,-80.9336 4.6885,6.1849 9.3819,12.3849 14.0761,18.586 0.6584,0.8533 1.4061,1.6338 2.2305,2.3281 1.8959,3.0694 4.8269,5.3596 8.2637,6.457 15.4472,4.8781 34.4886,11.1217 56.6777,5.7656 22.1891,-5.356 43.3031,-20.1563 59.4649,-37.2285 16.1615,-17.0721 26.1391,-35.9518 31.125,-52.334 4.9857,-16.3821 4.5061,-29.9599 4.0996,-40.9355 -0.1764,-4.5678 -2.4102,-8.8105 -6.0762,-11.541 -0.086,-0.1217 -0.1727,-0.2422 -0.2617,-0.3613 -3.3912,-4.101 -6.7877,-8.2075 -10.1993,-12.3204 22.2117,-4.1153 43.631,-7.5994 62.4376,-8.33 z m -738.5899,2.6699 c -4.6917,0.2764 -8.988,2.7191 -11.625,6.6094 -4.6854,6.912 -2.8795,16.3137 4.0332,20.998 30.2212,20.4819 61.416,41.9063 96.8594,53.4219 35.4434,11.5155 70.593,12.0381 110.1758,20.9043 39.5828,8.8663 86.6154,26.3873 134.0273,44.1387 7.8199,2.9273 16.5322,-1.0393 19.459,-8.8594 2.9264,-7.8183 -1.038,-16.5287 -8.8555,-19.4571 -47.4118,-17.7512 -95.2008,-35.7337 -138.0254,-45.3261 -42.8245,-9.5924 -77.6624,-10.4829 -107.4355,-20.1563 -29.773,-9.6733 -59.021,-29.2134 -89.2422,-49.6953 -2.7548,-1.8674 -6.0488,-2.7736 -9.3711,-2.5781 z m 1026.8887,208.6172 c 0.166,2.9815 0.27,5.9437 0.3105,8.873 -15.1459,9.0644 -29.8702,17.7226 -46.5488,25.1602 0.3753,-1.7747 0.5648,-3.5932 0.5645,-5.418 0,-7.926 -3.5657,-15.3063 -9.461,-19.582 15.7509,-3.4495 33.3304,-5.8134 51.3477,-8.0528 1.2995,-0.1614 2.5725,-0.491 3.7871,-0.9804 z m -84.4727,17.9551 c -1.5017,3.2963 -2.2852,6.9513 -2.2851,10.6601 -5e-4,6.7245 2.5701,13.12 7.0488,17.5371 -9.459,2.6573 -18.9777,4.7083 -27.0078,5.6465 -5.9273,0.6924 -11.058,0.7317 -14.2559,0.3164 -0.3054,-0.04 -0.3037,-0.09 -0.5625,-0.1387 0.4879,-1.5158 1.2357,-3.4043 2.6465,-5.7597 4.3336,-7.2347 13.1456,-16.4416 23.8613,-22.9121 3.2421,-1.9578 6.7731,-3.7322 10.5547,-5.3496 z m -404.8008,11.0605 c 1.2885,0.048 2.5672,0.105 3.834,0.1719 -4.0794,4.3904 -6.3888,10.4834 -6.3886,16.8554 -2e-4,3.5411 0.7138,7.0356 2.0878,10.2168 -18.1047,-4.0809 -34.0464,-9.8663 -50.4179,-16.0664 0.2683,-3.3098 0.6221,-6.637 1.0566,-10.0039 17.4087,-1.0002 34.3731,-1.7484 49.8281,-1.1738 z m 35.5782,5.0176 c 1.7826,0.5313 3.5133,1.1104 5.1875,1.7422 11.7117,4.4194 22.0489,11.8746 27.623,18.2031 1.8155,2.0612 2.8918,3.7851 3.6465,5.1875 -0.2468,0.096 -0.2365,0.1451 -0.5313,0.2402 -3.066,0.9895 -8.1064,1.8809 -14.0351,2.2793 -7.0999,0.4772 -15.4811,0.3149 -24.0156,-0.3359 3.2728,-4.2385 5.0764,-9.6771 5.0761,-15.3067 0,-4.2327 -1.0203,-8.3851 -2.9511,-12.0097 z m 295.4863,249.2597 c -1.321,-0.03 -2.6402,0.1143 -3.9238,0.4278 -2.5783,0.6297 -4.9454,1.9271 -6.8633,3.7617 l -73.0156,69.8418 c -6.0336,5.7715 -6.2462,15.3414 -0.4747,21.375 5.7715,6.0336 15.3414,6.2461 21.375,0.4746 l 73.0157,-69.8418 c 6.0336,-5.7715 6.2461,-15.3414 0.4746,-21.375 -2.7713,-2.8971 -6.5798,-4.5748 -10.5879,-4.6641 z m -211.168,22.084 c -5.396,-0.2185 -10.4989,2.458 -13.3867,7.0215 -4.4644,7.0562 -2.363,16.3954 4.6934,20.8594 l 77.7773,49.207 c 7.0561,4.4644 16.3954,2.3631 20.8594,-4.6933 4.4644,-7.0562 2.363,-16.3954 -4.6934,-20.8594 l -77.7793,-49.2051 c -2.2426,-1.4189 -4.8191,-2.2225 -7.4707,-2.3301 z m -114.4179,42.9883 c 10.1594,16.8866 21.4416,33.2878 32.3828,49.2676 20.1079,29.3681 39.6537,57.8966 55.4082,81.791 15.7545,23.8944 28.1471,43.9236 43.6015,62.4688 15.4543,18.5451 34.2418,35.9068 58.7969,45.4218 13.1042,5.0778 90.1934,32.0719 127.2871,-19.8593 8.306,-11.6284 21.6578,-32.2335 36.3574,-74.1543 9.8314,-28.0376 20.4114,-65.5204 29.9239,-102.6426 7.8437,41.9506 16.8678,82.8896 29.3379,120.3574 18.93,56.8778 45.4276,104.3758 70.9961,139.9492 25.5684,35.5734 54.7784,63.1324 100.582,64.3535 45.8035,1.2212 102.2215,-20.0026 165.7832,-35.3632 63.5617,-15.3607 134.5933,-25.9787 217.0234,-29.7012 82.4302,-3.7226 176.4781,-0.5286 265.6172,8.0117 89.1392,8.5403 174.1858,22.5329 272.6992,31.1934 98.5135,8.6604 209.1856,11.8764 325.3438,21.5117 116.1582,9.6353 238.3279,25.7178 341.414,45.4804 103.0862,19.7627 187.5349,43.2745 294.0293,72.3184 106.4945,29.0439 233.892,63.3836 340.4454,109.5039 106.5533,46.1203 193.1581,104.2174 270.5546,174.7227 77.3966,70.5053 145.7306,153.7119 197.5606,222.6406 51.83,68.9287 86.6052,122.7678 112.8808,179.5234 26.2757,56.7557 43.8986,116.1246 47.0059,178.2735 3.1073,62.1488 -8.4069,127.6865 -34.082,182.6308 -25.6752,54.9444 -65.6391,99.5952 -112.418,122.9844 -46.779,23.3893 -103.7227,26.9211 -163.0078,29.957 -48.92,2.5052 -97.972,4.881 -147.0566,7.2364 0.9929,-4.1024 1.4335,-8.3125 1.4335,-12.4473 1e-4,-10.5382 -2.5136,-21.1588 -6.4101,-31.9492 -0.1,-0.2767 -0.2004,-0.5545 -0.3027,-0.8321 48.4825,-2.5151 97.3959,-5.2113 148.1738,-11.5585 53.3296,-6.6663 108.0034,-17.2396 143.8965,-26.2129 17.9465,-4.4867 31.6576,-8.5928 43.3808,-14.6836 11.7232,-6.0909 21.1771,-14.6249 28.2989,-25.4395 14.2433,-21.629 21.6951,-51.2674 29.5898,-80.2148 2.1964,-8.055 -2.5525,-16.3655 -10.6074,-18.5625 -2.5604,-0.6984 -5.2596,-0.7105 -7.8262,-0.035 -5.2229,1.3751 -9.3154,5.432 -10.7363,10.6426 -7.8948,28.9474 -16.2327,57.2025 -25.6739,71.5391 -4.7204,7.1682 -9.0824,11.1337 -16.9863,15.2402 -7.9039,4.1065 -19.6321,7.8943 -36.7734,12.1797 -34.2826,8.5707 -88.3779,19.0511 -140.3125,25.5429 -51.9346,6.4919 -102.4158,9.1146 -153.293,11.7461 -2.0434,0.1059 -4.0441,0.6255 -5.8808,1.5274 -12.1847,-18.3474 -33.292,-43.8779 -73.086,-86.3027 -65.4383,-69.765 -182.5945,-186.9071 -299.7988,-304.1114 -3.8195,-3.8191 -9.3863,-5.3104 -14.6035,-3.9121 -2.5633,0.6866 -4.9008,2.0358 -6.7774,3.9121 -5.9044,5.9041 -5.9044,15.4768 0,21.3809 117.2043,117.2043 234.4575,234.4708 299.127,303.416 64.6695,68.9452 75.5664,87.8786 81.7519,105.0078 3.0928,8.5646 4.6133,16.2234 4.6133,21.6797 0,5.4563 -1.175,8.1339 -2.7363,9.8789 -1.5614,1.7451 -3.8616,3.7027 -15.7442,4.9199 -11.8824,1.2172 -31.7585,0.8167 -62.5507,-1.8379 -61.5845,-5.309 -167.1067,-19.2863 -266.17,-31.1308 -99.0632,-11.8445 -191.8731,-21.561 -291.7578,-27.5 -99.8846,-5.9391 -206.6396,-8.1032 -292.7715,-5.3946 -86.1315,2.7086 -151.2802,10.2708 -194.8164,18.5372 -43.5361,8.2663 -64.232,16.9283 -98.4882,23.6757 -34.2563,6.7474 -84.5954,12.1457 -124.9532,14.8008 -27.1157,1.7839 -49.5816,2.2721 -68.125,0.9395 l 101.5879,-87.8594 c 6.3151,-5.4619 7.0067,-15.0091 1.5449,-21.3242 -3.5328,-4.0853 -8.9767,-5.9757 -14.2812,-4.959 -2.6065,0.4995 -5.0355,1.6763 -7.043,3.4121 l -119.3554,103.2266 c -0.168,0.1454 -0.3328,0.2945 -0.4942,0.4472 -10.1586,-3.3976 -19.262,-7.8192 -28.3027,-12.8008 18.5697,-18.4736 37.309,-36.5234 59.8125,-54.0761 26.0123,-20.2897 57.4273,-40.0958 86.8047,-52.252 29.3773,-12.1562 58.3244,-17.3953 104.6797,-26.5586 46.3552,-9.1632 108.2819,-21.8843 160.3379,-25.0078 52.0559,-3.1234 96.2585,3.1493 228.6289,17.6777 132.3703,14.5285 351.7134,37.1088 571.0683,59.6895 8.3059,0.8557 15.7328,-5.1842 16.5879,-13.4902 0.8557,-8.3059 -5.1842,-15.7328 -13.4902,-16.5879 -33.157,-3.4132 -66.3137,-6.8256 -99.1699,-10.211 -0.3833,-0.5067 -0.7982,-0.9888 -1.2422,-1.4433 -45.1613,-46.2366 -90.459,-92.6135 -161,-161.5391 -70.541,-68.9256 -165.8943,-160.1833 -226.4668,-240.2441 -60.5726,-80.0608 -87.5728,-149.7348 -107.1934,-218.6719 -19.6206,-68.9371 -31.2975,-135.9595 -35.498,-185.8398 -2.1003,-24.9402 -2.1713,-44.8653 1.4433,-61.1895 3.6146,-16.3242 10.4374,-29.3659 24.1973,-42.8887 27.5196,-27.0454 85.7729,-54.4067 134.1523,-71.2343 48.3794,-16.8277 84.4681,-23.7466 141.5137,-16.4864 57.0456,7.2603 134.9363,29.5192 229.0703,63.2149 94.1341,33.6956 204.7649,78.7977 315.5176,123.959 7.7315,3.1524 16.5545,-0.5597 19.707,-8.2911 3.1524,-7.7314 -0.5596,-16.5545 -8.291,-19.707 -110.7527,-45.1613 -221.6293,-90.3829 -316.7441,-124.4297 -95.1149,-34.0467 -174.2087,-56.9468 -235.4434,-64.7402 -15.3087,-1.9484 -29.5071,-2.9023 -42.9844,-2.9609 -40.4319,-0.1759 -74.3675,7.6967 -112.2773,20.8828 -50.5465,17.5814 -110.57,43.981 -145.416,78.2265 -17.423,17.1228 -27.8048,36.6078 -32.5235,57.918 -4.7186,21.3102 -4.2517,44.1279 -2.0507,70.2637 4.4018,52.2714 16.38,120.7307 36.5449,191.58 20.1649,70.8494 49.0768,145.2568 112.1621,228.6387 63.0853,83.3819 159.1272,174.9173 229.4473,243.627 57.9495,56.6224 98.7198,97.8859 136.5449,136.5273 -166.9891,-17.2249 -322.234,-33.3623 -424.8672,-44.6269 -115.6283,-12.691 -165.3913,-19.3525 -213.1875,-18.5899 -6.828,0.109 -13.6168,0.3691 -20.5508,0.7852 -55.4722,3.3284 -118.2721,16.4109 -164.3906,25.5273 -46.1185,9.1165 -77.388,14.6306 -110.377,28.2813 -32.9889,13.6506 -66.0883,34.7033 -93.8398,56.3496 -27.7515,21.6462 -49.7798,43.7036 -71.2852,65.209 -2.0094,2.0248 -3.405,4.5769 -4.0254,7.3613 -0.5738,0.6592 -1.0894,1.3669 -1.541,2.1152 -0.5459,0.9278 -0.9911,1.9112 -1.3281,2.9336 l -3.3125,0.1055 c 0.4045,-1.5649 0.6973,-3.1818 0.8652,-4.8477 1.5081,-14.9552 -4.1226,-28.9688 -11.8515,-43.6425 -7.7289,-14.6738 -18.2942,-29.5446 -29.9629,-42.5313 -23.3374,-25.9733 -54.0776,-45.6359 -93.9317,-42.543 -39.8541,3.0929 -83.8448,25.4406 -121.6992,38.4043 -37.8544,12.9638 -70.8603,17.8336 -92.5058,16.4219 -14.9384,-0.9743 -25.1028,-4.5355 -34.9161,-9.4766 0.2572,-0.2695 0.5116,-0.543 0.7637,-0.8203 9.423,-10.3652 12.0913,-24.6396 11.1602,-39.539 -1.8624,-29.7989 -15.3866,-71.9535 -46.711,-151.8848 -31.3243,-79.9313 -80.7935,-197.1356 -130.2558,-314.3398 -2.0996,-4.9768 -6.6949,-8.4552 -12.0547,-9.125 -2.6335,-0.3286 -5.3071,0.042 -7.752,1.0742 -7.6919,3.247 -11.2953,12.1145 -8.0488,19.8066 49.4623,117.2043 98.9175,234.4079 129.959,313.6172 31.0414,79.2093 43.3222,120.924 44.6855,142.7383 0.6817,10.9071 -0.6816,14.3732 -3.3554,17.3144 -2.6739,2.9413 -9.851,6.9168 -24.1133,10.67 -28.5247,7.5064 -79.7061,14.0615 -147.9356,17.2597 -68.2295,3.1982 -154.0612,3.2091 -254.5078,2.1348 -100.4465,-1.0743 -215.4812,-3.2245 -303.2011,-4.3008 -87.72,-1.0763 -148.0522,-1.0767 -192.8399,-0.5371 -44.7877,0.5396 -74.0321,1.622 -103.0644,2.6973 -8.3443,0.3086 -14.8583,7.3236 -14.5489,15.6679 0.3086,8.3443 7.3237,14.8583 15.668,14.5489 29.0323,-1.0753 57.8485,-2.1441 102.3086,-2.6797 44.4601,-0.5357 104.5554,-0.5371 192.1055,0.5371 87.55,1.0742 202.619,3.2264 303.25,4.3027 100.6309,1.0763 186.8394,1.0854 256.2461,-2.1679 69.4066,-3.2534 121.4481,-9.6 154.2148,-18.2227 2.3552,-0.6198 4.6393,-1.2517 6.8535,-1.9102 0.8425,0.7793 1.771,1.4601 2.7676,2.0293 15.0537,8.6021 33.5384,18.9631 61.3555,20.7774 27.8171,1.8142 63.6267,-4.0703 104.2675,-17.9883 40.6409,-13.918 84.8189,-34.5797 114.2442,-36.8633 29.4253,-2.2835 49.0688,10.3101 69.1015,32.6055 7.7241,8.5964 15.0606,18.4525 20.9122,28.0156 -16.6801,5.0554 -32.9704,9.6985 -48.336,12.918 -20.356,4.2651 -40.0713,6.2585 -60.3965,8.291 -8.3079,0.8307 -14.3695,8.2389 -13.539,16.5469 0.8307,8.3088 8.2401,14.3706 16.5488,13.539 20.3252,-2.0325 41.2605,-4.105 63.5879,-8.7832 18.0293,-3.7775 36.3249,-9.1077 54.4726,-14.6582 0.7963,3.2705 1.1015,5.7642 0.9707,7.0606 -0.3352,3.3247 -0.5821,3.6743 -6.6933,6.3574 -6.1112,2.6831 -16.9284,4.8605 -29.1758,6.7402 -24.4949,3.7594 -52.4608,6.9927 -110.0625,14.5293 -57.6017,7.5367 -143.5528,19.2187 -266.1855,18.1524 -122.6328,-1.0664 -283.2544,-15.0588 -464.2012,-13.9785 -180.9468,1.0802 -381.1525,17.2362 -532.7539,23.1289 -151.6014,5.8926 -255.5603,1.4592 -311.0176,-7.3516 -27.7286,-4.4054 -42.9038,-9.9185 -51.3926,-15.1855 -8.4888,-5.2671 -11.4731,-10.0558 -16.2793,-18.6563 -9.6123,-17.201 -16.9532,-36.9117 -13.9785,-51.4141 2.9747,-14.5022 16.2639,-30.2983 43.8828,-39.8222 27.6189,-9.5239 72.2004,-12.1342 126.7031,-23.6953 54.5026,-11.5611 117.126,-32.131 197.1973,-57.9258 80.0714,-25.7948 176.3647,-56.3974 289.6836,-62.1953 113.3189,-5.798 245.9812,13.3033 379.3145,32.6582 8.2633,1.2004 15.9351,-4.5256 17.1347,-12.7891 1.1992,-8.2633 -4.5276,-15.9341 -12.791,-17.1328 -116.6666,-16.9355 -233.8462,-34.0653 -340.2793,-34.043 -15.2047,0 -30.1906,0.3556 -44.9238,1.1094 -9.1389,0.4676 -18.1676,1.0894 -27.084,1.8516 -23.4627,-41.1872 -47.4742,-83.1589 -86.6113,-140.42 -39.7385,-58.1407 -94.7811,-131.6923 -139.3438,-193.9218 -44.5627,-62.2296 -78.3999,-112.8086 -104.7773,-167.1153 -26.3775,-54.3067 -45.3696,-112.2751 -54.4219,-183.1425 -9.0523,-70.8675 -8.0323,-154.99 3.1406,-232.1602 11.1729,-77.1702 32.5379,-148.1675 55.1485,-213.6328 22.6105,-65.4654 46.3236,-125.0215 65.7734,-174.8203 14.6262,-37.4484 26.7666,-69.1995 38.2813,-99.5098 z m 222.5136,36.4824 c -1.3208,0.039 -2.6308,0.2512 -3.8965,0.6309 -7.9973,2.3991 -12.5356,10.8269 -10.1367,18.8242 3.1746,10.582 5.8989,20.0152 6.543,29.2481 0.5454,7.8169 -0.3372,17.1193 -1.584,27.1738 -1.6434,-0.233 -3.2974,-0.5135 -4.9609,-0.8418 -17.3247,-3.4193 -37.711,-12.8455 -58.875,-22.8985 -7.5422,-3.5825 -16.5604,-0.3723 -20.1426,7.17 -3.5825,7.5421 -0.3724,16.5604 7.1699,20.1426 21.1641,10.0529 43.1048,20.7327 65.9922,25.25 22.8872,4.5171 44.6434,2.1567 62.8105,-4.3204 18.1672,-6.4771 31.8052,-16.7002 44.0606,-25.7441 6.7184,-4.9572 8.1463,-14.422 3.1894,-21.1406 -3.2072,-4.3465 -8.4897,-6.6516 -13.8574,-6.0469 -2.6373,0.2972 -5.1498,1.2833 -7.2851,2.8594 -12.2555,9.0439 -23.1255,16.9084 -36.2617,21.5918 -3.534,1.2599 -7.3015,2.3163 -11.2559,3.1211 1.0768,-9.1245 1.8441,-18.6448 1.1621,-28.42 -0.9431,-13.5187 -4.5695,-25.25 -7.7441,-35.832 -1.5517,-5.1735 -5.7457,-9.1262 -11.002,-10.3691 -1.2856,-0.3038 -2.6054,-0.4377 -3.9258,-0.3985 z m 421.291,365.8067 c -0.6597,0.01 -1.318,0.064 -1.9707,0.1601 -2.6253,0.3882 -5.1021,1.4606 -7.1816,3.1094 -76.3158,60.5263 -152.754,121.013 -200.9551,170.1152 -48.201,49.1022 -67.4113,87.0761 -81.3554,122.6114 -13.9442,35.5352 -23.722,70.2777 -33.3711,104.4882 -2.2666,8.0356 2.4098,16.3872 10.4453,18.6543 8.0362,2.2665 16.3881,-2.411 18.6543,-10.4472 9.6491,-34.2106 19.169,-67.8868 32.4179,-101.6504 13.249,-33.7636 29.1262,-65.964 74.7852,-112.4766 45.6589,-46.5125 121.8522,-107.0791 198.168,-167.6054 6.5413,-5.1881 7.6387,-14.6965 2.4511,-21.2383 -2.921,-3.6822 -7.3884,-5.7965 -12.0879,-5.7207 z"
       sodipodi:nodetypes="csssscsssscsccsssscsscsccccsssssssssccssssssscssscssssscssscssssssscssssssssssssccccsssssssssccssssssssssssssssssscssscsssssssssssssssssccssssssssssssscccssssssssssscssscssssssscsscsssccssscsccsscsssscssscssssssssssccccssssscscsssssscscsssscsscsscscssssccsssssscscssscccccccsccsssssssscssssscssssssscsssssssscccccsssccccscscsscccsscccccccsccccsscsscscccccscssccscscssccsccssccccccccssssssscsssssssssssssssssscsscssssssscssssscsssscssssssssssssccssccccssssssssccssssssssssscsssssssssscssssssccccccssssscssscsscsssssssssccsssssccsssscssscscssssssssssssssscsccscssssssssssscscssscsscsscscsssssccsssccssscs" />
  </g>
</svg>
