<?xml version="1.0" encoding="UTF-8" standalone="no"?>
<!-- Created with Inkscape (http://www.inkscape.org/) -->

<svg
   version="1.1"
   id="svg1"
   width="654.46429"
   height="370.53571"
   viewBox="0 0 654.46429 370.53571"
   sodipodi:docname="x3.svg"
   inkscape:version="1.4.2 (ebf0e940d0, 2025-05-08)"
   xmlns:inkscape="http://www.inkscape.org/namespaces/inkscape"
   xmlns:sodipodi="http://sodipodi.sourceforge.net/DTD/sodipodi-0.dtd"
   xmlns="http://www.w3.org/2000/svg"
   xmlns:svg="http://www.w3.org/2000/svg">
  <defs
     id="defs1">
    <inkscape:path-effect
       effect="bspline"
       id="path-effect58"
       is_visible="true"
       lpeversion="1.3"
       weight="33.333333"
       steps="2"
       helper_size="0"
       apply_no_weight="true"
       apply_with_weight="true"
       only_selected="false"
       uniform="false" />
    <inkscape:path-effect
       effect="bspline"
       id="path-effect57"
       is_visible="true"
       lpeversion="1.3"
       weight="33.333333"
       steps="2"
       helper_size="0"
       apply_no_weight="true"
       apply_with_weight="true"
       only_selected="false"
       uniform="false" />
    <inkscape:path-effect
       effect="bspline"
       id="path-effect56"
       is_visible="true"
       lpeversion="1.3"
       weight="33.333333"
       steps="2"
       helper_size="0"
       apply_no_weight="true"
       apply_with_weight="true"
       only_selected="false"
       uniform="false" />
    <inkscape:path-effect
       effect="bspline"
       id="path-effect55"
       is_visible="true"
       lpeversion="1.3"
       weight="33.333333"
       steps="2"
       helper_size="0"
       apply_no_weight="true"
       apply_with_weight="true"
       only_selected="false"
       uniform="false" />
    <inkscape:path-effect
       effect="bspline"
       id="path-effect54"
       is_visible="true"
       lpeversion="1.3"
       weight="33.333333"
       steps="2"
       helper_size="0"
       apply_no_weight="true"
       apply_with_weight="true"
       only_selected="false"
       uniform="false" />
    <inkscape:path-effect
       effect="bspline"
       id="path-effect53"
       is_visible="true"
       lpeversion="1.3"
       weight="33.333333"
       steps="2"
       helper_size="0"
       apply_no_weight="true"
       apply_with_weight="true"
       only_selected="false"
       uniform="false" />
    <inkscape:path-effect
       effect="bspline"
       id="path-effect52"
       is_visible="true"
       lpeversion="1.3"
       weight="33.333333"
       steps="2"
       helper_size="0"
       apply_no_weight="true"
       apply_with_weight="true"
       only_selected="false"
       uniform="false" />
    <inkscape:path-effect
       effect="bspline"
       id="path-effect51"
       is_visible="true"
       lpeversion="1.3"
       weight="33.333333"
       steps="2"
       helper_size="0"
       apply_no_weight="true"
       apply_with_weight="true"
       only_selected="false"
       uniform="false" />
    <inkscape:path-effect
       effect="bspline"
       id="path-effect50"
       is_visible="true"
       lpeversion="1.3"
       weight="33.333333"
       steps="2"
       helper_size="0"
       apply_no_weight="true"
       apply_with_weight="true"
       only_selected="false"
       uniform="false" />
    <inkscape:path-effect
       effect="bspline"
       id="path-effect49"
       is_visible="true"
       lpeversion="1.3"
       weight="33.333333"
       steps="2"
       helper_size="0"
       apply_no_weight="true"
       apply_with_weight="true"
       only_selected="false"
       uniform="false" />
    <inkscape:path-effect
       effect="bspline"
       id="path-effect48"
       is_visible="true"
       lpeversion="1.3"
       weight="33.333333"
       steps="2"
       helper_size="0"
       apply_no_weight="true"
       apply_with_weight="true"
       only_selected="false"
       uniform="false" />
    <inkscape:path-effect
       effect="bspline"
       id="path-effect47"
       is_visible="true"
       lpeversion="1.3"
       weight="33.333333"
       steps="2"
       helper_size="0"
       apply_no_weight="true"
       apply_with_weight="true"
       only_selected="false"
       uniform="false" />
    <inkscape:path-effect
       effect="bspline"
       id="path-effect46"
       is_visible="true"
       lpeversion="1.3"
       weight="33.333333"
       steps="2"
       helper_size="0"
       apply_no_weight="true"
       apply_with_weight="true"
       only_selected="false"
       uniform="false" />
    <inkscape:path-effect
       effect="bspline"
       id="path-effect45"
       is_visible="true"
       lpeversion="1.3"
       weight="33.333333"
       steps="2"
       helper_size="0"
       apply_no_weight="true"
       apply_with_weight="true"
       only_selected="false"
       uniform="false" />
    <inkscape:path-effect
       effect="bspline"
       id="path-effect44"
       is_visible="true"
       lpeversion="1.3"
       weight="33.333333"
       steps="2"
       helper_size="0"
       apply_no_weight="true"
       apply_with_weight="true"
       only_selected="false"
       uniform="false" />
    <inkscape:path-effect
       effect="bspline"
       id="path-effect43"
       is_visible="true"
       lpeversion="1.3"
       weight="33.333333"
       steps="2"
       helper_size="0"
       apply_no_weight="true"
       apply_with_weight="true"
       only_selected="false"
       uniform="false" />
    <inkscape:path-effect
       effect="bspline"
       id="path-effect42"
       is_visible="true"
       lpeversion="1.3"
       weight="33.333333"
       steps="2"
       helper_size="0"
       apply_no_weight="true"
       apply_with_weight="true"
       only_selected="false"
       uniform="false" />
    <inkscape:path-effect
       effect="bspline"
       id="path-effect41"
       is_visible="true"
       lpeversion="1.3"
       weight="33.333333"
       steps="2"
       helper_size="0"
       apply_no_weight="true"
       apply_with_weight="true"
       only_selected="false"
       uniform="false" />
    <inkscape:path-effect
       effect="bspline"
       id="path-effect40"
       is_visible="true"
       lpeversion="1.3"
       weight="33.333333"
       steps="2"
       helper_size="0"
       apply_no_weight="true"
       apply_with_weight="true"
       only_selected="false"
       uniform="false" />
    <inkscape:path-effect
       effect="bspline"
       id="path-effect39"
       is_visible="true"
       lpeversion="1.3"
       weight="33.333333"
       steps="2"
       helper_size="0"
       apply_no_weight="true"
       apply_with_weight="true"
       only_selected="false"
       uniform="false" />
    <inkscape:path-effect
       effect="bspline"
       id="path-effect38"
       is_visible="true"
       lpeversion="1.3"
       weight="33.333333"
       steps="2"
       helper_size="0"
       apply_no_weight="true"
       apply_with_weight="true"
       only_selected="false"
       uniform="false" />
    <inkscape:path-effect
       effect="bspline"
       id="path-effect37"
       is_visible="true"
       lpeversion="1.3"
       weight="33.333333"
       steps="2"
       helper_size="0"
       apply_no_weight="true"
       apply_with_weight="true"
       only_selected="false"
       uniform="false" />
    <inkscape:path-effect
       effect="bspline"
       id="path-effect36"
       is_visible="true"
       lpeversion="1.3"
       weight="33.333333"
       steps="2"
       helper_size="0"
       apply_no_weight="true"
       apply_with_weight="true"
       only_selected="false"
       uniform="false" />
    <inkscape:path-effect
       effect="bspline"
       id="path-effect35"
       is_visible="true"
       lpeversion="1.3"
       weight="33.333333"
       steps="2"
       helper_size="0"
       apply_no_weight="true"
       apply_with_weight="true"
       only_selected="false"
       uniform="false" />
    <inkscape:path-effect
       effect="bspline"
       id="path-effect34"
       is_visible="true"
       lpeversion="1.3"
       weight="33.333333"
       steps="2"
       helper_size="0"
       apply_no_weight="true"
       apply_with_weight="true"
       only_selected="false"
       uniform="false" />
    <inkscape:path-effect
       effect="bspline"
       id="path-effect33"
       is_visible="true"
       lpeversion="1.3"
       weight="33.333333"
       steps="2"
       helper_size="0"
       apply_no_weight="true"
       apply_with_weight="true"
       only_selected="false"
       uniform="false" />
    <inkscape:path-effect
       effect="bspline"
       id="path-effect32"
       is_visible="true"
       lpeversion="1.3"
       weight="33.333333"
       steps="2"
       helper_size="0"
       apply_no_weight="true"
       apply_with_weight="true"
       only_selected="false"
       uniform="false" />
    <inkscape:path-effect
       effect="bspline"
       id="path-effect31"
       is_visible="true"
       lpeversion="1.3"
       weight="33.333333"
       steps="2"
       helper_size="0"
       apply_no_weight="true"
       apply_with_weight="true"
       only_selected="false"
       uniform="false" />
    <inkscape:path-effect
       effect="bspline"
       id="path-effect30"
       is_visible="true"
       lpeversion="1.3"
       weight="33.333333"
       steps="2"
       helper_size="0"
       apply_no_weight="true"
       apply_with_weight="true"
       only_selected="false"
       uniform="false" />
    <inkscape:path-effect
       effect="bspline"
       id="path-effect29"
       is_visible="true"
       lpeversion="1.3"
       weight="33.333333"
       steps="2"
       helper_size="0"
       apply_no_weight="true"
       apply_with_weight="true"
       only_selected="false"
       uniform="false" />
    <inkscape:path-effect
       effect="bspline"
       id="path-effect28"
       is_visible="true"
       lpeversion="1.3"
       weight="33.333333"
       steps="2"
       helper_size="0"
       apply_no_weight="true"
       apply_with_weight="true"
       only_selected="false"
       uniform="false" />
    <inkscape:path-effect
       effect="bspline"
       id="path-effect27"
       is_visible="true"
       lpeversion="1.3"
       weight="33.333333"
       steps="2"
       helper_size="0"
       apply_no_weight="true"
       apply_with_weight="true"
       only_selected="false"
       uniform="false" />
    <inkscape:path-effect
       effect="bspline"
       id="path-effect26"
       is_visible="true"
       lpeversion="1.3"
       weight="33.333333"
       steps="2"
       helper_size="0"
       apply_no_weight="true"
       apply_with_weight="true"
       only_selected="false"
       uniform="false" />
    <inkscape:path-effect
       effect="bspline"
       id="path-effect25"
       is_visible="true"
       lpeversion="1.3"
       weight="33.333333"
       steps="2"
       helper_size="0"
       apply_no_weight="true"
       apply_with_weight="true"
       only_selected="false"
       uniform="false" />
    <inkscape:path-effect
       effect="bspline"
       id="path-effect24"
       is_visible="true"
       lpeversion="1.3"
       weight="33.333333"
       steps="2"
       helper_size="0"
       apply_no_weight="true"
       apply_with_weight="true"
       only_selected="false"
       uniform="false" />
    <inkscape:path-effect
       effect="bspline"
       id="path-effect23"
       is_visible="true"
       lpeversion="1.3"
       weight="33.333333"
       steps="2"
       helper_size="0"
       apply_no_weight="true"
       apply_with_weight="true"
       only_selected="false"
       uniform="false" />
    <inkscape:path-effect
       effect="bspline"
       id="path-effect22"
       is_visible="true"
       lpeversion="1.3"
       weight="33.333333"
       steps="2"
       helper_size="0"
       apply_no_weight="true"
       apply_with_weight="true"
       only_selected="false"
       uniform="false" />
    <inkscape:path-effect
       effect="bspline"
       id="path-effect21"
       is_visible="true"
       lpeversion="1.3"
       weight="33.333333"
       steps="2"
       helper_size="0"
       apply_no_weight="true"
       apply_with_weight="true"
       only_selected="false"
       uniform="false" />
    <inkscape:path-effect
       effect="bspline"
       id="path-effect20"
       is_visible="true"
       lpeversion="1.3"
       weight="33.333333"
       steps="2"
       helper_size="0"
       apply_no_weight="true"
       apply_with_weight="true"
       only_selected="false"
       uniform="false" />
    <inkscape:path-effect
       effect="bspline"
       id="path-effect19"
       is_visible="true"
       lpeversion="1.3"
       weight="33.333333"
       steps="2"
       helper_size="0"
       apply_no_weight="true"
       apply_with_weight="true"
       only_selected="false"
       uniform="false" />
    <inkscape:path-effect
       effect="bspline"
       id="path-effect18"
       is_visible="true"
       lpeversion="1.3"
       weight="33.333333"
       steps="2"
       helper_size="0"
       apply_no_weight="true"
       apply_with_weight="true"
       only_selected="false"
       uniform="false" />
    <inkscape:path-effect
       effect="bspline"
       id="path-effect17"
       is_visible="true"
       lpeversion="1.3"
       weight="33.333333"
       steps="2"
       helper_size="0"
       apply_no_weight="true"
       apply_with_weight="true"
       only_selected="false"
       uniform="false" />
    <inkscape:path-effect
       effect="bspline"
       id="path-effect16"
       is_visible="true"
       lpeversion="1.3"
       weight="33.333333"
       steps="2"
       helper_size="0"
       apply_no_weight="true"
       apply_with_weight="true"
       only_selected="false"
       uniform="false" />
    <inkscape:path-effect
       effect="bspline"
       id="path-effect15"
       is_visible="true"
       lpeversion="1.3"
       weight="33.333333"
       steps="2"
       helper_size="0"
       apply_no_weight="true"
       apply_with_weight="true"
       only_selected="false"
       uniform="false" />
    <inkscape:path-effect
       effect="bspline"
       id="path-effect14"
       is_visible="true"
       lpeversion="1.3"
       weight="33.333333"
       steps="2"
       helper_size="0"
       apply_no_weight="true"
       apply_with_weight="true"
       only_selected="false"
       uniform="false" />
    <inkscape:path-effect
       effect="bspline"
       id="path-effect13"
       is_visible="true"
       lpeversion="1.3"
       weight="33.333333"
       steps="2"
       helper_size="0"
       apply_no_weight="true"
       apply_with_weight="true"
       only_selected="false"
       uniform="false" />
    <inkscape:path-effect
       effect="bspline"
       id="path-effect12"
       is_visible="true"
       lpeversion="1.3"
       weight="33.333333"
       steps="2"
       helper_size="0"
       apply_no_weight="true"
       apply_with_weight="true"
       only_selected="false"
       uniform="false" />
    <inkscape:path-effect
       effect="bspline"
       id="path-effect11"
       is_visible="true"
       lpeversion="1.3"
       weight="33.333333"
       steps="2"
       helper_size="0"
       apply_no_weight="true"
       apply_with_weight="true"
       only_selected="false"
       uniform="false" />
    <inkscape:path-effect
       effect="bspline"
       id="path-effect10"
       is_visible="true"
       lpeversion="1.3"
       weight="33.333333"
       steps="2"
       helper_size="0"
       apply_no_weight="true"
       apply_with_weight="true"
       only_selected="false"
       uniform="false" />
    <inkscape:path-effect
       effect="bspline"
       id="path-effect9"
       is_visible="true"
       lpeversion="1.3"
       weight="33.333333"
       steps="2"
       helper_size="0"
       apply_no_weight="true"
       apply_with_weight="true"
       only_selected="false"
       uniform="false" />
    <inkscape:path-effect
       effect="bspline"
       id="path-effect8"
       is_visible="true"
       lpeversion="1.3"
       weight="33.333333"
       steps="2"
       helper_size="0"
       apply_no_weight="true"
       apply_with_weight="true"
       only_selected="false"
       uniform="false" />
    <inkscape:path-effect
       effect="bspline"
       id="path-effect7"
       is_visible="true"
       lpeversion="1.3"
       weight="33.333333"
       steps="2"
       helper_size="0"
       apply_no_weight="true"
       apply_with_weight="true"
       only_selected="false"
       uniform="false" />
    <inkscape:path-effect
       effect="bspline"
       id="path-effect6"
       is_visible="true"
       lpeversion="1.3"
       weight="33.333333"
       steps="2"
       helper_size="0"
       apply_no_weight="true"
       apply_with_weight="true"
       only_selected="false"
       uniform="false" />
    <inkscape:path-effect
       effect="bspline"
       id="path-effect5"
       is_visible="true"
       lpeversion="1.3"
       weight="33.333333"
       steps="2"
       helper_size="0"
       apply_no_weight="true"
       apply_with_weight="true"
       only_selected="false"
       uniform="false" />
    <inkscape:path-effect
       effect="bspline"
       id="path-effect4"
       is_visible="true"
       lpeversion="1.3"
       weight="33.333333"
       steps="2"
       helper_size="0"
       apply_no_weight="true"
       apply_with_weight="true"
       only_selected="false"
       uniform="false" />
    <inkscape:path-effect
       effect="bspline"
       id="path-effect3"
       is_visible="true"
       lpeversion="1.3"
       weight="33.333333"
       steps="2"
       helper_size="0"
       apply_no_weight="true"
       apply_with_weight="true"
       only_selected="false"
       uniform="false" />
    <inkscape:path-effect
       effect="bspline"
       id="path-effect2"
       is_visible="true"
       lpeversion="1.3"
       weight="33.333333"
       steps="2"
       helper_size="0"
       apply_no_weight="true"
       apply_with_weight="true"
       only_selected="false"
       uniform="false" />
    <inkscape:path-effect
       effect="bspline"
       id="path-effect1"
       is_visible="true"
       lpeversion="1.3"
       weight="33.333333"
       steps="2"
       helper_size="0"
       apply_no_weight="true"
       apply_with_weight="true"
       only_selected="false"
       uniform="false" />
    <inkscape:path-effect
       effect="bspline"
       id="path-effect55-7"
       is_visible="true"
       lpeversion="1.3"
       weight="33.333333"
       steps="2"
       helper_size="0"
       apply_no_weight="true"
       apply_with_weight="true"
       only_selected="false"
       uniform="false" />
    <inkscape:path-effect
       effect="bspline"
       id="path-effect55-9"
       is_visible="true"
       lpeversion="1.3"
       weight="33.333333"
       steps="2"
       helper_size="0"
       apply_no_weight="true"
       apply_with_weight="true"
       only_selected="false"
       uniform="false" />
    <inkscape:path-effect
       effect="bspline"
       id="path-effect55-3"
       is_visible="true"
       lpeversion="1.3"
       weight="33.333333"
       steps="2"
       helper_size="0"
       apply_no_weight="true"
       apply_with_weight="true"
       only_selected="false"
       uniform="false" />
  </defs>
  <sodipodi:namedview
     id="namedview1"
     pagecolor="#ffffff"
     bordercolor="#000000"
     borderopacity="0.25"
     inkscape:showpageshadow="2"
     inkscape:pageopacity="0.0"
     inkscape:pagecheckerboard="0"
     inkscape:deskcolor="#d1d1d1"
     showgrid="false"
     inkscape:zoom="1.12"
     inkscape:cx="457.58929"
     inkscape:cy="159.82143"
     inkscape:window-width="1920"
     inkscape:window-height="1011"
     inkscape:window-x="0"
     inkscape:window-y="0"
     inkscape:window-maximized="1"
     inkscape:current-layer="layer1" />
  <g
     inkscape:groupmode="layer"
     id="layer1"
     inkscape:label="Layer 1"
     style="display:inline"
     transform="translate(0,-100.89286)">
    <path
       style="fill:#decd87;stroke-width:3.78;stroke-linecap:round;paint-order:markers fill stroke"
       d="m 510.32268,301.12107 5.21154,-10.06196 12.8012,-7.38833 16.70441,0.68045 4.32728,3.44648 5.38963,13.86567 c 0,0 0.44245,14.98981 -0.32577,16.63046 -0.76822,1.64064 -4.54332,7.05426 -4.54332,7.05426 l -2.59041,-1.77303 c 0,0 -0.59966,-5.98181 -0.93249,-7.57792 -0.33283,-1.5961 -7.18871,-12.28766 -7.18871,-12.28766 l -12.28421,-14.09346 -2.6711,1.38974 0.84762,8.05825 8.52043,20.89266 0.52149,2.94468 -3.19976,-0.25805 -11.52148,-5.55488 -5.39973,-8.58946 -3.69606,-6.63153 z"
       id="path4" />
    <path
       style="fill:#00ffff;stroke-width:3.78;stroke-linecap:round;paint-order:markers fill stroke"
       d="m 522.7857,263.26899 1.03588,7.18625 5.84647,6.73827 3.6469,0.62745 c 0,0 4.17812,-3.92468 4.13736,-4.56388 -0.0407,-0.6392 -0.77284,-3.26238 -1.45279,-3.86082 -0.67995,-0.59843 -7.1652,-5.07535 -7.1652,-5.07535 0,0 -3.06318,-0.93423 -3.77256,-0.78631 -0.70937,0.14793 -2.27606,-0.26561 -2.27606,-0.26561 z"
       id="path3" />
    <path
       id="path2"
       style="fill:#552200;stroke-width:3.78;stroke-linecap:round;paint-order:markers fill stroke"
       d="m 384.2935,118.37386 -10.72787,4.57335 -15.54553,11.21622 -2.78799,-0.62569 -4.76167,-1.58478 -6.00064,2.13713 -21.59794,18.11856 -13.26606,13.64182 -5.45084,12.49496 -1.26251,8.23983 -0.79161,16.67882 -5.33506,-1.62682 -25.94282,-8.12325 -19.92575,-2.45085 -25.37097,1.18253 -31.71568,4.76008 -27.30387,6.98244 -35.23337,15.32166 -21.19006,11.18619 -41.90718,25.81713 -24.760163,19.18099 -19.628331,18.67549 -10.375605,11.66842 0.81321,3.13437 c 0,0 2.214618,0.18214 2.80005,-0.10106 0.585431,-0.2832 8.442668,-3.9357 9.028098,-4.2189 0.585434,-0.28319 23.964051,-16.43527 23.964051,-16.43527 l 5.98048,1.24883 6.51791,0.73573 7.98428,-1.50332 14.48753,-8.17647 4.91284,6.9501 5.86195,1.83818 11.5511,-4.0986 3.95705,3.52425 5.71328,2.67521 8.77269,-1.58792 16.77484,-6.47874 4.46803,-2.13876 c 0,0 3.89423,1.28203 4.27073,1.92856 0.3765,0.64654 7.68859,2.1017 7.68859,2.1017 0,0 5.99612,-0.60489 6.62656,-1.0586 0.63044,-0.45371 8.69418,-3.50485 8.69418,-3.50485 l -1.01597,2.46636 1.07889,5.17387 6.01277,1.4037 13.39165,-2.22788 c 0,0 2.62825,-0.14505 2.93706,-0.20944 0.001,-2.5e-4 0.005,-10e-4 0.006,-10e-4 0.002,-4e-5 0.008,10e-4 0.0103,0.002 l 0.002,0.002 0.002,0.002 0.002,0.002 0.002,0.002 c 6.9e-4,7.7e-4 0.002,0.004 0.003,0.005 0.14287,0.24287 -1.3439,3.72584 -1.3439,3.72584 l -0.57692,4.95452 2.76027,2.80816 6.5621,0.56492 9.05848,-0.60008 2.13232,-0.20323 -2.25859,9.25157 3.78217,3.0779 7.43334,0.86806 9.31818,1.03764 8.46486,-1.52373 0.37835,2.98165 -0.81855,3.79585 5.38952,2.66291 8.14142,0.80021 -3.11384,3.22704 -29.05722,17.49932 -31.57366,23.98353 -21.21526,19.57103 -23.54669,25.77525 -14.39207,19.8381 -2.05142,6.38924 1.04607,3.08383 1.97745,-0.17095 10.38205,-3.53359 5.4356,-0.97187 -1.21896,4.20057 0.117,2.87654 1.11281,3.79613 9.34799,-5.00985 10.35545,-4.8189 0.96593,2.6995 -4.09311,12.05024 1.40458,1.7222 3.4556,-1.2054 18.86703,-6.10898 -0.91073,4.13828 2.73013,6.51942 2.29948,-0.55931 15.3462,-9.08175 -0.42409,2.98936 3.22286,0.77842 6.87514,-4.8992 13.59214,-13.62802 0.68201,4.04557 1.92793,6.93011 3.97288,1.66746 9.42804,-12.35666 7.31963,-10.87157 1.15879,1.69165 5.55877,8.50729 3.23301,0.0521 3.82564,-5.22895 4.4489,-9.95173 6.66248,-32.56531 7.26339,-6.51043 21.1465,-7.14694 35.994,-7.4259 23.08557,-6.34422 23.00619,-12.53255 16.66391,-10.48379 10.72195,-7.30944 24.33532,-21.99332 12.81157,-10.80773 13.75116,-5.52699 11.77242,-1.48723 9.55551,1.39117 9.32023,2.97052 7.47991,4.96633 2.46445,4.47992 1.48019,-2.56515 8.26949,-10.1818 8.75216,-4.00175 c 0,0 11.6255,-0.65109 12.33973,-0.31666 0.71422,0.33444 6.184,1.4498 6.184,1.4498 l 1.89134,2.50653 3.92498,7.23591 c 0,0 1.22664,-1.46305 1.60937,-1.94567 0.38272,-0.48261 6.65345,-12.90854 6.50856,-13.60337 -0.14489,-0.69484 -2.19345,-12.8342 -2.19345,-12.8342 l -12.30294,-23.4551 -13.78126,-15.09245 -15.44583,-4.9153 -21.57547,-3.79872 -26.27615,2.25712 -16.74723,2.36299 2.37978,-4.03961 16.71573,-17.58331 15.57111,-13.80126 18.13447,-10.38742 15.00051,-6.10874 22.77379,-4.74894 35.07504,-2.56166 31.97551,-1.18909 c 0,0 17.74871,0.88999 18.31805,0.52959 0.56933,-0.3604 7.45537,-3.64754 7.45537,-3.64754 0,0 1.36055,-3.91027 1.21236,-5.00722 -0.14814,-1.09696 -2.38838,-4.49573 -3.2892,-4.95237 -0.90083,-0.45664 -9.76292,-2.39537 -9.76292,-2.39537 l -18.35947,-1.89339 -3.26919,-4.47373 -21.11516,-11.62785 -17.73532,-1.21774 -16.15548,0.95274 c 0,0 5.34394,-4.90107 5.67837,-5.61529 0.33443,-0.71423 1.6719,-3.57025 1.34369,-3.98517 -0.3282,-0.41493 -5.07356,-1.92276 -5.07356,-1.92276 l -16.27236,0.009 -3.87841,0.32593 c 0,0 3.09314,-3.70673 2.79384,-4.36936 -0.2993,-0.66264 -6.32466,-1.74169 -6.32466,-1.74169 l -6.57223,0.16144 -20.15055,4.20192 -4.45192,-1.64937 -12.13472,-2.94824 -10.52498,0.90588 -16.20945,7.64969 0.86655,-7.43103 -3.75027,-2.92493 -11.35328,1.96644 -23.09154,9.40601 -1.11483,-5.729 -5.74952,-1.29899 -17.82903,6.05414 -3.56461,-2.80005 z m 138.49257,144.89509 c 0,0 1.5666,0.41352 2.27598,0.26559 0.70938,-0.14792 3.77297,0.7854 3.77297,0.7854 0,0 6.48368,4.47775 7.16364,5.07618 0.67994,0.59844 1.41275,3.22156 1.45349,3.86077 0.0408,0.6392 -4.13791,4.56384 -4.13791,4.56384 l -3.64604,-0.62633 -5.84653,-6.73945 z" />
    <path
       id="path1"
       style="baseline-shift:baseline;display:inline;overflow:visible;opacity:1;vector-effect:none;fill:#000000;stroke-linecap:round;paint-order:markers fill stroke;enable-background:accumulate;stop-color:#000000;stop-opacity:1"
       d="m 451.13672,109.32422 c -1.21661,0.009 -2.58845,0.15041 -4.14453,0.42969 -1.55607,0.27928 -3.29565,0.69649 -5.25,1.26171 -5.99795,1.73463 -13.97333,4.86229 -21.5293,8.33594 -0.0624,-0.81231 -0.20842,-1.63549 -0.50781,-2.45508 -0.7065,-1.93218 -2.66032,-3.58769 -5.39844,-3.92382 -1.36903,-0.16807 -2.96965,-0.12605 -4.78125,0.14453 -4.17115,0.62303 -9.45965,2.45554 -15.61133,5.73047 -0.64623,-0.8666 -1.47802,-1.72717 -2.68164,-2.32227 -1.44543,-0.71468 -3.23659,-0.89859 -5.44922,-0.4707 -0.73753,0.14263 -1.52114,0.35362 -2.35547,0.63476 -6.54748,2.20626 -16.91419,8.65344 -26.27148,15.70899 -0.98396,-0.75617 -2.24934,-1.59766 -3.98242,-1.86524 -1.03564,-0.1599 -2.16956,-0.10797 -3.44336,0.18946 -1.27381,0.29743 -2.68992,0.84119 -4.29688,1.66796 -6.42787,3.30709 -16.31265,11.18661 -24.22656,18.88672 -7.9139,7.7001 -13.67536,15.10528 -16.72851,20.81641 -3.05315,5.71112 -3.26525,9.788 -3.44727,14.3418 -0.17189,4.30058 -0.38187,9.50528 -0.59375,14.76172 -1.62768,-0.66351 -3.25219,-1.30132 -4.86914,-1.90625 -13.86907,-5.18864 -27.08712,-7.95041 -40.64063,-9.11719 -13.55349,-1.16678 -27.4837,-0.74456 -42.27148,1.36523 -3.69694,0.52745 -7.44683,1.15845 -11.23828,1.89649 -11.37436,2.21411 -23.11446,5.37851 -34.85547,9.48437 -15.65468,5.47446 -31.27554,12.61435 -47.09766,20.75586 -15.82211,8.1415 -31.887726,17.30378 -46.474606,27.41211 -14.58688,10.10832 -27.626877,21.11292 -37.945312,30.30664 -10.318435,9.19373 -17.898893,16.50799 -21.353516,21.1875 -0.863656,1.16988 -1.474985,2.17559 -1.865234,3.13281 -0.390247,0.95723 -0.607888,1.92641 -0.3125,2.95899 0.295386,1.03259 1.227963,1.83235 2.085937,2.13086 0.857975,0.29851 1.687921,0.30835 2.556641,0.23437 3.474874,-0.29594 8.205669,-2.33085 17.720703,-9.01562 4.43157,-3.1134 9.89506,-7.24877 15.78125,-11.71289 0.0446,0.0142 0.08915,0.0284 0.134766,0.0391 4.79344,1.106 9.879472,2.30389 15.576172,1.40039 5.69668,-0.9035 11.641227,-3.82646 17.841797,-8.08008 0.462829,-0.31751 0.927988,-0.64203 1.392578,-0.97265 0.74102,1.57827 1.541795,3.25611 2.765625,4.73437 1.31534,1.58878 3.23815,2.90895 5.74414,3.25195 3.69928,0.50632 8.283449,-0.73367 14.109379,-3.40039 0.69772,1.00804 1.51734,2.04095 2.61914,2.95118 1.6058,1.32657 3.80684,2.29573 6.71289,2.52734 5.81209,0.46323 14.53711,-1.64775 25.82226,-7.40625 1.13874,-0.58108 2.3017,-1.19833 3.48633,-1.84961 0.0902,0.0561 0.18481,0.10445 0.2832,0.14453 5.9154,2.40386 12.694,5.03828 21.73438,1.30664 1.19023,-0.49128 2.41343,-1.08085 3.66602,-1.75781 -0.026,0.078 -0.0517,0.15622 -0.0762,0.23437 -0.28435,0.90872 -0.46624,1.84882 -0.36132,2.85157 0.10488,1.00274 0.57949,2.0675 1.40039,2.82617 1.64177,1.5173 3.88895,1.89115 6.5039,2.07031 2.61494,0.17916 5.62762,-8.6e-4 8.63281,-0.44531 2.26634,-0.33517 4.52867,-0.8272 6.86914,-1.51367 -0.3404,0.66682 -0.65006,1.33669 -0.91015,2.00976 -0.80091,2.0726 -1.1903,4.44084 0.0781,6.47461 1.26844,2.03374 3.73868,3.13303 7.08985,3.49805 3.13985,0.34203 7.20592,0.0548 12.43554,-1.04297 -0.36983,0.71406 -0.71407,1.42597 -1.00976,2.13477 -0.78911,1.8915 -1.3573,3.82843 -0.72266,5.80468 0.63464,1.97623 2.35525,3.19531 4.31641,3.9961 1.96117,0.8008 4.34439,1.29511 7.08398,1.71289 4.54668,0.69335 10.34445,1.15607 17.4336,-0.16407 -0.56943,1.06151 -1.00252,2.19907 -0.93164,3.51368 0.0822,1.52342 1.00921,2.91104 2.28711,3.77148 1.27789,0.86045 2.89542,1.34595 4.85156,1.57422 1.4871,0.17354 3.16138,0.19589 4.9414,0.10352 -4.5283,2.44483 -9.4171,5.22913 -15.1289,8.79882 -9.91278,6.19516 -22.27564,14.73587 -34.17578,23.72461 -11.90016,8.98876 -23.37091,18.45478 -35.38282,30.76758 -12.01192,12.31277 -24.50524,27.38332 -31.15429,36.97266 -6.64904,9.58935 -7.52985,13.94887 -7.29688,16.64648 0.0582,0.67442 0.17011,1.33643 0.51172,2.00586 0.34159,0.66944 1.00678,1.31169 1.76172,1.60156 1.50989,0.57974 2.87435,0.20349 4.66797,-0.36328 2.87657,-0.90896 7.05824,-2.76041 11.52148,-4.79687 -0.23941,0.66381 -0.4491,1.29567 -0.625,1.88867 -0.48478,1.63426 -0.74057,2.9985 -0.70703,4.24609 0.0335,1.24758 0.4216,2.51971 1.40235,3.35547 0.98075,0.83575 2.24872,1.0033 3.40429,0.88281 1.15557,-0.12048 2.33747,-0.50278 3.65039,-1.0625 3.7679,-1.60626 8.66017,-4.77069 13.89453,-8.36914 -2.04971,3.63155 -3.27927,6.59035 -3.84375,9.00782 -0.59974,2.56847 -0.58895,4.7602 0.87305,6.29882 0.73101,0.76932 1.74817,1.13614 2.67188,1.2168 0.92372,0.0807 1.81489,-0.0571 2.73437,-0.2832 1.83897,-0.45212 3.8243,-1.29796 5.93945,-2.19922 3.39642,-1.44722 7.20529,-3.11523 11.09375,-4.82813 -0.94485,3.67141 -0.70122,6.30126 0.24024,8.20508 0.75363,1.52398 2.40372,2.6363 4.07812,2.6543 1.6744,0.018 3.26545,-0.64191 5.11914,-1.65625 2.82571,-1.54622 6.27763,-4.0655 9.88672,-6.8086 0.2066,0.75271 0.69852,1.52481 1.42383,1.96094 1.68442,1.01285 3.42746,0.48789 5.45899,-0.42968 4.06307,-1.8352 10.09211,-6.38831 17,-14.9004 0.0839,-0.1034 0.16785,-0.20802 0.25195,-0.3125 0.0731,2.43806 0.35755,4.71781 1.17969,6.63086 0.74244,1.72759 2.12656,3.1966 4.00586,3.54883 1.87929,0.35225 3.81615,-0.41293 5.64453,-1.90039 3.65676,-2.97493 7.42704,-8.9359 11.92773,-17.03711 0.69301,-1.24743 1.40085,-2.54555 2.11914,-3.88476 0.39356,1.42343 0.81429,2.80993 1.29883,4.08789 0.85646,2.25878 1.84035,4.27999 3.72461,5.48242 1.88425,1.20241 4.42599,0.95052 6.41016,-0.44922 1.98417,-1.39973 3.6903,-3.78548 5.12695,-7.21289 2.87328,-6.85482 4.57845,-17.74619 6.08789,-25.55859 1.50945,-7.81239 2.79101,-12.50097 4.375,-15.41407 1.58398,-2.91308 3.34479,-4.22914 7.02734,-5.92187 3.68256,-1.69272 8.98995,-3.49904 16.42774,-5.31055 7.4378,-1.81148 17.06357,-3.64308 27.41992,-5.89062 10.35634,-2.24763 21.4524,-4.90899 31.07031,-8.33985 9.61791,-3.43087 17.69068,-7.62393 28.64063,-14.3164 10.94996,-6.69247 24.88277,-15.9347 35.96093,-25.44141 11.07816,-9.5067 19.09993,-19.01022 27.98243,-24.21289 8.8825,-5.20267 19.13555,-6.51087 27.19531,-5.99219 8.05974,0.5187 13.81567,2.82015 17.83398,5.6543 4.01828,2.83416 6.3374,6.2059 8.53907,10.19726 2.20169,3.99135 4.22952,8.69935 7.99218,12.21485 3.3648,3.14375 13.1932,7.73275 16.49805,9.23633 0.89227,0.40595 1.68401,0.75373 2.34766,1.01953 0.66365,0.26581 1.07066,0.45935 1.77929,0.55468 0.17717,0.0238 0.38374,0.0507 0.72461,-0.008 0.34088,-0.0589 0.93784,-0.2734 1.32422,-0.84961 0.38643,-0.57618 0.35873,-1.21435 0.2832,-1.55078 -0.0753,-0.33648 -0.17822,-0.51287 -0.26367,-0.66015 -0.34204,-0.58909 -0.62554,-0.82265 -1.01367,-1.23047 -0.77627,-0.81562 -1.86266,-1.89431 -2.9043,-3.1543 -2.08328,-2.52001 -4.14665,-5.97304 -5.91406,-9.90039 -1.7674,-3.92735 -3.24364,-8.33084 -4.11914,-12.5293 -0.47863,-2.29528 -0.78598,-4.56039 -1.01367,-6.82812 3.21578,3.62554 6.36086,7.28856 9.2832,11.16211 3.91104,5.18408 7.44247,10.83127 8.91406,14.85156 0.7358,2.01013 1.013,3.70708 1.23829,5.09766 0.11261,0.6953 0.2026,1.308 0.38281,1.93359 0.1802,0.6256 0.46407,1.43802 1.37109,1.98828 0.907,0.55027 1.9451,0.41883 2.67774,0.10938 0.73263,-0.30945 1.33194,-0.79405 1.90625,-1.41211 1.14862,-1.2361 2.17746,-3.05648 2.92773,-5.51954 1.50054,-4.9261 1.83946,-12.14071 0.63281,-18.50976 -0.34959,-1.84548 -0.83109,-3.58935 -1.40234,-5.25781 0.0136,-0.0192 0.0281,-0.0389 0.041,-0.0586 2.95009,-4.43697 6.11029,-9.10407 7.0371,-14.86718 0.92681,-5.7631 -0.47945,-12.182 -4.01562,-20.56446 -3.53617,-8.38242 -9.22684,-18.86275 -15.33789,-25.81445 -6.11106,-6.95169 -12.58788,-10.11759 -18.97266,-12.21094 -6.38479,-2.09335 -12.86295,-3.23342 -17.63281,-3.8457 -4.76988,-0.61229 -7.89385,-0.69438 -11.51562,-0.73242 -3.62176,-0.038 -7.92121,-0.0367 -14.20313,0.47461 -6.28192,0.51138 -14.5062,1.52514 -20.07227,2.24609 -1.26393,0.16376 -2.40301,0.31584 -3.49023,0.47852 10.70303,-11.96027 21.3781,-23.72937 33.12305,-32.14258 12.09416,-8.66338 25.52397,-13.93469 37.61718,-16.88477 12.09321,-2.95006 22.87778,-3.59076 35.02344,-4.5625 12.14567,-0.97174 25.42807,-2.26035 37.91602,-2.3164 12.48796,-0.0561 24.22914,1.26219 31.51758,-0.64649 3.64424,-0.95435 6.16844,-2.83571 7.21289,-5.32812 1.04445,-2.4924 0.3784,-5.33372 -1.41797,-7.46094 -3.59272,-4.25443 -11.02603,-6.3119 -28.63086,-7.67774 -0.0293,-0.002 -0.0586,-0.004 -0.0879,-0.006 -6.97131,-4.94163 -14.01716,-9.932 -21.35547,-13.22851 -7.43799,-3.34128 -15.28175,-4.86079 -30.45703,-3.56055 -1.53264,0.13132 -3.14447,0.29103 -4.82031,0.47852 0.26953,-0.23988 0.54851,-0.48581 0.83398,-0.73828 1.06195,-0.93917 2.3631,-1.9831 3.22852,-3.46094 0.43271,-0.73892 0.78433,-1.70337 0.59179,-2.7832 -0.19249,-1.07984 -0.94253,-2.00173 -1.87109,-2.61914 -1.85708,-1.23479 -4.61303,-1.88588 -8.4961,-2.19922 -3.49104,-0.2817 -7.84709,-0.19948 -12.95703,0.44922 0.27894,-0.75016 0.38771,-1.65582 -0.0215,-2.60743 -0.66831,-1.55433 -2.23031,-2.3389 -4.42578,-2.82812 -3.29323,-0.73382 -8.77341,-0.90892 -16.46094,0.57617 -2.5625,0.49503 -5.36864,1.17315 -8.42187,2.07813 -1.64256,0.48686 -3.35425,1.03824 -5.11915,1.64843 -0.14355,-0.15815 -0.31404,-0.29104 -0.50195,-0.39258 -4.61374,-2.48542 -9.75154,-5.22133 -17.45703,-4.79687 -1.92636,0.10611 -3.99962,0.39985 -6.25977,0.91211 -4.74544,1.07555 -10.31316,3.11511 -17.05468,6.40625 0.13746,-0.48427 0.25736,-0.96986 0.34765,-1.45703 0.30373,-1.63925 0.30255,-3.542 -0.97461,-5.00781 -1.27727,-1.46575 -3.26987,-1.95357 -5.70312,-1.93555 z m 0.0273,3.7793 c 1.87368,-0.0139 2.64852,0.4348 2.82617,0.63867 0.17762,0.20384 0.3189,0.70328 0.10938,1.83398 -0.20953,1.1307 -0.75517,2.64062 -1.33984,4.20899 -0.0479,0.12738 -0.0821,0.25986 -0.10157,0.39453 -1.46231,0.77716 -2.973,1.6069 -4.53906,2.49219 -14.8877,8.41597 -34.56332,21.83003 -54.23437,35.23437 -0.86254,0.58758 -1.08559,1.76438 -0.49805,2.62695 0.58758,0.86254 1.76243,1.08559 2.625,0.49805 19.67105,-13.40435 39.33833,-26.79781 53.96875,-35.06836 14.63041,-8.27055 24.25463,-11.40915 31.00976,-11.78125 5.59647,-0.30829 9.36043,1.17302 13.11133,3.10352 -10.32308,3.93464 -22.02749,9.50901 -32.96289,15.56836 -14.56992,8.07326 -27.68815,16.97527 -40.75781,25.84375 -0.86525,0.5858 -1.09114,1.76266 -0.50391,2.62695 0.58617,0.86329 1.76155,1.08789 2.625,0.50195 13.06966,-8.86848 26.08829,-17.69969 40.46875,-25.66797 14.38046,-7.96827 30.20495,-15.10142 41.96094,-18.58593 11.75598,-3.4845 19.65009,-3.33414 22.99024,-2.58985 0.96829,0.21577 1.44016,0.46366 1.64843,0.59375 -0.0272,0.0452 -0.0636,0.10773 -0.11719,0.1836 -0.4964,0.70308 -1.47222,1.32193 -2.73242,2.02539 -1.52954,0.30209 -3.1061,0.64772 -4.72851,1.03906 -10.05358,2.42507 -21.81934,6.59807 -34.33985,12.86523 -16.69405,8.35624 -34.59592,20.36756 -52.45898,32.3418 -0.86737,0.58077 -1.10051,1.75385 -0.51953,2.62109 0.58076,0.86737 1.75579,1.10048 2.62305,0.51954 17.86306,-11.97425 35.68536,-23.91082 52.04882,-32.10157 16.36345,-8.19075 31.39982,-12.70304 42.64649,-14.36133 5.62334,-0.82915 10.31436,-0.94738 13.84961,-0.6621 3.53525,0.28525 5.97254,1.08781 6.70703,1.57617 0.10306,0.0686 0.16776,0.11865 0.20898,0.15234 -0.018,0.0435 -0.0481,0.10727 -0.0996,0.19531 -0.326,0.55668 -1.39544,1.58984 -2.46875,2.53907 -1.8971,1.67776 -3.42389,3.0604 -4.89843,4.40429 -4.92107,0.69914 -10.21422,1.60846 -15.65235,2.73633 -9.96812,2.06739 -20.41928,4.86893 -29.9414,8.45508 -19.04425,7.17229 -34.10487,17.41453 -49.01758,27.54492 -0.86435,0.58639 -1.08931,1.76324 -0.50196,2.62695 0.58676,0.86239 1.76213,1.08605 2.625,0.5 14.91272,-10.13038 29.67827,-20.1473 48.22657,-27.13281 14.25832,-5.36986 30.90684,-8.98924 44.58203,-10.95312 0.4233,0.0854 0.86301,0.0236 1.24609,-0.17579 3.64585,-0.5035 7.06332,-0.88638 10.14453,-1.15039 14.8291,-1.27058 21.63543,0.1238 28.58594,3.2461 5.19233,2.3325 10.40375,5.67676 15.6543,9.30664 -17.44343,-0.94078 -41.20223,-0.87289 -60.50781,2.57422 -22.18042,3.96041 -38.18011,12.38809 -53.93165,20.67969 -0.92229,0.48654 -1.27639,1.62788 -0.79101,2.55078 0.48587,0.92324 1.62728,1.27833 2.55078,0.79296 15.75155,-8.29159 31.25749,-16.4498 52.83594,-20.30273 21.57845,-3.85294 49.52779,-3.39591 66.89062,-2.04883 17.36281,1.34707 23.84953,3.75948 26.03516,6.34766 1.09281,1.29408 1.2791,2.46753 0.82031,3.5625 -0.45888,1.095 -1.79304,2.37482 -4.6875,3.13281 -5.78894,1.51599 -17.83916,0.46627 -30.57422,0.52344 -12.73504,0.0572 -26.10294,1.36213 -38.20117,2.33008 -12.09824,0.96794 -23.14599,1.61349 -35.61914,4.65625 -12.47314,3.04275 -26.34185,8.47103 -38.92188,17.48242 -12.58001,9.01139 -23.66932,21.43703 -34.69335,33.76172 -0.079,0.0883 -0.14914,0.18253 -0.20899,0.28125 v 0.002 l -2.32031,2.42969 h -0.002 c -1.68756,0.43392 -3.56511,0.99075 -5.85547,1.74414 -6.93402,2.28082 -17.67219,6.31732 -26.96485,8.00976 -9.29267,1.69245 -17.35717,1.11678 -25.18164,0.10547 -7.82445,-1.0113 -15.28365,-2.4491 -21.93164,-3.58008 -6.29377,-1.07069 -11.7958,-1.85166 -17.23828,-2.61718 -5.23048,-2.39775 -10.70063,-5.09931 -16.73047,-8.14844 -9.66802,-4.88887 -20.7845,-10.68101 -31.91211,-15.45703 0.0433,-0.14725 0.0696,-0.29781 0.0762,-0.45117 0.22456,-5.56913 0.45075,-11.14045 0.63282,-15.69532 0.18207,-4.55488 0.24882,-7.55541 3.0039,-12.70898 2.75508,-5.15356 8.33044,-12.39781 16.0293,-19.88867 7.69887,-7.49087 17.7011,-15.3453 23.32031,-18.23633 2.80959,-1.44551 4.41985,-1.63668 5.43164,-1.48047 0.53206,0.0821 0.97475,0.26634 1.42969,0.54492 -8.38986,6.6301 -15.57049,13.61871 -20.42969,20.31055 -5.35181,7.37024 -7.74222,14.24937 -10.04687,20.87305 -0.34233,0.98546 0.17883,2.06133 1.16406,2.40429 0.98502,0.34277 2.06055,-0.17743 2.4043,-1.16211 2.30465,-6.62369 4.52559,-12.99293 9.53711,-19.89453 5.01152,-6.90161 12.95737,-14.46912 22.24804,-21.52734 9.29066,-7.05822 20.10726,-13.65141 25.73243,-15.54688 0.70314,-0.23694 1.31216,-0.40312 1.84375,-0.51171 1.59479,-0.32582 2.48711,-0.13988 3.07812,0.15234 0.36242,0.17919 0.68184,0.45188 1,0.81641 -0.80945,0.47604 -1.63013,0.97686 -2.46484,1.5 -11.55503,7.24188 -25.07846,19.02553 -32.54297,27.02929 -7.46451,8.00375 -8.86485,12.53504 -9.97852,16.45313 -0.28536,1.00383 0.297,2.0485 1.30078,2.33398 1.00383,0.28536 2.05046,-0.29699 2.33594,-1.30078 1.11366,-3.91809 1.93862,-7.22361 9.10547,-14.9082 7.16684,-7.68458 20.67629,-19.44204 31.78516,-26.4043 1.32531,-0.83061 2.62246,-1.59486 3.88476,-2.29297 0.12267,-0.0453 0.23891,-0.10223 0.34961,-0.17187 0.043,-0.0276 0.0864,-0.0569 0.12695,-0.0879 9.09517,-4.94794 16.33062,-6.52947 19.38672,-6.1543 1.76519,0.2167 1.99586,0.6062 2.31055,1.4668 0.23636,0.64656 0.30231,1.70248 0.29102,2.9375 -0.99301,0.4812 -1.97063,0.96437 -2.92774,1.44921 -9.23013,4.6757 -16.42149,9.37346 -23.82422,14.34571 -7.40274,4.97224 -15.1381,10.26731 -20.27734,15.5625 -5.13925,5.29519 -7.43515,10.44677 -9.58594,15.2832 -0.42456,0.95397 0.005,2.07022 0.95899,2.49414 0.95398,0.42457 2.07217,-0.005 2.49609,-0.95898 2.15079,-4.83643 4.15857,-9.35821 8.84375,-14.18555 4.68517,-4.82734 12.29485,-10.10362 19.67187,-15.05859 7.37701,-4.95497 14.39972,-9.53901 23.42579,-14.11133 3.15584,-1.59864 16.66587,-8.1514 27.5625,-11.30274 3.70597,-1.07178 6.49936,-1.52908 8.37304,-1.54296 z M 234.375,193.4043 c 6.88005,-0.21888 13.6007,-0.0354 20.22852,0.53515 13.25562,1.14114 26.09636,3.82545 39.64062,8.89258 13.54425,5.06712 27.88048,12.56545 40.06445,18.72656 5.64499,2.85453 10.82597,5.41951 15.80079,7.72461 0.30029,0.36147 0.72411,0.59848 1.18945,0.66407 0.12187,0.0172 0.24338,0.0337 0.36523,0.0508 5.19968,2.37202 10.20261,4.45994 15.31055,6.29883 10.46295,3.76676 21.383,6.49221 33.16211,7.2539 11.77913,0.76169 24.25524,-0.43742 36.64648,-1.61719 1.0396,-0.0984 1.80239,-1.02101 1.70313,-2.06054 -0.0994,-1.03866 -1.02185,-1.80023 -2.06055,-1.70117 -12.39123,1.17975 -24.69473,2.34138 -36.04492,1.60742 -11.3502,-0.73395 -21.90361,-3.35927 -32.125,-7.03907 -0.40879,-0.14716 -0.81677,-0.29671 -1.22461,-0.44726 0.76202,0.12516 1.53327,0.2551 2.31836,0.38867 6.5861,1.12043 14.10951,2.57111 22.08203,3.60156 7.97251,1.03043 16.51928,1.65028 26.3418,-0.13867 9.82251,-1.78895 20.69991,-5.91023 27.46875,-8.13672 6.76883,-2.22648 9.41056,-2.60435 14.95312,-3.32226 5.54256,-0.7179 13.74803,-1.72832 19.89258,-2.22852 6.14455,-0.5002 10.26712,-0.49866 13.85742,-0.46094 3.59032,0.0377 6.46612,0.10968 11.07422,0.70118 4.60811,0.59151 10.88596,1.70599 16.93555,3.68945 6.04959,1.98346 11.68636,4.71546 17.31054,11.11328 5.62415,6.39784 11.28968,16.71604 14.69532,24.78906 3.40564,8.073 4.52603,13.76681 3.76562,18.4961 -0.63807,3.96758 -2.67068,7.56735 -5.05078,11.24414 -3.49526,-9.79806 -7.78532,-10.3123 -18.50195,-10.16797 -2.04897,0.0714 -3.91479,0.37316 -5.66602,0.78125 -5.92016,0.94617 -9.69706,4.2764 -14.22656,8.13672 -1.93095,1.67555 -3.08458,3.11332 -3.66992,4.96093 -0.20385,0.64347 -0.35246,1.31603 -0.4668,2.00196 -1.56521,-1.96744 -3.42555,-3.81723 -5.77539,-5.47461 -4.62474,-3.26188 -11.10798,-5.78034 -19.77148,-6.33789 -4.33176,-0.27877 -9.2356,-0.0784 -14.27344,0.90429 -5.03784,0.98269 -10.20879,2.74787 -15.07422,5.59766 -9.73083,5.69955 -17.72823,15.33154 -28.53516,24.60547 -10.80692,9.27396 -24.62385,18.45768 -35.46875,25.08594 -10.8449,6.62825 -18.60871,10.65134 -27.9414,13.98047 -9.33269,3.32912 -20.2999,5.97216 -30.59766,8.20703 -10.29776,2.2349 -19.91828,4.0623 -27.51367,5.91211 -7.59537,1.84989 -13.10784,3.70574 -17.11328,5.54687 -4.00542,1.84114 -6.79932,3.93097 -8.76758,7.55078 -1.96826,3.6198 -3.23617,8.58791 -4.76562,16.50391 -1.52948,7.916 -3.35169,18.82444 -5.86329,24.8164 -1.25582,2.996 -2.70692,4.79522 -3.82226,5.58204 -1.11534,0.78682 -1.61693,0.72385 -2.19727,0.35351 -0.5803,-0.37031 -1.48361,-1.68241 -2.22461,-3.63672 -0.74101,-1.9543 -1.3868,-4.45336 -2.04101,-7 -0.052,-0.20047 -0.13645,-0.39124 -0.25,-0.56445 3.21747,-6.18267 6.60656,-12.98739 9.99218,-19.78516 0.46533,-0.93442 0.085,-2.06812 -0.8496,-2.5332 -0.93442,-0.46531 -2.07008,-0.085 -2.53516,0.84961 -5.07244,10.18464 -10.13775,20.35538 -14.57031,28.33398 -4.43256,7.9786 -8.38424,13.80738 -11.00977,15.94336 -1.31276,1.068 -2.15559,1.18956 -2.5625,1.11329 -0.40692,-0.0763 -0.81205,-0.3506 -1.23047,-1.32422 -0.7758,-1.80517 -0.89448,-5.8786 -0.82812,-10.14258 5.70744,-7.79631 11.52186,-16.99815 15.95898,-23.15625 5.50333,-7.63788 8.86044,-10.64322 12.40625,-13.83985 0.77468,-0.69888 0.83521,-1.89296 0.13672,-2.66796 -0.69888,-0.77467 -1.89297,-0.83718 -2.66797,-0.13868 -3.54582,3.19663 -7.28252,6.58375 -12.9414,14.4375 -4.73946,6.57773 -13.90268,20.90345 -19.9043,28.29883 -6.63705,8.17832 -12.4638,12.41269 -15.61914,13.83789 -1.19072,0.5378 -1.51923,0.47721 -1.58985,0.51172 h -0.002 l -0.002,0.002 -0.002,0.002 -0.002,0.002 -0.002,0.002 c 0.0179,-0.14163 -0.005,-0.16676 0.0606,-0.38671 0.56746,-1.92805 3.36285,-6.20858 7.81835,-13.12305 4.45552,-6.91446 10.48753,-16.55834 16.88282,-25.00781 6.39529,-8.44947 13.22621,-15.80063 20.10742,-23.20313 0.71058,-0.76461 0.66516,-1.96142 -0.0996,-2.67187 -0.76462,-0.71059 -1.95949,-0.66711 -2.66992,0.0976 -6.88122,7.40251 -13.81165,14.85749 -20.35156,23.49805 -6.53993,8.64056 -12.61578,18.36667 -17.04493,25.24023 -3.19912,4.9647 -5.58348,8.38892 -7.02734,11.1543 -0.10428,0.0532 -0.20418,0.11603 -0.29688,0.1875 -4.80369,3.68698 -9.62365,7.35879 -12.80859,9.10156 -1.59248,0.8714 -2.76865,1.19675 -3.26562,1.19141 -0.49696,-0.005 -0.42187,0.0732 -0.73047,-0.55078 -0.61721,-1.24812 -0.97571,-5.09529 2.83984,-12.63672 3.81556,-7.54142 11.70054,-18.73358 20.57422,-29.20313 8.8737,-10.46956 18.79477,-20.32131 28.75586,-30.20898 0.74074,-0.73476 0.74609,-1.9308 0.0117,-2.67188 -0.35329,-0.35644 -0.83409,-0.55687 -1.33594,-0.55859 -0.5011,-0.002 -0.98216,0.19416 -1.33789,0.54688 -9.96109,9.88767 -19.96087,19.81212 -28.97656,30.44921 -9.01571,10.63707 -16.98739,21.88119 -21.06446,29.93946 -0.52744,1.04249 -0.99161,2.03462 -1.39648,2.97461 -0.11982,0.027 -0.23722,0.0638 -0.34961,0.11328 -4.86661,2.14619 -9.7273,4.29194 -13.92383,6.08008 -2.09827,0.89408 -3.99953,1.66955 -5.35937,2.0039 -0.67991,0.16722 -1.21736,0.21248 -1.50391,0.1875 -0.1791,-0.0157 -0.23773,-0.0345 -0.25586,-0.0449 l -0.002,-0.002 -0.002,-0.002 v -0.002 -0.002 l -0.002,-0.002 c 4.1e-4,4.4e-4 -0.39816,-0.83801 0.0684,-2.83594 0.46652,-1.99791 1.66078,-4.92239 3.82617,-8.66016 4.33078,-7.47554 12.57255,-18.31352 20.16602,-26.9414 7.59345,-8.62787 14.54348,-15.08874 23.87891,-22.61915 9.33542,-7.53041 21.04353,-16.10938 32.76757,-24.69726 0.84223,-0.61639 1.02459,-1.80035 0.40821,-2.64258 -0.29601,-0.40465 -0.74088,-0.67525 -1.23633,-0.75195 -0.49524,-0.0765 -0.99997,0.0478 -1.4043,0.34375 -11.72404,8.58788 -23.46474,17.18556 -32.91015,24.80469 -9.44541,7.61912 -16.60829,14.28161 -24.33985,23.0664 -5.59642,6.3588 -11.48688,13.80478 -16.04883,20.42774 -0.29303,0.0419 -0.57179,0.15272 -0.81445,0.32226 -7.50539,5.25093 -15.08428,10.48896 -19.50391,12.37305 -1.10491,0.47103 -2.00635,0.72151 -2.56054,0.77929 -0.34825,0.0362 -0.50526,0.006 -0.5586,-0.008 -0.0224,-0.0547 -0.0683,-0.20939 -0.0781,-0.57226 -0.0164,-0.60963 0.13372,-1.66431 0.55078,-3.07032 1.66827,-5.62402 7.37489,-16.63222 15.90234,-27.03711 8.52745,-10.40489 20.02542,-20.49105 29.72852,-28.45898 9.70311,-7.96792 17.54302,-13.77777 25.74414,-19.14648 8.20112,-5.36871 16.79072,-10.30989 22.11133,-13.25196 5.3206,-2.94208 7.3092,-3.85582 9.39062,-4.8164 0.94805,-0.4376 1.36204,-1.562 0.92383,-2.50977 -0.43744,-0.9471 -1.56044,-1.36072 -2.50781,-0.92383 -2.08142,0.96055 -4.25409,1.96611 -9.63477,4.94141 -5.38069,2.9753 -14.02986,7.94756 -22.35351,13.39648 -8.32365,5.44893 -16.29194,11.36089 -26.07032,19.39063 -9.77839,8.02973 -21.43336,18.21752 -30.25585,28.98242 -6.17222,7.53112 -10.88407,15.20559 -13.82227,21.375 -0.13365,0.0288 -0.26434,0.072 -0.38867,0.12891 -5.66211,2.5967 -11.37155,5.19249 -14.42774,6.1582 -1.34208,0.42409 -1.90822,0.37343 -1.96679,0.39648 l -0.002,0.002 h -0.002 c -0.0258,-0.0995 -0.0464,-0.12285 -0.0664,-0.36133 -0.13928,-1.61277 0.19866,-4.87812 6.63868,-14.16602 6.44005,-9.28792 18.9034,-24.34493 30.75195,-36.49023 11.84853,-12.14533 23.14105,-21.46692 34.95508,-30.39063 11.81404,-8.9237 24.11598,-17.419 33.90234,-23.53515 9.74041,-6.08743 17.00785,-9.83684 24.33789,-13.61133 4.28047,-0.91915 8.50461,-2.15016 13.57617,-3.81836 2.65421,-0.87305 5.5453,-1.86653 8.56641,-2.92578 0.23116,1.52984 0.45768,3.36405 1.58789,5.07617 1.13208,1.71497 3.18318,3.01945 6.16406,3.53711 5.96174,1.03531 16.00364,-0.28645 24.3418,-2.83984 8.33815,-2.55339 14.58737,-6.39637 20.65625,-10.11914 0.89031,-0.54566 1.16936,-1.7097 0.62305,-2.59961 -0.54567,-0.89031 -1.70969,-1.16936 -2.59961,-0.62305 -6.06887,3.72276 -11.95691,7.32872 -19.78711,9.72656 -7.8302,2.39784 -17.98692,3.53142 -22.58789,2.73242 -2.30048,-0.3995 -3.1226,-1.08511 -3.65821,-1.89648 -0.5356,-0.81137 -0.77233,-2.03503 -1.0039,-3.56641 -0.035,-0.23456 -0.1138,-0.46065 -0.23242,-0.66601 2.57761,-0.91466 5.21448,-1.85932 7.85156,-2.80469 0.9829,-0.35186 1.49484,-1.43325 1.14258,-2.41601 -0.35187,-0.98289 -1.43521,-1.49484 -2.41797,-1.14258 -7.02228,2.51742 -14.03363,5.03215 -19.82617,6.9375 -5.79255,1.90535 -10.3413,3.19451 -15.13086,4.10742 -4.78957,0.91284 -9.87672,1.41296 -12.98047,1.05078 -1.55186,-0.18109 -2.62215,-0.58098 -3.17774,-0.95508 -0.5556,-0.3741 -0.6103,-0.56906 -0.625,-0.8418 -0.0147,-0.27273 0.17733,-0.99896 0.70704,-1.9121 0.46623,-0.8037 1.13888,-1.73323 1.86328,-2.70313 8.98916,-2.64611 19.48145,-7.92684 29.9414,-13.16601 0.93348,-0.46725 1.31125,-1.60181 0.84375,-2.53516 -0.46793,-0.93252 -1.60241,-1.30928 -2.53515,-0.8418 -10.80647,5.41276 -21.57838,10.77601 -30.14844,13.15625 -8.57006,2.38024 -15.16426,1.91857 -20.38086,1.12305 -2.6083,-0.39774 -4.77486,-0.88734 -6.22266,-1.47852 -1.4478,-0.59118 -1.9947,-1.17364 -2.14843,-1.65234 -0.15375,-0.47866 -0.0305,-1.65029 0.61328,-3.19336 0.58989,-1.41397 1.52187,-3.07414 2.50976,-4.78906 11.21326,-2.98204 26.14899,-8.61371 41.09571,-14.23438 0.97765,-0.36709 1.4714,-1.45819 1.10351,-2.43554 -0.36787,-0.97669 -1.4569,-1.46939 -2.43359,-1.10157 -16.76374,6.30396 -33.54036,12.59001 -44.50977,15.04883 -5.48471,1.22941 -9.54955,1.5033 -12.26953,1.20703 -2.71996,-0.29628 -3.92397,-1.14547 -4.29492,-1.74023 -0.37094,-0.59474 -0.36708,-1.5347 0.24219,-3.11133 0.58441,-1.51233 1.67691,-3.36085 2.83593,-5.26953 2.25374,-0.90066 4.62118,-1.98318 7.16211,-3.27344 7.29958,-3.70669 16.03726,-9.11602 24.79493,-14.55469 l 0.002,-0.002 v -0.002 l 3.25976,-1.74805 c 0.0729,-0.0138 0.14593,-0.0271 0.21875,-0.041 2.89597,-0.55198 5.74458,-1.24624 8.5625,-1.99414 -0.99552,1.48561 -1.71009,2.91295 -2.11718,4.28711 -0.36314,1.2258 -0.48776,2.44656 -0.17969,3.62696 0.30804,1.1804 1.13043,2.25134 2.21484,2.87695 2.16881,1.25118 4.80517,1.15032 7.68164,0.88477 2.87647,-0.26555 5.96712,-0.86966 8.60157,-1.41993 2.65295,-0.55423 4.87513,-1.06401 6.8789,-1.55078 -1.63371,2.31396 -2.50274,4.50022 -2.46094,6.60352 0.0252,1.26692 0.45227,2.51707 1.28516,3.46289 0.83288,0.9458 2.00006,1.54256 3.29102,1.81836 2.58189,0.55159 5.57681,0.0347 8.80664,-0.7168 3.22982,-0.75155 6.64259,-1.81618 9.60742,-2.69141 3.14727,-0.92905 5.84386,-1.66546 8.33789,-2.31054 -0.099,0.11339 -0.19617,0.22704 -0.29102,0.33984 -2.15704,2.56486 -3.18598,4.99058 -3.29297,7.18164 -0.10698,2.19107 0.77491,4.08417 2.125,5.23828 1.35004,1.15412 3.0784,1.51622 4.75,1.48243 1.67163,-0.0338 3.39602,-0.41453 5.23243,-0.88868 1.99398,-0.51488 4.16186,-1.17019 6.4082,-1.88867 -0.0204,0.052 -0.0391,0.10425 -0.0586,0.15625 -0.65211,1.75185 -0.31991,3.88452 1.02539,5.11914 1.34527,1.23463 3.17405,1.69131 5.41211,1.85157 3.34153,0.23928 7.70033,-0.27993 12.32617,-0.97266 -0.31097,0.54532 -0.52124,1.11159 -0.62891,1.74219 -0.18381,1.07645 0.41845,2.44104 1.27149,3.02929 0.85306,0.5883 1.72476,0.74193 2.67187,0.83594 3.78845,0.37604 9.74718,-0.80004 18.13086,-3.79687 8.38367,-2.99693 18.97354,-7.84952 29.54883,-12.6875 0.94909,-0.43425 1.36592,-1.55484 0.93164,-2.50391 -0.43426,-0.94908 -1.55484,-1.36593 -2.50391,-0.93164 -10.57528,4.83797 -21.13412,9.66201 -29.24804,12.5625 -8.11394,2.9005 -13.9999,3.84232 -16.48438,3.5957 -0.11218,-0.0111 -0.0706,-0.0167 -0.16406,-0.0332 0.40069,-0.56123 1.15979,-1.55927 2.93164,-3.06055 5.0087,-4.24383 15.83677,-11.45616 26.62891,-18.62109 0.86981,-0.57735 1.10698,-1.74956 0.52929,-2.61914 -0.57733,-0.86981 -1.74955,-1.10699 -2.61914,-0.5293 -10.50947,6.97728 -20.98624,13.91019 -26.54492,18.51953 -0.0873,0.001 -0.17351,0.008 -0.25977,0.0215 -6.32323,0.99289 -12.6675,1.93398 -16.24609,1.67773 -1.78929,-0.12812 -2.83875,-0.59878 -3.12695,-0.86328 -0.28822,-0.2645 -0.34518,-0.20051 -0.041,-1.01758 0.30269,-0.81318 1.30849,-2.13676 2.79883,-3.62891 0.16024,-0.11482 0.30076,-0.25556 0.41797,-0.41406 1.44846,-1.39566 3.28945,-2.90561 5.35742,-4.26172 4.52499,-2.96734 10.22724,-5.55378 16.00195,-8.16211 0.95111,-0.43017 1.37374,-1.55094 0.94336,-2.50195 -0.43,-0.95018 -1.54939,-1.37046 -2.5,-0.9414 -5.77472,2.60831 -11.62387,5.23616 -16.51758,8.44531 -2.34667,1.53886 -4.45258,3.12882 -6.15234,4.7539 -3.99057,1.32924 -7.9222,2.62421 -11.18555,3.4668 -1.73415,0.44773 -3.24309,0.74491 -4.36523,0.76758 -1.12215,0.0227 -1.74931,-0.18016 -2.21484,-0.57813 -0.46554,-0.39798 -0.86199,-1.04597 -0.80664,-2.17968 0.0554,-1.13372 0.62915,-2.81586 2.41015,-4.9336 3.56201,-4.23548 12.16272,-10.16715 20.77539,-16 0.86404,-0.58479 1.09216,-1.7587 0.50782,-2.62304 -0.585,-0.8651 -1.76042,-1.09159 -2.625,-0.50586 -5.57565,3.77607 -11.15808,7.50997 -15.57032,11.0664 -0.0956,0.008 -0.19006,0.0259 -0.2832,0.0488 -4.37996,1.07078 -8.80404,2.1529 -14.81641,3.92773 -3.00618,0.88743 -6.36133,1.93136 -9.39257,2.63672 -3.03126,0.70534 -5.79241,0.99142 -7.16016,0.69922 -0.68387,-0.14611 -1.0385,-0.38367 -1.24414,-0.61718 -0.20564,-0.23352 -0.33115,-0.50736 -0.3418,-1.04297 -0.0213,-1.07124 0.70479,-3.12959 2.70508,-5.57032 4.00056,-4.8814 12.98602,-11.39714 21.99805,-17.83984 0.84823,-0.60697 1.04566,-1.78599 0.43945,-2.63477 -0.60663,-0.85019 -1.78908,-1.04693 -2.63867,-0.43945 -7.15654,5.1162 -14.32751,10.18818 -19.31836,14.91602 -3.51273,0.91101 -6.98673,1.81082 -12.15625,2.89062 -2.59426,0.54187 -5.5811,1.11791 -8.17578,1.35742 -2.59468,0.23953 -4.82078,-0.0343 -5.44532,-0.39453 -0.31227,-0.18015 -0.37121,-0.27469 -0.44531,-0.55859 -0.0741,-0.28389 -0.0826,-0.82608 0.14649,-1.59961 5.10514,-10.53586 16.42984,-17.4074 25.4082,-24.20117 0.83219,-0.62934 0.99614,-1.81403 0.36719,-2.64649 -0.30172,-0.40014 -0.74981,-0.66475 -1.2461,-0.73437 -0.49663,-0.0693 -1.00031,0.063 -1.40039,0.36523 -7.62105,5.75963 -15.27228,11.5086 -20.40625,16.77344 -4.51827,1.27044 -8.99612,2.50641 -13.50195,3.36523 -4.78882,0.91279 -9.53751,1.28796 -12.58398,0.18946 -1.52323,-0.54925 -2.53944,-1.38674 -2.94336,-2.37305 -0.40393,-0.9863 -0.41427,-2.43064 0.98437,-4.81055 2.7972,-4.75983 11.55183,-12.55174 20.31836,-20.17187 0.78786,-0.68483 0.8706,-1.87835 0.18555,-2.66602 -0.32882,-0.37755 -0.79352,-0.60967 -1.29297,-0.64453 -0.49958,-0.0352 -0.99276,0.13084 -1.3711,0.45899 -7.29234,6.33871 -14.59533,12.55687 -18.88867,17.94726 -7.28974,2.74283 -14.5045,5.43262 -20.72265,6.47852 -6.24647,1.05066 -11.79735,0.47366 -14.68164,-0.39258 -0.6792,-0.20398 -1.11209,-0.41539 -1.30665,-0.54297 l 0.002,-0.002 h 0.002 c 0.083,-0.0873 0.52419,-1.22704 2.42969,-3.13477 4.20481,-4.2097 13.92193,-11.73232 23.59961,-19.1914 0.82712,-0.63725 0.98148,-1.82366 0.34375,-2.65039 -0.30639,-0.39701 -0.75846,-0.65685 -1.25586,-0.72071 -0.49683,-0.0644 -0.99956,0.0713 -1.39649,0.37695 -9.65688,7.44305 -19.27161,14.82464 -23.93554,19.48438 -0.20203,0.0144 -0.4007,0.0613 -0.58789,0.13867 -11.26862,4.6565 -22.6102,9.28477 -28.98047,10.46094 -1.59257,0.29399 -2.87942,0.37331 -3.75586,0.29883 -0.82467,-0.0701 -1.21691,-0.29723 -1.27539,-0.33789 0.0111,-0.0338 0.0267,-0.0932 0.0508,-0.19922 0.0884,-0.38928 0.47337,-1.20777 1.28906,-2.23242 1.45432,-1.82693 4.20766,-4.29078 7.67774,-7.0918 0.18578,-0.10398 0.35323,-0.23885 0.49414,-0.39844 4.2306,-3.38827 9.44611,-7.2367 14.64453,-11.03515 0.84311,-0.61582 1.02835,-1.79978 0.41211,-2.64258 -0.61558,-0.84203 -1.79807,-1.02501 -2.64063,-0.41016 -5.28218,3.85965 -10.54686,7.66536 -14.91601,11.16406 -8.64671,2.22109 -17.25569,4.43821 -23.70703,6.51758 -4.79569,1.38591 -9.75292,4.24717 -14.72852,2.82813 -1.96111,-0.9484 -3.36486,-2.95765 -3.12695,-4.86524 0.26221,-2.10246 3.05274,-5.42647 6.39258,-8.82812 4.29979,-2.27408 7.88775,-4.12537 10.42578,-5.49219 3.19467,-1.72045 4.79434,-2.7374 5.75,-3.44336 1.9835,1.3177 4.69837,2.63253 9.10156,2.44141 5.20083,-0.22574 12.72477,-2.18746 19.45703,-4.75782 3.36613,-1.28518 6.46777,-2.70926 9.01367,-3.85156 2.54594,-1.14231 4.66549,-1.98779 5.43164,-2.12109 h 0.002 c 0.0476,0.35276 0.11872,1.06804 0.82812,2.08203 0.43033,0.61511 1.13297,1.08945 1.84375,1.30469 0.71078,0.21524 1.4276,0.24 2.21289,0.17773 1.57054,-0.12455 3.48266,-0.61865 6.17383,-1.49414 5.38231,-1.75097 13.98242,-5.03916 17.77539,-5.45703 1.89647,-0.20893 2.39239,0.12593 2.73633,0.45508 0.34394,0.32914 0.62046,1.03928 1.0957,2.07812 0.47525,1.03883 1.16953,2.11148 2.26172,2.94922 1.09221,0.83775 2.48725,1.42454 4.34961,1.89453 3.7247,0.93997 9.54206,1.51656 14.67187,0.73047 2.56489,-0.39305 4.80354,-1.11949 6.5918,-1.6543 1.78826,-0.53481 3.16352,-0.75259 3.51367,-0.68554 0.35014,0.067 0.69985,0.3834 1.45118,1.31054 0.75136,0.92714 1.7924,2.29511 3.57617,3.22852 3.56755,1.86683 8.60692,1.68988 13.55468,1.19922 2.47388,-0.24532 4.84951,-0.60489 6.7793,-0.71094 1.92979,-0.10604 3.33591,0.13901 3.86328,0.48438 0.52736,0.34536 1.00827,1.24658 1.47657,2.69922 0.46829,1.45266 0.88721,3.29515 1.96874,5.01562 2.16312,3.44094 6.5148,5.00672 12.41993,4.61719 2.95257,-0.19476 6.28222,-0.83163 9.30273,-1.36328 3.02051,-0.53169 5.82124,-0.9145 7.0625,-0.79883 1.24123,0.11565 1.07282,0.18218 1.39258,0.85937 0.31975,0.6772 0.58849,2.13143 1.68945,3.60938 2.20193,2.95592 6.25792,4.25986 9.48828,5.15429 3.23036,0.89444 5.42718,1.13951 7.07618,2.04688 1.64898,0.90737 3.96428,3.33948 8.34375,4.03906 2.18975,0.3498 4.67152,0.2653 7.00976,0.13477 2.33823,-0.13053 4.55443,-0.31413 5.84375,-0.28125 1.28932,0.0329 1.66909,0.203 2.05469,0.41601 0.3856,0.213 0.9446,0.72175 2.00976,1.16797 2.13032,0.89245 5.04714,1.10149 7.7793,0.73242 1.36608,-0.18455 2.50708,-0.51739 3.3418,-0.68164 0.83459,-0.16484 1.23823,-0.12264 1.3789,-0.0586 0.14066,0.064 0.6952,0.57722 1.41016,1.35937 0.71496,0.78218 1.6607,1.80397 3.12891,2.39454 1.46822,0.59056 2.94814,0.58713 4.31445,0.54687 1.3663,-0.0402 2.65161,-0.14715 3.5293,-0.0879 1.75537,0.11854 2.93477,0.89979 5.48632,1.87109 2.55154,0.97131 6.3436,1.93283 12.35743,1.23047 6.01385,-0.70236 14.1563,-2.94834 22.29297,-5.17187 1.00548,-0.27545 1.59813,-1.31246 1.32421,-2.31836 -0.2748,-1.00725 -1.31516,-1.60146 -2.32226,-1.32617 -8.13673,2.22327 -16.26613,4.42409 -21.73242,5.0625 -5.4663,0.63841 -8.35946,-0.16667 -10.57422,-1.00977 -2.21476,-0.84309 -3.88089,-1.92538 -6.57617,-2.10742 -1.34765,-0.091 -2.68975,0.0445 -3.89649,0.0801 -1.20676,0.0356 -2.24756,-0.0567 -2.79101,-0.27539 -0.54346,-0.21859 -1.10062,-0.72707 -1.75,-1.4375 -0.64939,-0.71041 -1.32098,-1.65393 -2.63477,-2.25196 -1.31378,-0.59802 -2.59275,-0.42243 -3.67578,-0.20898 -1.08299,0.21347 -2.09522,0.50651 -3.11914,0.64453 -2.04774,0.27661 -4.86379,-0.076 -5.81055,-0.47266 -0.47338,-0.19831 -0.78837,-0.51837 -1.64258,-0.99023 -0.8542,-0.47186 -2.07662,-0.84113 -3.78711,-0.88477 -1.71049,-0.0436 -3.89098,0.16097 -6.15039,0.28711 -2.25942,0.12612 -4.57803,0.16557 -6.20117,-0.0937 -3.2463,-0.51858 -4.60446,-2.23541 -7.11914,-3.61914 -2.51467,-1.38371 -4.97392,-1.57132 -7.89062,-2.3789 -2.91669,-0.80759 -6.49806,-2.47169 -7.46485,-3.76953 -0.48341,-0.64893 -0.67942,-1.64477 -1.30273,-2.96485 -0.62332,-1.3201 -2.21169,-2.80018 -4.46094,-3.00976 -2.24923,-0.20958 -5.01321,0.30437 -8.06641,0.84179 -3.05319,0.53738 -6.30868,1.14179 -8.89648,1.3125 -5.17563,0.3414 -7.7215,-0.86519 -8.97266,-2.85547 -0.62559,-0.99515 -1.04258,-2.53308 -1.56836,-4.16406 -0.52577,-1.63097 -1.19546,-3.51751 -3.00586,-4.70312 -1.81036,-1.1856 -3.92938,-1.21733 -6.14257,-1.09571 -2.21318,0.12163 -4.60032,0.49245 -6.94141,0.72461 -4.68217,0.46431 -9.48081,0.2327 -11.42969,-0.78711 -0.97444,-0.50991 -1.60973,-1.29135 -2.39453,-2.25976 -0.78479,-0.96841 -1.83208,-2.29147 -3.67578,-2.64453 -1.84371,-0.35304 -3.4602,0.22513 -5.30664,0.77734 -1.84643,0.5522 -3.88457,1.20428 -6.08203,1.54102 -4.39492,0.67348 -10.0456,0.12978 -13.17578,-0.66016 -1.56509,-0.39497 -2.44367,-0.82621 -2.97071,-1.23047 -0.52704,-0.40425 -0.79781,-0.79775 -1.1289,-1.52148 -0.33109,-0.72374 -0.7015,-2.07226 -1.91992,-3.23828 -1.21842,-1.16603 -3.19912,-1.76105 -5.76368,-1.47852 -5.12913,0.56507 -13.39208,3.94985 -18.52929,5.62109 -2.56861,0.83562 -4.32655,1.23899 -5.30274,1.31641 -0.40877,0.0324 -0.59054,-0.003 -0.69336,-0.0234 v -0.002 l 0.002,-0.002 0.002,-0.002 c 2.7e-4,-4.8e-4 9.5e-4,-0.004 0.002,-0.006 0.0253,-0.0865 -0.0817,-0.58308 -0.45703,-1.48632 -0.23016,-0.55391 -0.70667,-1.28575 -1.5039,-1.70118 -0.79722,-0.41544 -1.70064,-0.4493 -2.5879,-0.29492 -1.77443,0.30873 -3.76006,1.24142 -6.33007,2.39453 -2.57001,1.15311 -5.59627,2.54083 -8.81446,3.76953 -6.43637,2.45738 -13.90737,4.32612 -18.27343,4.51563 -4.36606,0.18951 -5.66065,-0.93411 -7.72852,-2.43359 -0.15553,-0.1109 -0.32629,-0.19832 -0.50781,-0.25782 -0.6944,-0.34428 -1.52773,-0.22976 -2.10352,0.28907 -0.82566,0.74676 -1.33266,1.25943 -6.13867,3.84765 -6.48077,3.49013 -9.10166,4.48114 -24.15039,12.9707 -10.40748,5.87126 -22.305627,13.1148 -35.435547,22.4668 -13.12994,9.35199 -27.450337,20.77588 -36.765625,27.32031 -9.31528,6.54444 -13.652913,8.155 -15.86914,8.34375 -0.30725,0.0262 -0.375292,-0.005 -0.550782,-0.0215 0.02235,-0.0805 -0.0063,0.004 0.04102,-0.11133 0.208508,-0.51143 0.659855,-1.30606 1.404297,-2.31445 2.977758,-4.03357 10.572152,-11.46934 20.828125,-20.60742 10.255975,-9.13807 23.188147,-20.04615 37.585937,-30.02344 14.39778,-9.97729 30.329255,-19.07042 46.050775,-27.16016 15.72152,-8.08974 31.18592,-15.1558 46.61328,-20.55078 7.71369,-2.69749 15.42663,-4.9799 23.02735,-6.84765 v 0.002 c 7.60071,-1.86775 15.09082,-3.31901 22.35547,-4.35547 7.26466,-1.03646 14.30354,-1.65807 21.18359,-1.87695 z m -123.95508,56.4375 c -0.58256,1.11721 -0.98706,2.28232 -1.14062,3.51367 -0.33586,2.69299 0.74686,5.15564 2.57422,6.92187 -3.953,1.71354 -8.07343,3.69636 -12.609379,6.73828 -5.85696,3.92782 -12.239762,9.47096 -18.169922,13.53907 -5.93013,4.06812 -11.462318,6.69776 -16.298828,7.46484 -3.83324,0.60796 -7.456911,0.0973 -11.181641,-0.69141 5.60322,-4.24311 11.454993,-8.64101 17.070312,-12.64062 13.002441,-9.26118 24.77723,-16.42871 35.099608,-22.25195 1.59014,-0.89706 3.14499,-1.76287 4.65625,-2.59375 z m 37.83008,5.04297 c -0.88217,0.87763 -1.64959,1.71919 -2.28516,2.51757 -0.93474,1.17425 -1.59955,2.25994 -1.92968,3.40625 -0.0113,0.006 -0.0222,0.0144 -0.0332,0.0215 -11.49786,7.48826 -22.98203,14.96362 -31.88476,19.76367 -8.90272,4.80005 -15.37359,6.77061 -18.49219,6.34375 -1.55928,-0.21342 -2.45959,-0.84998 -3.34375,-1.91797 -0.88417,-1.06798 -1.633075,-2.60671 -2.421875,-4.28515 -0.0494,-0.10467 -0.108071,-0.20299 -0.175781,-0.29688 4.74245,-3.57023 9.453485,-7.45819 13.666016,-10.2832 5.24514,-3.51752 9.86452,-5.52414 14.58984,-7.50782 0.31231,0.0915 0.62991,0.16882 0.95117,0.22852 4.46672,0.83003 8.74518,-1.34964 15.15626,-3.41602 4.48759,-1.44642 10.16382,-2.9955 16.20312,-4.57421 z m 30.30469,2.22461 c -0.0209,0.22765 -0.0223,0.4623 -0.008,0.70312 0.002,0.0334 0.003,0.0664 0.006,0.0996 -13.5519,9.30154 -27.06795,18.55262 -37.89648,24.07812 -10.89948,5.56171 -19.26064,7.36575 -23.80078,7.00391 -2.27006,-0.18093 -3.5626,-0.81066 -4.60742,-1.67383 -0.57663,-0.47637 -1.07931,-1.05299 -1.56641,-1.70898 1.03985,-0.52697 2.11595,-1.09155 3.22852,-1.69141 8.82372,-4.75745 19.84362,-11.90641 30.93164,-19.12695 0.0332,0.0353 0.0667,0.0698 0.10156,0.10351 0.9684,0.93835 2.22096,1.27789 3.59375,1.39454 1.37279,0.11664 2.94496,-0.0119 4.76367,-0.34766 6.30775,-1.16463 15.55944,-4.84174 25.25391,-8.83398 z m 37.32422,0.0566 c -0.8667,2.23766 -0.92742,4.31991 -0.20899,6.07421 0.9371,2.28824 2.98248,3.71282 5.16016,4.49805 1.64724,0.59396 3.41657,0.87105 5.25195,0.9336 -7.42746,4.59212 -14.64278,8.95315 -20.66601,12.01171 -7.24318,3.67803 -12.75447,5.48908 -18.32227,6.3125 -2.78389,0.41172 -5.58285,0.56736 -7.82031,0.41407 -2.23746,-0.1533 -3.88287,-0.78186 -4.19922,-1.07422 -0.15816,-0.14618 -0.17821,-0.18657 -0.20508,-0.44336 -0.0269,-0.25679 0.0199,-0.72587 0.20898,-1.33008 0.37812,-1.20833 1.27874,-2.8723 2.23633,-4.58789 0.0782,-0.14054 0.13754,-0.29157 0.17774,-0.44727 6.74319,-4.60773 14.06484,-10.90322 21.41601,-17.16796 0.0905,-0.0771 0.17358,-0.16317 0.24805,-0.25586 5.32504,-0.91328 11.00362,-2.82979 16.72266,-4.9375 z m -35.0586,3.77343 c 0.56104,0.29308 1.15795,0.49874 1.79297,0.68946 2.45895,0.73849 5.92607,1.22463 9.9961,1.12109 -9.71742,8.21621 -19.18963,15.83082 -26.17188,18.71289 -6.78977,2.80263 -11.47519,1.59279 -16.41211,-0.32812 9.51486,-5.58434 20.15756,-12.89394 30.79492,-20.19532 z m 343.44922,0.33789 c -0.22951,0.0143 -0.46058,0.045 -0.69336,0.0918 -0.26605,0.0534 -0.53302,0.12877 -0.80469,0.23047 -1.08664,0.40683 -1.8783,1.41276 -2.17578,2.37305 -0.29748,0.96027 -0.27493,1.90397 -0.14258,2.85937 0.26472,1.9108 1.03974,3.92814 1.9961,5.77539 1.91272,3.6945 4.55049,6.93419 8.23633,7.32422 1.84294,0.19502 3.53369,-0.46811 4.87695,-1.42969 1.34326,-0.96158 2.39957,-2.23656 3,-3.68554 0.60044,-1.44899 0.63254,-3.15723 -0.0195,-4.67188 -0.65208,-1.51465 -1.84976,-2.83019 -3.52149,-4.125 -1.67173,-1.29482 -3.83789,-2.57964 -5.97265,-3.49414 -1.63443,-0.70017 -3.17271,-1.3481 -4.7793,-1.24805 z m -0.0625,3.88868 c 0.0543,0.0234 1.49582,0.0861 3.14258,0.74609 a 5.46875,4.5758929 78.221103 0 0 -2.00977,3.99414 c -0.57827,-1.28811 -1.00726,-2.61508 -1.14257,-3.5918 -0.0796,-0.57478 -0.034,-0.97208 0.01,-1.14843 z m 10.35547,5.63671 c 0.23629,0.31081 0.40214,0.59244 0.50781,0.83789 0.28398,0.65963 0.27529,1.06612 0,1.73047 -0.27529,0.66434 -0.9313,1.50134 -1.70703,2.05664 -0.7757,0.5553 -1.61148,0.81502 -2.28125,0.74415 -0.16408,-0.0174 -0.3427,-0.0638 -0.5332,-0.13672 a 5.46875,4.5758929 78.221103 0 0 0.51758,-0.0723 5.46875,4.5758929 78.221103 0 0 3.49609,-5.16016 z m -0.25391,14.83594 c 14.01174,-0.30334 14.54703,1.83764 17.76368,16.63086 1.07864,5.69334 0.69388,12.66586 -0.53711,16.70703 -0.54905,1.80249 -1.26133,2.98936 -1.85547,3.72071 -0.0229,-0.13446 -0.0384,-0.17202 -0.0625,-0.32227 -0.22537,-1.39134 -0.55173,-3.42109 -1.41992,-5.79297 -1.73641,-4.74374 -5.4094,-10.47985 -9.44727,-15.83203 -3.68991,-4.89098 -7.66917,-9.3912 -11.64453,-13.82812 1.15103,-0.3343 2.30072,-0.63319 3.48828,-0.85938 1.18756,-0.22618 2.41323,-0.37845 3.71484,-0.42383 z m -11.89257,3.51563 c 0.25942,3.34088 0.60456,6.75834 1.3457,10.3125 0.94061,4.51068 2.49621,9.13614 4.37305,13.30664 1.41301,3.13985 3.03262,5.92691 4.7539,8.36523 -4.50593,-1.72461 -8.74073,-3.47073 -11.58789,-6.13086 -2.99497,-2.79822 -4.95016,-7.08911 -7.26367,-11.2832 -0.21972,-0.39831 -0.44341,-0.79314 -0.67188,-1.1875 0.0749,-0.18211 0.12132,-0.37596 0.13672,-0.57227 0.15949,-1.99972 0.3456,-3.92268 0.71289,-5.08203 0.36729,-1.15936 0.80055,-1.7361 2.54297,-3.24804 1.36917,-1.18806 3.43742,-2.79072 5.65821,-4.48047 z" />
  </g>
</svg>
