<?xml version="1.0" encoding="UTF-8" standalone="no"?>
<!-- Created with Inkscape (http://www.inkscape.org/) -->

<svg
   version="1.1"
   id="svg1"
   width="880"
   height="880"
   viewBox="0 0 880 880"
   sodipodi:docname="golden-coins-in-hand.svg"
   inkscape:version="1.3.2 (091e20e, 2023-11-25, custom)"
   xmlns:inkscape="http://www.inkscape.org/namespaces/inkscape"
   xmlns:sodipodi="http://sodipodi.sourceforge.net/DTD/sodipodi-0.dtd"
   xmlns="http://www.w3.org/2000/svg"
   xmlns:svg="http://www.w3.org/2000/svg">
  <defs
     id="defs1">
    <clipPath
       clipPathUnits="userSpaceOnUse"
       id="clipPath4">
      <path
         d="M 0,660 H 660 V 0 H 0 Z"
         transform="translate(-85.5967,-191.3848)"
         id="path4" />
    </clipPath>
    <clipPath
       clipPathUnits="userSpaceOnUse"
       id="clipPath6">
      <path
         d="M 0,660 H 660 V 0 H 0 Z"
         transform="translate(-317.23241,-337.91651)"
         id="path6" />
    </clipPath>
    <clipPath
       clipPathUnits="userSpaceOnUse"
       id="clipPath8">
      <path
         d="M 0,660 H 660 V 0 H 0 Z"
         transform="translate(-317.23391,-285.54591)"
         id="path8" />
    </clipPath>
    <clipPath
       clipPathUnits="userSpaceOnUse"
       id="clipPath10">
      <path
         d="M 0,660 H 660 V 0 H 0 Z"
         transform="translate(-317.23391,-290.3467)"
         id="path10" />
    </clipPath>
    <clipPath
       clipPathUnits="userSpaceOnUse"
       id="clipPath12">
      <path
         d="M 0,660 H 660 V 0 H 0 Z"
         transform="translate(-398.17871,-325.39841)"
         id="path12" />
    </clipPath>
    <clipPath
       clipPathUnits="userSpaceOnUse"
       id="clipPath14">
      <path
         d="M 0,660 H 660 V 0 H 0 Z"
         transform="translate(-312.03371,-254.36911)"
         id="path14" />
    </clipPath>
    <clipPath
       clipPathUnits="userSpaceOnUse"
       id="clipPath16">
      <path
         d="M 0,660 H 660 V 0 H 0 Z"
         id="path16" />
    </clipPath>
    <clipPath
       clipPathUnits="userSpaceOnUse"
       id="clipPath18">
      <path
         d="M 0,660 H 660 V 0 H 0 Z"
         id="path18" />
    </clipPath>
    <clipPath
       clipPathUnits="userSpaceOnUse"
       id="clipPath20">
      <path
         d="M 0,660 H 660 V 0 H 0 Z"
         transform="translate(-347.67871,-378.93311)"
         id="path20" />
    </clipPath>
    <clipPath
       clipPathUnits="userSpaceOnUse"
       id="clipPath22">
      <path
         d="M 0,660 H 660 V 0 H 0 Z"
         transform="translate(-347.67871,-326.56151)"
         id="path22" />
    </clipPath>
    <clipPath
       clipPathUnits="userSpaceOnUse"
       id="clipPath24">
      <path
         d="M 0,660 H 660 V 0 H 0 Z"
         transform="translate(-347.67871,-331.36331)"
         id="path24" />
    </clipPath>
    <clipPath
       clipPathUnits="userSpaceOnUse"
       id="clipPath26">
      <path
         d="M 0,660 H 660 V 0 H 0 Z"
         transform="translate(-428.62501,-366.41501)"
         id="path26" />
    </clipPath>
    <clipPath
       clipPathUnits="userSpaceOnUse"
       id="clipPath28">
      <path
         d="M 0,660 H 660 V 0 H 0 Z"
         transform="translate(-342.47851,-295.3867)"
         id="path28" />
    </clipPath>
    <clipPath
       clipPathUnits="userSpaceOnUse"
       id="clipPath30">
      <path
         d="M 0,660 H 660 V 0 H 0 Z"
         id="path30" />
    </clipPath>
    <clipPath
       clipPathUnits="userSpaceOnUse"
       id="clipPath32">
      <path
         d="M 0,660 H 660 V 0 H 0 Z"
         id="path32" />
    </clipPath>
    <clipPath
       clipPathUnits="userSpaceOnUse"
       id="clipPath34">
      <path
         d="M 0,660 H 660 V 0 H 0 Z"
         transform="translate(-300.31841,-407.68701)"
         id="path34" />
    </clipPath>
    <clipPath
       clipPathUnits="userSpaceOnUse"
       id="clipPath36">
      <path
         d="M 0,660 H 660 V 0 H 0 Z"
         transform="translate(-300.31841,-355.31591)"
         id="path36" />
    </clipPath>
    <clipPath
       clipPathUnits="userSpaceOnUse"
       id="clipPath38">
      <path
         d="M 0,660 H 660 V 0 H 0 Z"
         transform="translate(-300.31841,-360.11771)"
         id="path38" />
    </clipPath>
    <clipPath
       clipPathUnits="userSpaceOnUse"
       id="clipPath40">
      <path
         d="M 0,660 H 660 V 0 H 0 Z"
         transform="translate(-381.26461,-395.16941)"
         id="path40" />
    </clipPath>
    <clipPath
       clipPathUnits="userSpaceOnUse"
       id="clipPath42">
      <path
         d="M 0,660 H 660 V 0 H 0 Z"
         transform="translate(-295.11961,-324.13961)"
         id="path42" />
    </clipPath>
    <clipPath
       clipPathUnits="userSpaceOnUse"
       id="clipPath44">
      <path
         d="M 0,660 H 660 V 0 H 0 Z"
         id="path44" />
    </clipPath>
    <clipPath
       clipPathUnits="userSpaceOnUse"
       id="clipPath46">
      <path
         d="M 0,660 H 660 V 0 H 0 Z"
         id="path46" />
    </clipPath>
    <clipPath
       clipPathUnits="userSpaceOnUse"
       id="clipPath48">
      <path
         d="M 0,660 H 660 V 0 H 0 Z"
         transform="translate(-351.95701,-443.08891)"
         id="path48" />
    </clipPath>
    <clipPath
       clipPathUnits="userSpaceOnUse"
       id="clipPath50">
      <path
         d="M 0,660 H 660 V 0 H 0 Z"
         transform="translate(-351.95701,-390.71781)"
         id="path50" />
    </clipPath>
    <clipPath
       clipPathUnits="userSpaceOnUse"
       id="clipPath52">
      <path
         d="M 0,660 H 660 V 0 H 0 Z"
         transform="translate(-351.95701,-395.51951)"
         id="path52" />
    </clipPath>
    <clipPath
       clipPathUnits="userSpaceOnUse"
       id="clipPath54">
      <path
         d="M 0,660 H 660 V 0 H 0 Z"
         transform="translate(-432.90331,-430.57131)"
         id="path54" />
    </clipPath>
    <clipPath
       clipPathUnits="userSpaceOnUse"
       id="clipPath56">
      <path
         d="M 0,660 H 660 V 0 H 0 Z"
         transform="translate(-346.75681,-359.54201)"
         id="path56" />
    </clipPath>
    <clipPath
       clipPathUnits="userSpaceOnUse"
       id="clipPath58">
      <path
         d="M 0,660 H 660 V 0 H 0 Z"
         id="path58" />
    </clipPath>
    <clipPath
       clipPathUnits="userSpaceOnUse"
       id="clipPath60">
      <path
         d="M 0,660 H 660 V 0 H 0 Z"
         id="path60" />
    </clipPath>
    <clipPath
       clipPathUnits="userSpaceOnUse"
       id="clipPath62">
      <path
         d="M 0,660 H 660 V 0 H 0 Z"
         transform="translate(-112.4395,-285.82521)"
         id="path62" />
    </clipPath>
  </defs>
  <sodipodi:namedview
     id="namedview1"
     pagecolor="#ffffff"
     bordercolor="#000000"
     borderopacity="0.25"
     inkscape:showpageshadow="2"
     inkscape:pageopacity="0.0"
     inkscape:pagecheckerboard="0"
     inkscape:deskcolor="#d1d1d1"
     inkscape:zoom="0.69318182"
     inkscape:cx="439.27869"
     inkscape:cy="440"
     inkscape:window-width="1440"
     inkscape:window-height="830"
     inkscape:window-x="-6"
     inkscape:window-y="-6"
     inkscape:window-maximized="1"
     inkscape:current-layer="g1">
    <inkscape:page
       x="0"
       y="0"
       inkscape:label="1"
       id="page1"
       width="880"
       height="880"
       margin="0 0.18799999 0.46933332 0.28118932"
       bleed="0" />
  </sodipodi:namedview>
  <g
     id="g1"
     inkscape:groupmode="layer"
     inkscape:label="1">
    <g
       id="group-MC0">
      <path
         id="path2"
         d="M 0.211,0 H 659.86 V 659.649 H 0.211 Z"
         style="fill:#332d2a;fill-opacity:1;fill-rule:nonzero;stroke:none"
         transform="matrix(1.3333333,0,0,-1.3333333,0,880)" />
      <path
         id="path3"
         d="M 0,0 1.921,6.354 C 6.332,20.941 26.275,22.952 40.705,18.051 L 71.153,7.705 135.235,13.234 78.065,23.65 C 66.312,25.79 56.651,29.811 46.85,36.643 L -4.733,72.598 5.32,89.216 c 4.306,7.117 13.429,9.6 20.748,5.643 l 0.775,-0.419 5.577,8.49 c 6.021,9.164 16.254,13.66 27.077,11.897 l 34.522,-5.621 43.87,8.337 -38.266,0.042 c -7.791,0.008 -14.47,1.81 -21.209,5.719 l -22.167,12.86 1.559,2.005 c 7.102,9.136 18.474,12.798 29.572,9.523 l 9.968,-2.942 53.236,13.65 77.524,41.076 c 51.661,27.374 104.103,36.962 160.97,29.337 29.511,-3.957 56.15,1.058 81.827,16.134 l 103.36,60.69 V 213.281 L 312.703,31.726 147.381,-34.623 53.829,-28.961 Z"
         style="fill:#f5793b;fill-opacity:1;fill-rule:evenodd;stroke:none"
         transform="matrix(1.3333333,0,0,-1.3333333,114.12893,624.82027)"
         clip-path="url(#clipPath4)" />
      <path
         id="path5"
         d="m 0,0 c 21.352,0 40.994,-3.454 56.554,-9.241 h 34.87 v -33.89 c 0,-23.821 -40.932,-43.131 -91.424,-43.131 -50.492,0 -91.423,19.31 -91.423,43.131 v 33.89 h 34.87 C -40.993,-3.454 -21.352,0 0,0"
         style="fill:#ffcc00;fill-opacity:1;fill-rule:evenodd;stroke:none"
         transform="matrix(1.3333333,0,0,-1.3333333,422.97653,429.44467)"
         clip-path="url(#clipPath6)" />
      <path
         id="path7"
         d="M 0,0 C 50.353,0 91.422,19.375 91.422,43.13 91.422,66.886 50.353,86.261 0,86.261 -50.355,86.261 -91.425,66.886 -91.425,43.13 -91.425,19.375 -50.355,0 0,0"
         style="fill:#fff07f;fill-opacity:1;fill-rule:evenodd;stroke:none"
         transform="matrix(1.3333333,0,0,-1.3333333,422.97853,499.27213)"
         clip-path="url(#clipPath8)" />
      <path
         id="path9"
         d="M 0,0 C 44.747,0 81.244,17.219 81.244,38.329 81.244,59.44 44.747,76.659 0,76.659 -44.749,76.659 -81.246,59.44 -81.246,38.329 -81.246,17.219 -44.749,0 0,0"
         style="fill:#ffdd30;fill-opacity:1;fill-rule:evenodd;stroke:none"
         transform="matrix(1.3333333,0,0,-1.3333333,422.97853,492.87107)"
         clip-path="url(#clipPath10)" />
      <path
         id="path11"
         d="m 0,0 c -3.523,-19.635 -38.416,-35.052 -80.946,-35.052 -42.53,0 -77.422,15.417 -80.946,35.052 3.524,19.635 38.416,35.053 80.947,35.053 C -38.416,35.053 -3.523,19.635 0,0"
         style="fill:#ffcc00;fill-opacity:1;fill-rule:evenodd;stroke:none"
         transform="matrix(1.3333333,0,0,-1.3333333,530.90493,446.13547)"
         clip-path="url(#clipPath12)" />
      <path
         id="path13"
         d="M 0,0 0.082,-0.002 0.164,-0.003 0.245,-0.006 0.328,-0.009 0.41,-0.012 0.491,-0.013 0.573,-0.014 0.655,-0.017 0.738,-0.019 0.819,-0.02 0.9,-0.022 0.983,-0.023 1.064,-0.025 1.145,-0.027 H 1.228 L 1.309,-0.03 1.39,-0.033 H 1.473 L 1.554,-0.036 H 1.635 L 1.718,-0.039 1.798,-0.04 H 1.799 L 1.88,-0.042 1.961,-0.043 2.043,-0.044 2.124,-0.046 h 10e-4 l 0.08,-0.001 H 2.288 L 2.368,-0.05 H 2.369 2.45 l 0.08,-10e-4 h 0.001 l 0.082,-0.002 0.079,-0.001 h 0.002 l 0.081,-0.002 h 0.08 10e-4 L 2.938,-0.057 3.017,-0.058 H 3.018 3.1 L 3.18,-0.06 h 10e-4 l 0.08,-0.001 h 10e-4 0.08 l 0.081,-0.001 h 0.002 l 0.079,-0.001 h 0.081 v 0 h 0.082 l 0.08,-0.002 h 0.001 l 0.08,-0.001 H 3.83 3.909 3.989 3.99 4.07 4.072 l 0.079,-0.001 h 0.08 0.001 l 0.08,-0.002 h 0.002 0.079 0.081 10e-4 0.08 0.001 0.08 0.08 0.079 0.003 0.079 0.001 l 0.08,-0.001 h 0.08 0.08 10e-4 0.08 0.001 0.08 0.08 0.08 10e-4 l 0.08,0.001 h 0.001 0.08 0.08 0.08 0.001 0.08 0.001 0.08 0.08 0.001 0.08 0.002 l 0.08,0.002 h 0.08 l 0.081,0.001 h 10e-4 0.08 0.08 0.001 0.08 10e-4 l 0.08,0.001 0.081,0.002 h 0.082 0.079 l 0.082,0.001 h 0.001 l 0.08,0.001 h 0.081 0.001 l 0.08,0.001 0.08,0.002 h 0.001 0.082 l 0.079,0.001 h 0.002 l 0.081,0.001 h 0.08 0.002 l 0.081,0.002 0.081,0.001 0.081,0.002 0.08,10e-4 H 7.949 8.03 l 0.081,0.003 h 0.082 l 0.081,0.001 h 0.001 l 0.08,0.002 0.083,0.001 0.08,10e-4 H 8.519 L 8.6,-0.04 8.681,-0.039 h 0.002 l 0.08,0.003 h 0.082 l 0.081,0.003 h 0.082 l 0.082,0.003 0.081,0.003 h 0.081 l 0.083,0.002 0.082,0.002 0.081,0.001 0.082,0.002 0.082,0.001 0.081,0.002 0.082,0.003 0.083,0.001 0.081,10e-4 0.081,0.003 0.083,0.003 0.082,0.003 0.082,0.001 L 10.398,0 V 27.697 C 8.677,27.651 6.944,27.627 5.2,27.627 c -1.745,0 -3.478,0.024 -5.2,0.07 z m -20.922,1.735 c 3.113,-0.44 6.232,-0.796 9.335,-1.069 v 27.688 c -3.169,0.278 -6.285,0.632 -9.335,1.061 z M -36.526,4.73 c 2.731,-0.673 5.493,-1.268 8.273,-1.791 v 27.667 c -2.825,0.524 -5.583,1.111 -8.273,1.757 z m -12.405,3.715 c 2.362,-0.844 4.768,-1.618 7.212,-2.323 v 27.593 c -2.477,0.692 -4.88,1.438 -7.212,2.235 z m -10.265,4.285 c 0.294,-0.144 0.587,-0.285 0.878,-0.42 1.72,-0.813 3.48,-1.577 5.269,-2.3 v 27.427 c -2.123,0.812 -4.174,1.667 -6.147,2.563 z m -8.736,4.965 c 1.685,-1.12 3.4,-2.146 5.085,-3.075 v 27.128 c -1.767,0.892 -3.466,1.818 -5.085,2.776 z m -14.275,15.69 c 0.739,-1.866 1.75,-3.64 2.961,-5.314 v 24.857 c -1.062,1.01 -2.048,2.043 -2.961,3.092 z M 31.323,1.735 C 28.207,1.295 25.087,0.939 21.987,0.666 v 27.688 c 3.168,0.278 6.283,0.632 9.336,1.061 z M 46.925,4.73 C 44.195,4.057 41.432,3.462 38.651,2.939 v 27.667 c 2.825,0.524 5.586,1.111 8.274,1.757 z M 59.329,8.445 C 56.968,7.601 54.56,6.827 52.119,6.122 v 27.593 c 2.474,0.692 4.88,1.438 7.21,2.235 z m 10.266,4.285 c -0.296,-0.144 -0.589,-0.285 -0.878,-0.42 -1.72,-0.813 -3.479,-1.577 -5.27,-2.3 v 27.427 c 2.124,0.812 4.175,1.667 6.148,2.563 z m 8.736,4.965 c -1.685,-1.12 -3.4,-2.146 -5.086,-3.075 v 27.128 c 1.767,0.892 3.467,1.818 5.086,2.776 z m 14.274,15.69 c -0.739,-1.866 -1.748,-3.64 -2.96,-5.314 v 24.857 c 1.062,1.01 2.049,2.043 2.96,3.092 z M 81.893,46.775 V 20.259 c 1.409,1.098 2.764,2.269 4.022,3.51 v 25.934 c -1.266,-1.004 -2.608,-1.978 -4.022,-2.928 m -153.387,0 V 20.259 c -1.409,1.098 -2.764,2.269 -4.023,3.51 v 25.934 c 1.268,-1.004 2.608,-1.978 4.023,-2.928"
         style="fill:#ffbb00;fill-opacity:1;fill-rule:evenodd;stroke:none"
         transform="matrix(1.3333333,0,0,-1.3333333,416.04493,540.8412)"
         clip-path="url(#clipPath14)" />
      <path
         id="path15"
         d="m 267.441,321.955 h 99.582 v 12.475 h -99.582 z"
         style="fill:#f5a40e;fill-opacity:1;fill-rule:evenodd;stroke:none"
         transform="matrix(1.3333333,0,0,-1.3333333,0,880)"
         clip-path="url(#clipPath16)" />
      <path
         id="path17"
         d="m 267.441,317.727 h 99.582 v 4.228 h -99.582 z"
         style="fill:#ffdd30;fill-opacity:1;fill-rule:evenodd;stroke:none"
         transform="matrix(1.3333333,0,0,-1.3333333,0,880)"
         clip-path="url(#clipPath18)" />
      <path
         id="path19"
         d="m 0,0 c 21.352,0 40.993,-3.454 56.554,-9.241 h 34.869 v -33.89 c 0,-23.82 -40.931,-43.131 -91.423,-43.131 -50.492,0 -91.424,19.311 -91.424,43.131 v 33.89 h 34.87 C -40.994,-3.454 -21.353,0 0,0"
         style="fill:#ffbb00;fill-opacity:1;fill-rule:evenodd;stroke:none"
         transform="matrix(1.3333333,0,0,-1.3333333,463.5716,374.75587)"
         clip-path="url(#clipPath20)" />
      <path
         id="path21"
         d="M 0,0 C 50.355,0 91.423,19.375 91.423,43.131 91.423,66.887 50.355,86.262 0,86.262 -50.354,86.262 -91.424,66.887 -91.424,43.131 -91.424,19.375 -50.354,0 0,0"
         style="fill:#f5a40e;fill-opacity:1;fill-rule:evenodd;stroke:none"
         transform="matrix(1.3333333,0,0,-1.3333333,463.5716,444.58467)"
         clip-path="url(#clipPath22)" />
      <path
         id="path23"
         d="M 0,0 C 44.748,0 81.245,17.218 81.245,38.329 81.245,59.44 44.748,76.659 0,76.659 -44.749,76.659 -81.246,59.44 -81.246,38.329 -81.246,17.218 -44.749,0 0,0"
         style="fill:#ffdd30;fill-opacity:1;fill-rule:evenodd;stroke:none"
         transform="matrix(1.3333333,0,0,-1.3333333,463.5716,438.18227)"
         clip-path="url(#clipPath24)" />
      <path
         id="path25"
         d="m 0,0 c -3.525,-19.634 -38.416,-35.052 -80.946,-35.052 -42.531,0 -77.423,15.418 -80.948,35.052 3.525,19.635 38.417,35.052 80.948,35.052 C -38.416,35.052 -3.525,19.635 0,0"
         style="fill:#ffbb00;fill-opacity:1;fill-rule:evenodd;stroke:none"
         transform="matrix(1.3333333,0,0,-1.3333333,571.5,391.44667)"
         clip-path="url(#clipPath26)" />
      <path
         id="path27"
         d="M 0,0 0.082,-0.002 0.165,-0.005 0.246,-0.008 0.327,-0.01 0.41,-0.012 0.493,-0.013 0.574,-0.016 0.655,-0.017 0.737,-0.018 0.819,-0.021 H 0.82 L 0.9,-0.023 H 0.982 L 1.065,-0.026 1.147,-0.028 1.228,-0.029 1.311,-0.032 1.392,-0.033 1.473,-0.035 1.556,-0.036 1.635,-0.037 1.718,-0.04 H 1.799 1.801 L 1.88,-0.043 h 0.083 l 0.08,-0.003 h 0.082 l 0.08,-0.003 H 2.206 2.288 L 2.369,-0.05 2.45,-0.052 2.531,-0.053 2.612,-0.054 h 0.081 0.002 l 0.08,-0.003 h 0.082 v 0 H 2.938 L 3.019,-0.06 H 3.02 3.1 3.18 3.183 l 0.079,-0.002 h 0.08 0.002 0.081 l 0.08,-0.002 0.081,-0.001 h 0.001 0.08 0.08 0.001 l 0.081,-0.001 0.08,-0.002 h 0.081 0.002 0.079 0.08 0.001 l 0.08,-0.001 h 0.002 0.08 l 0.08,-0.001 h 10e-4 0.08 0.002 0.079 0.08 0.08 10e-4 0.08 0.001 0.08 0.08 0.08 10e-4 0.08 0.001 0.08 0.08 0.08 10e-4 0.079 0.002 0.081 0.08 0.079 0.002 0.08 10e-4 0.08 0.079 0.08 0.002 l 0.079,0.001 h 0.002 0.08 l 0.079,0.001 h 0.002 0.081 0.08 0.079 0.002 l 0.081,0.002 0.08,0.001 h 0.001 0.08 10e-4 0.081 l 0.08,0.001 h 10e-4 l 0.081,0.002 h 0.08 0.001 0.08 0.002 L 7.218,-0.06 H 7.22 7.3 7.301 7.381 l 0.081,0.003 h 0.001 0.08 0.081 0.002 l 0.079,0.003 h 0.082 0.001 l 0.08,0.001 0.081,0.001 H 7.95 l 0.08,0.002 0.083,0.001 h 0.079 l 0.083,0.003 h 0.082 l 0.081,0.003 h 0.081 l 0.082,0.003 h 0.082 l 0.081,0.003 0.081,0.001 0.083,10e-4 0.08,0.002 0.082,0.001 0.081,0.003 0.082,0.001 0.082,0.002 0.081,0.003 h 0.082 l 0.082,0.002 0.083,0.003 0.081,10e-4 0.081,0.001 0.083,0.003 0.082,10e-4 0.081,0.002 0.081,0.002 0.083,0.003 0.083,0.003 L 10.399,0 V 27.695 C 8.677,27.65 6.945,27.625 5.2,27.625 c -1.745,0 -3.478,0.025 -5.2,0.07 z m -20.922,1.735 c 3.113,-0.442 6.232,-0.795 9.335,-1.071 v 27.69 c -3.169,0.278 -6.285,0.631 -9.335,1.059 z M -36.526,4.73 c 2.731,-0.674 5.495,-1.27 8.274,-1.791 v 27.668 c -2.825,0.523 -5.584,1.109 -8.274,1.756 z M -48.93,8.444 c 2.361,-0.845 4.769,-1.617 7.212,-2.323 v 27.592 c -2.478,0.693 -4.881,1.44 -7.212,2.236 z m -10.266,4.285 c 0.296,-0.143 0.589,-0.285 0.878,-0.419 1.72,-0.813 3.479,-1.578 5.27,-2.3 v 27.426 c -2.124,0.812 -4.175,1.668 -6.148,2.563 z m -8.736,4.966 c 1.685,-1.122 3.4,-2.148 5.085,-3.076 v 27.128 c -1.767,0.892 -3.466,1.817 -5.085,2.776 z m -14.274,15.69 c 0.738,-1.868 1.749,-3.641 2.96,-5.315 v 24.858 c -1.062,1.009 -2.048,2.041 -2.96,3.092 z M 31.323,1.735 C 28.208,1.293 25.089,0.94 21.987,0.664 v 27.69 c 3.168,0.278 6.285,0.631 9.336,1.059 z M 46.925,4.73 C 44.195,4.056 41.432,3.46 38.652,2.939 v 27.668 c 2.824,0.523 5.585,1.109 8.273,1.756 z M 59.33,8.444 C 56.968,7.599 54.562,6.827 52.118,6.121 v 27.592 c 2.477,0.693 4.882,1.44 7.212,2.236 z m 10.266,4.285 c -0.295,-0.143 -0.588,-0.285 -0.878,-0.419 -1.721,-0.813 -3.479,-1.578 -5.27,-2.3 v 27.426 c 2.123,0.812 4.174,1.668 6.148,2.563 z m 8.735,4.966 c -1.685,-1.122 -3.4,-2.148 -5.085,-3.076 v 27.128 c 1.768,0.892 3.466,1.817 5.085,2.776 z m 14.276,15.69 c -0.74,-1.868 -1.749,-3.641 -2.96,-5.315 v 24.858 c 1.06,1.009 2.046,2.041 2.96,3.092 z M 81.893,46.773 V 20.257 c 1.411,1.098 2.764,2.27 4.023,3.511 v 25.933 c -1.267,-1.002 -2.609,-1.978 -4.023,-2.928 m -153.387,0 V 20.257 c -1.409,1.098 -2.764,2.27 -4.022,3.511 v 25.933 c 1.267,-1.002 2.608,-1.978 4.022,-2.928"
         style="fill:#fca80d;fill-opacity:1;fill-rule:evenodd;stroke:none"
         transform="matrix(1.3333333,0,0,-1.3333333,456.638,486.15107)"
         clip-path="url(#clipPath28)" />
      <path
         id="path29"
         d="m 297.888,362.972 h 99.582 v 12.474 h -99.582 z"
         style="fill:#f5a40e;fill-opacity:1;fill-rule:evenodd;stroke:none"
         transform="matrix(1.3333333,0,0,-1.3333333,0,880)"
         clip-path="url(#clipPath30)" />
      <path
         id="path31"
         d="m 297.888,358.743 h 99.582 v 4.228 h -99.582 z"
         style="fill:#ffdd30;fill-opacity:1;fill-rule:evenodd;stroke:none"
         transform="matrix(1.3333333,0,0,-1.3333333,0,880)"
         clip-path="url(#clipPath32)" />
      <path
         id="path33"
         d="m 0,0 c 21.352,0 40.993,-3.454 56.554,-9.241 h 34.87 v -33.89 c 0,-23.821 -40.932,-43.131 -91.424,-43.131 -50.492,0 -91.423,19.31 -91.423,43.131 v 33.89 h 34.87 C -40.993,-3.454 -21.353,0 0,0"
         style="fill:#ffcc00;fill-opacity:1;fill-rule:evenodd;stroke:none"
         transform="matrix(1.3333333,0,0,-1.3333333,400.42453,336.41733)"
         clip-path="url(#clipPath34)" />
      <path
         id="path35"
         d="M 0,0 C 50.354,0 91.424,19.375 91.424,43.131 91.424,66.887 50.354,86.262 0,86.262 -50.354,86.262 -91.423,66.887 -91.423,43.131 -91.423,19.375 -50.354,0 0,0"
         style="fill:#fff07f;fill-opacity:1;fill-rule:evenodd;stroke:none"
         transform="matrix(1.3333333,0,0,-1.3333333,400.42453,406.24547)"
         clip-path="url(#clipPath36)" />
      <path
         id="path37"
         d="M 0,0 C 44.748,0 81.245,17.218 81.245,38.329 81.245,59.44 44.748,76.658 0,76.658 -44.748,76.658 -81.246,59.44 -81.246,38.329 -81.246,17.218 -44.748,0 0,0"
         style="fill:#ffdd30;fill-opacity:1;fill-rule:evenodd;stroke:none"
         transform="matrix(1.3333333,0,0,-1.3333333,400.42453,399.84307)"
         clip-path="url(#clipPath38)" />
      <path
         id="path39"
         d="m 0,0 c -3.525,-19.635 -38.416,-35.053 -80.946,-35.053 -42.53,0 -77.422,15.418 -80.946,35.053 3.524,19.635 38.416,35.052 80.946,35.052 C -38.416,35.052 -3.525,19.635 0,0"
         style="fill:#ffbb00;fill-opacity:1;fill-rule:evenodd;stroke:none"
         transform="matrix(1.3333333,0,0,-1.3333333,508.3528,353.10747)"
         clip-path="url(#clipPath40)" />
      <path
         id="path41"
         d="M 0,0 0.082,-0.002 0.164,-0.003 0.245,-0.006 0.328,-0.009 0.41,-0.012 0.491,-0.013 0.573,-0.014 0.655,-0.017 0.738,-0.018 0.818,-0.02 H 0.819 L 0.9,-0.022 0.983,-0.023 1.064,-0.025 1.145,-0.027 1.228,-0.029 1.308,-0.03 H 1.309 L 1.39,-0.033 h 0.083 l 0.08,-0.003 H 1.635 L 1.716,-0.039 H 1.718 L 1.798,-0.04 1.88,-0.042 1.96,-0.043 2.042,-0.044 2.124,-0.046 2.205,-0.047 H 2.288 L 2.368,-0.05 H 2.45 l 0.08,-10e-4 0.083,-0.002 0.079,-0.001 h 0.002 l 0.081,-0.002 h 0.08 L 2.938,-0.057 3.017,-0.058 H 3.019 3.099 3.1 L 3.18,-0.06 h 0.081 10e-4 0.08 l 0.081,-0.002 0.081,-0.001 h 0.081 v 0 h 0.082 l 0.08,-0.002 0.081,-0.001 h 0.081 0.08 0.001 0.08 0.002 l 0.079,-0.001 h 0.081 v 0 l 0.08,-0.002 h 0.002 0.08 0.08 10e-4 0.08 0.001 0.08 0.08 0.079 0.002 0.08 0.001 l 0.08,-0.001 h 0.08 0.08 10e-4 0.08 H 5.2 5.279 5.28 5.36 5.44 l 0.081,0.001 h 0.001 0.079 0.001 0.08 0.08 0.001 0.079 0.002 0.08 0.08 0.08 0.001 l 0.08,0.002 h 0.002 0.08 l 0.081,0.001 h 0.081 0.08 0.081 10e-4 l 0.08,0.001 0.08,0.002 h 0.001 0.08 0.002 0.08 l 0.081,0.001 h 0.001 l 0.08,0.002 h 0.08 10e-4 0.081 l 0.08,0.002 h 0.001 0.082 l 0.079,0.001 h 0.002 l 0.081,0.001 h 0.08 10e-4 l 0.082,0.002 0.079,0.001 h 0.002 l 0.081,0.002 0.08,10e-4 H 8.03 l 0.081,0.003 h 0.082 l 0.081,0.001 h 0.001 l 0.08,0.002 0.083,0.001 0.08,10e-4 0.082,0.002 0.081,0.001 0.082,0.003 h 0.082 l 0.08,0.003 H 9.008 L 9.089,-0.03 H 9.09 l 0.08,10e-4 0.083,0.002 0.082,0.002 0.08,0.002 0.083,0.001 0.082,0.002 0.082,0.002 0.081,10e-4 0.082,0.003 0.083,0.001 0.081,10e-4 0.081,0.003 0.083,0.003 0.082,0.003 0.082,0.001 L 10.398,0 v 27.697 c -1.721,-0.045 -3.455,-0.07 -5.199,-0.07 -1.744,0 -3.478,0.025 -5.199,0.07 z m -20.924,1.735 c 3.115,-0.44 6.235,-0.795 9.337,-1.069 v 27.688 c -3.169,0.278 -6.285,0.633 -9.337,1.062 z M -36.526,4.73 c 2.731,-0.673 5.492,-1.268 8.273,-1.79 v 27.668 c -2.825,0.523 -5.585,1.109 -8.273,1.757 z m -12.405,3.716 c 2.362,-0.845 4.768,-1.619 7.21,-2.324 v 27.592 c -2.475,0.693 -4.88,1.439 -7.21,2.235 z m -10.265,4.284 c 0.294,-0.144 0.587,-0.284 0.878,-0.42 1.72,-0.812 3.478,-1.577 5.269,-2.301 v 27.428 c -2.123,0.812 -4.174,1.667 -6.147,2.563 z m -8.736,4.966 c 1.685,-1.121 3.4,-2.148 5.085,-3.075 v 27.127 c -1.767,0.891 -3.466,1.817 -5.085,2.777 z m -14.275,15.689 c 0.739,-1.867 1.748,-3.639 2.961,-5.314 v 24.857 c -1.063,1.01 -2.048,2.042 -2.961,3.093 z M 31.322,1.735 C 28.207,1.295 25.087,0.94 21.985,0.666 v 27.688 c 3.17,0.278 6.285,0.633 9.337,1.062 z M 46.924,4.73 C 44.194,4.057 41.432,3.462 38.651,2.94 v 27.668 c 2.825,0.523 5.585,1.109 8.273,1.757 z M 59.329,8.446 C 56.968,7.601 54.56,6.827 52.119,6.122 v 27.592 c 2.474,0.693 4.88,1.439 7.21,2.235 z m 10.265,4.284 c -0.295,-0.144 -0.588,-0.284 -0.878,-0.42 -1.719,-0.812 -3.478,-1.577 -5.269,-2.301 v 27.428 c 2.123,0.812 4.175,1.667 6.147,2.563 z m 8.737,4.966 c -1.686,-1.121 -3.4,-2.148 -5.086,-3.075 v 27.127 c 1.767,0.891 3.465,1.817 5.086,2.777 z m 14.274,15.689 c -0.739,-1.867 -1.748,-3.639 -2.96,-5.314 v 24.857 c 1.062,1.01 2.049,2.042 2.96,3.093 z M 81.893,46.775 V 20.259 c 1.409,1.099 2.764,2.269 4.023,3.509 V 49.703 C 84.649,48.7 83.307,47.724 81.893,46.775 m -153.387,0 V 20.259 c -1.409,1.099 -2.764,2.269 -4.023,3.509 v 25.935 c 1.268,-1.003 2.608,-1.979 4.023,-2.928"
         style="fill:#ffbb00;fill-opacity:1;fill-rule:evenodd;stroke:none"
         transform="matrix(1.3333333,0,0,-1.3333333,393.4928,447.81387)"
         clip-path="url(#clipPath42)" />
      <path
         id="path43"
         d="m 250.527,391.726 h 99.582 V 404.2 h -99.582 z"
         style="fill:#fff07f;fill-opacity:1;fill-rule:evenodd;stroke:none"
         transform="matrix(1.3333333,0,0,-1.3333333,0,880)"
         clip-path="url(#clipPath44)" />
      <path
         id="path45"
         d="m 250.527,387.497 h 99.582 v 4.228 h -99.582 z"
         style="fill:#ffdd30;fill-opacity:1;fill-rule:evenodd;stroke:none"
         transform="matrix(1.3333333,0,0,-1.3333333,0,880)"
         clip-path="url(#clipPath46)" />
      <path
         id="path47"
         d="m 0,0 c 21.351,0 40.992,-3.453 56.554,-9.241 h 34.868 v -33.89 c 0,-23.82 -40.931,-43.131 -91.422,-43.131 -50.492,0 -91.424,19.311 -91.424,43.131 v 33.89 h 34.87 C -40.994,-3.453 -21.354,0 0,0"
         style="fill:#f5a40e;fill-opacity:1;fill-rule:evenodd;stroke:none"
         transform="matrix(1.3333333,0,0,-1.3333333,469.276,289.2148)"
         clip-path="url(#clipPath48)" />
      <path
         id="path49"
         d="M 0,0 C 50.353,0 91.422,19.376 91.422,43.131 91.422,66.887 50.353,86.262 0,86.262 -50.354,86.262 -91.424,66.887 -91.424,43.131 -91.424,19.376 -50.354,0 0,0"
         style="fill:#ffdd30;fill-opacity:1;fill-rule:evenodd;stroke:none"
         transform="matrix(1.3333333,0,0,-1.3333333,469.276,359.04293)"
         clip-path="url(#clipPath50)" />
      <path
         id="path51"
         d="M 0,0 C 44.747,0 81.244,17.218 81.244,38.329 81.244,59.44 44.747,76.659 0,76.659 -44.749,76.659 -81.246,59.44 -81.246,38.329 -81.246,17.218 -44.749,0 0,0"
         style="fill:#ffcc00;fill-opacity:1;fill-rule:evenodd;stroke:none"
         transform="matrix(1.3333333,0,0,-1.3333333,469.276,352.64067)"
         clip-path="url(#clipPath52)" />
      <path
         id="path53"
         d="m 0,0 c -3.525,-19.634 -38.418,-35.052 -80.946,-35.052 -42.531,0 -77.423,15.418 -80.948,35.052 3.525,19.635 38.417,35.053 80.948,35.053 C -38.418,35.053 -3.525,19.635 0,0"
         style="fill:#ffbb00;fill-opacity:1;fill-rule:evenodd;stroke:none"
         transform="matrix(1.3333333,0,0,-1.3333333,577.2044,305.90493)"
         clip-path="url(#clipPath54)" />
      <path
         id="path55"
         d="M 0,0 0.082,-0.002 0.165,-0.004 0.246,-0.007 0.327,-0.008 0.41,-0.011 0.492,-0.013 0.573,-0.015 0.655,-0.016 0.737,-0.019 0.818,-0.021 H 0.82 L 0.899,-0.022 0.982,-0.024 1.065,-0.026 1.146,-0.027 1.228,-0.029 1.311,-0.031 1.392,-0.033 1.473,-0.034 1.554,-0.036 1.635,-0.037 1.718,-0.039 1.799,-0.04 1.88,-0.041 1.963,-0.043 2.042,-0.044 2.125,-0.046 2.205,-0.047 h 10e-4 l 0.081,-0.001 0.08,-0.001 H 2.368 L 2.45,-0.051 2.531,-0.052 2.612,-0.053 2.693,-0.054 h 10e-4 l 0.08,-0.001 0.081,-0.001 0.083,-0.001 0.081,-0.001 H 3.02 L 3.1,-0.059 3.18,-0.06 h 10e-4 l 0.081,-0.001 h 0.08 l 0.083,-0.001 0.079,-0.001 0.081,-0.001 h 0.002 l 0.08,-0.001 h 0.079 0.002 l 0.081,-0.001 h 0.08 0.079 0.002 l 0.081,-0.001 0.08,-0.001 h 0.001 0.08 10e-4 l 0.08,-0.001 h 0.081 0.081 0.001 0.08 l 0.08,-0.001 h 0.08 10e-4 0.08 0.001 0.08 l 0.08,-10e-4 H 5.037 5.039 5.119 5.12 5.2 5.28 5.359 5.361 5.439 5.44 l 0.082,10e-4 h 0.08 0.08 0.002 0.079 0.002 l 0.078,0.001 h 0.001 0.08 0.08 0.001 0.08 0.002 l 0.079,0.001 h 0.08 10e-4 l 0.082,0.001 0.079,0.001 h 0.08 10e-4 0.082 l 0.079,0.001 h 0.002 0.08 10e-4 l 0.08,0.001 0.08,0.001 h 0.002 l 0.081,0.001 0.08,0.001 h 0.081 0.001 l 0.08,0.001 0.081,0.001 h 0.002 l 0.079,10e-4 0.082,0.001 h 0.001 l 0.08,0.001 0.081,0.001 0.081,0.001 0.081,0.001 h 0.002 l 0.079,0.001 0.082,0.001 0.081,0.002 0.082,0.001 0.08,0.001 0.083,0.001 0.079,0.002 0.084,0.001 0.081,0.002 0.081,0.001 0.083,0.001 0.081,0.002 0.081,0.001 0.081,0.002 0.081,0.001 0.083,0.002 0.081,0.002 0.081,0.002 0.083,0.001 0.081,0.002 0.081,0.002 0.083,10e-4 0.082,0.002 0.082,0.003 0.081,0.001 0.082,0.002 0.083,0.002 0.081,0.003 0.081,0.001 0.083,0.003 0.082,0.002 L 10.399,0 V 27.696 C 8.677,27.651 6.944,27.626 5.2,27.626 c -1.745,0 -3.478,0.025 -5.2,0.07 z m -20.923,1.735 c 3.114,-0.44 6.233,-0.796 9.335,-1.07 v 27.688 c -3.168,0.278 -6.285,0.633 -9.335,1.061 z M -36.526,4.73 c 2.731,-0.673 5.495,-1.27 8.272,-1.791 v 27.668 c -2.823,0.523 -5.583,1.11 -8.272,1.757 z m -12.405,3.715 c 2.362,-0.844 4.768,-1.617 7.211,-2.324 v 27.592 c -2.476,0.694 -4.879,1.44 -7.211,2.236 z m -10.266,4.285 c 0.296,-0.144 0.59,-0.284 0.879,-0.421 1.72,-0.811 3.479,-1.577 5.269,-2.299 v 27.426 c -2.123,0.812 -4.174,1.667 -6.148,2.563 z m -8.735,4.966 c 1.685,-1.121 3.4,-2.148 5.085,-3.076 v 27.127 c -1.768,0.892 -3.466,1.818 -5.085,2.776 z m -14.274,15.689 c 0.738,-1.867 1.748,-3.639 2.959,-5.315 v 24.858 c -1.061,1.011 -2.047,2.042 -2.959,3.093 z M 31.322,1.735 C 28.208,1.295 25.089,0.939 21.986,0.665 v 27.688 c 3.168,0.278 6.284,0.633 9.336,1.061 z M 46.925,4.73 C 44.194,4.057 41.432,3.46 38.651,2.939 v 27.668 c 2.825,0.523 5.585,1.11 8.274,1.757 z M 59.328,8.445 C 56.968,7.601 54.561,6.828 52.118,6.121 v 27.592 c 2.475,0.694 4.881,1.44 7.21,2.236 z M 69.596,12.73 C 69.3,12.586 69.008,12.446 68.717,12.309 66.997,11.498 65.239,10.732 63.446,10.01 v 27.426 c 2.124,0.812 4.175,1.667 6.15,2.563 z m 8.734,4.966 C 76.645,16.575 74.931,15.548 73.246,14.62 v 27.127 c 1.767,0.892 3.466,1.818 5.084,2.776 z m 14.275,15.689 c -0.739,-1.867 -1.748,-3.639 -2.96,-5.315 v 24.858 c 1.061,1.011 2.048,2.042 2.96,3.093 z M 81.893,46.774 V 20.258 c 1.41,1.099 2.763,2.27 4.023,3.51 V 49.703 C 84.648,48.7 83.307,47.724 81.893,46.774 m -153.387,0 V 20.258 c -1.41,1.099 -2.764,2.27 -4.022,3.51 v 25.935 c 1.266,-1.003 2.608,-1.979 4.022,-2.929"
         style="fill:#e39400;fill-opacity:1;fill-rule:evenodd;stroke:none"
         transform="matrix(1.3333333,0,0,-1.3333333,462.3424,400.61067)"
         clip-path="url(#clipPath56)" />
      <path
         id="path57"
         d="m 302.165,427.128 h 99.582 v 12.473 h -99.582 z"
         style="fill:#ffdd30;fill-opacity:1;fill-rule:evenodd;stroke:none"
         transform="matrix(1.3333333,0,0,-1.3333333,0,880)"
         clip-path="url(#clipPath58)" />
      <path
         id="path59"
         d="m 302.165,422.899 h 99.582 v 4.229 h -99.582 z"
         style="fill:#ffcc00;fill-opacity:1;fill-rule:evenodd;stroke:none"
         transform="matrix(1.3333333,0,0,-1.3333333,0,880)"
         clip-path="url(#clipPath60)" />
      <path
         id="path61"
         d="m 0,0 43.465,-24.433 50.741,2.537 -49.473,3.384 L 4.993,7.6 Z m 108.392,-81.206 57.488,20.197 -56.027,-12.264 -56.531,2.1 z M 547.42,61.409 258.497,-103.001 124.885,-134.473 c -13.744,-3.237 -26.114,-3.434 -39.953,-0.637 l -44.366,8.964 c -9.455,1.91 -17.287,4.739 -25.781,9.309 l -41.628,22.397 69.184,-19.684 68.725,-3.892 117.82,39.743 94.913,84.592 -8.893,23.972 -31.241,8.129 c -20.823,5.419 -39.267,7.495 -60.774,6.843 -17.309,-0.526 -33.048,1.492 -50.314,6.367 l -3.438,0.972 c -7.954,2.246 -13.157,9.453 -12.788,17.709 0.37,8.255 6.197,14.968 14.318,16.495 l 14.238,2.675 c 14.503,2.725 27.169,3.511 41.898,2.595 l 5.235,-0.326 c 19.469,-1.21 36.22,-0.084 55.35,3.719 l 67.75,13.469 c 24.601,4.891 46.735,3.789 70.729,-3.518 l 40.423,-12.311 81.128,46.009 z"
         style="fill:#e66220;fill-opacity:1;fill-rule:evenodd;stroke:none"
         transform="matrix(1.3333333,0,0,-1.3333333,149.91933,498.89973)"
         clip-path="url(#clipPath62)" />
    </g>
  </g>
</svg>
