<?xml version="1.0" encoding="UTF-8" standalone="no"?>
<!-- Created with Inkscape (http://www.inkscape.org/) -->

<svg
   version="1.1"
   id="svg1"
   width="487"
   height="398"
   viewBox="0 0 487 398"
   sodipodi:docname="3.svg"
   inkscape:version="1.4.2 (ebf0e940d0, 2025-05-08)"
   inkscape:label="Layer 1"
   xmlns:inkscape="http://www.inkscape.org/namespaces/inkscape"
   xmlns:sodipodi="http://sodipodi.sourceforge.net/DTD/sodipodi-0.dtd"
   xmlns="http://www.w3.org/2000/svg"
   xmlns:svg="http://www.w3.org/2000/svg">
  <defs
     id="defs1">
    <inkscape:path-effect
       effect="bspline"
       id="path-effect6"
       is_visible="true"
       lpeversion="1.3"
       weight="33.333333"
       steps="2"
       helper_size="0"
       apply_no_weight="true"
       apply_with_weight="true"
       only_selected="false"
       uniform="false" />
    <inkscape:path-effect
       effect="bspline"
       id="path-effect5"
       is_visible="true"
       lpeversion="1.3"
       weight="33.333333"
       steps="2"
       helper_size="0"
       apply_no_weight="true"
       apply_with_weight="true"
       only_selected="false"
       uniform="false" />
    <inkscape:path-effect
       effect="bspline"
       id="path-effect4"
       is_visible="true"
       lpeversion="1.3"
       weight="33.333333"
       steps="2"
       helper_size="0"
       apply_no_weight="true"
       apply_with_weight="true"
       only_selected="false"
       uniform="false" />
    <inkscape:path-effect
       effect="bspline"
       id="path-effect3"
       is_visible="true"
       lpeversion="1.3"
       weight="33.333333"
       steps="2"
       helper_size="0"
       apply_no_weight="true"
       apply_with_weight="true"
       only_selected="false"
       uniform="false" />
    <inkscape:path-effect
       effect="bspline"
       id="path-effect2"
       is_visible="true"
       lpeversion="1.3"
       weight="33.333333"
       steps="2"
       helper_size="0"
       apply_no_weight="true"
       apply_with_weight="true"
       only_selected="false"
       uniform="false" />
    <inkscape:path-effect
       effect="bspline"
       id="path-effect1"
       is_visible="true"
       lpeversion="1.3"
       weight="33.333333"
       steps="2"
       helper_size="0"
       apply_no_weight="true"
       apply_with_weight="true"
       only_selected="false"
       uniform="false" />
  </defs>
  <sodipodi:namedview
     id="namedview1"
     pagecolor="#ffffff"
     bordercolor="#000000"
     borderopacity="0.25"
     inkscape:showpageshadow="2"
     inkscape:pageopacity="0.0"
     inkscape:pagecheckerboard="0"
     inkscape:deskcolor="#d1d1d1"
     showgrid="false"
     inkscape:zoom="1.85"
     inkscape:cx="143.51351"
     inkscape:cy="242.16216"
     inkscape:window-width="1920"
     inkscape:window-height="1011"
     inkscape:window-x="0"
     inkscape:window-y="0"
     inkscape:window-maximized="1"
     inkscape:current-layer="g1" />
  <g
     inkscape:groupmode="layer"
     inkscape:label="Layer 1"
     id="g1">
    <path
       style="fill:#008000;stroke:none;stroke-width:3.64724;stroke-linecap:round;paint-order:markers fill stroke"
       d="m 124.89146,229.88423 -7.23589,-14.54414 -3.03907,2.4602 -1.66426,6.36758 0.72359,5.13748 6.80174,8.97251 10.27496,9.47901 13.82055,8.53835 24.16788,8.24892 9.26193,2.89435 22.7207,2.822 29.08828,0.94067 25.75977,-2.09841 22.28654,-3.54559 29.45007,-7.45296 31.98263,-11.28799 19.03039,-8.53835 17.72793,-11.36035 13.24168,-14.32706 4.77569,-17.80029 -2.822,-9.26194 -1.80897,-0.28944 -1.01302,5.71636 -5.06513,12.51809 -13.82055,12.80752 -26.33864,15.34009 -10.05788,4.19682 -39.00145,13.67583 -40.30391,7.59768 -10.13024,0.79595 -23.9508,1.01302 -29.45007,-1.59189 -25.61505,-6.00579 -23.22721,-8.46599 -10.49204,-8.24892 z"
       id="path3" />
    <path
       id="path2"
       style="fill:#2c5aa0;stroke:none;stroke-width:3.64724;stroke-linecap:round;paint-order:markers fill stroke"
       d="M 220.77539 38.0625 L 203.79883 42.791016 L 190.77539 49.224609 L 183.875 61.085938 L 176.43359 76.822266 L 165.11719 90.697266 L 156.74414 112.86914 L 153.7207 118.52734 L 148.68164 119.07031 L 124.3418 123.10156 L 118.91406 124.10938 L 108.37305 126.74414 L 92.169922 133.25586 L 76.744141 140.46484 L 55.349609 155.58203 L 41.705078 173.79883 L 29.767578 193.33398 L 22.712891 215.42578 L 19.457031 231.55078 L 19.070312 258.75977 L 22.402344 275.19336 L 28.449219 291.39453 L 38.605469 307.90625 L 51.472656 321.24023 L 69.921875 335.89062 L 98.681641 350 L 124.57422 356.2793 L 145.27148 360 L 167.83008 359.53516 L 192.63477 357.83008 L 228.75977 351.08594 L 261.31836 341.08594 L 274.96094 335.50391 L 329.92188 305.11719 L 375.73633 271.86133 L 424.03125 234.10938 L 463.41016 202.55859 L 479.37891 184.3418 L 481.9375 176.35742 L 477.90625 167.05469 L 464.96094 158.68164 L 441.9375 152.79102 L 407.28711 144.3418 L 381.7832 140.92969 L 375.6582 139.76758 L 371.86133 126.43359 L 367.59766 103.41016 L 361.9375 81.626953 L 354.26367 62.558594 C 354.26367 62.558594 345.03886 50.774588 344.26367 49.921875 C 343.48847 49.069161 338.29492 47.441406 338.29492 47.441406 L 321.86133 45.658203 L 294.10938 42.558594 L 270.77539 40.386719 L 239.61328 38.294922 L 220.77539 38.0625 z M 389.43555 185.23828 L 391.24414 185.52734 L 394.06641 194.79102 L 389.29102 212.58984 L 376.04883 226.91797 L 358.32031 238.27734 L 339.29102 246.81641 L 307.30859 258.10352 L 277.85742 265.55664 L 255.57227 269.10352 L 229.8125 271.20117 L 200.72266 270.25977 L 178.00195 267.43945 L 168.74023 264.54492 L 144.57227 256.29492 L 130.75195 247.75781 L 120.47852 238.27734 L 113.67578 229.30469 L 112.95312 224.16797 L 114.61719 217.80078 L 117.65625 215.33984 L 124.89062 229.88477 L 130.96875 234.58789 L 141.46094 242.83594 L 164.68945 251.30273 L 190.30469 257.30859 L 219.75391 258.90039 L 243.70508 257.88672 L 253.83594 257.0918 L 294.13867 249.49414 L 333.14062 235.81836 L 343.19922 231.62109 L 369.53711 216.28125 L 383.35742 203.47266 L 388.42188 190.95508 L 389.43555 185.23828 z " />
    <path
       id="path1"
       style="baseline-shift:baseline;display:inline;overflow:visible;vector-effect:none;fill:#000000;stroke-linecap:round;paint-order:markers fill stroke;enable-background:accumulate;stop-color:#000000;stop-opacity:1;opacity:1"
       d="M 237.24805 36.169922 C 230.31462 36.049337 223.27367 36.288055 216.30664 37.449219 C 209.3396 38.610383 202.52402 40.664649 197.44336 43.236328 C 192.36269 45.80801 189.04762 48.97045 186.625 52.859375 C 184.20238 56.748304 182.63996 61.246981 180.88086 65.351562 C 179.12176 69.456142 177.12804 73.314003 175.13086 76.28125 C 173.13368 79.248495 171.06583 81.432953 168.95312 83.787109 C 166.84042 86.141267 164.70665 88.633847 163.09375 91.601562 C 161.48085 94.569288 160.51703 97.744588 159.10156 101.57812 C 157.68611 105.41166 155.78012 110.05979 153.98828 114.41992 C 153.69435 115.13515 153.40371 115.84125 153.10938 116.55078 C 145.25341 117.36051 137.27684 118.21075 127.72656 120.07422 C 117.84169 122.00298 106.27668 125.01235 95.203125 129.42969 C 84.129573 133.84702 73.594837 139.65622 64.310547 146.69531 C 55.026259 153.7344 46.987116 162.01965 39.832031 172.50977 C 32.676949 182.99988 26.388804 195.69202 22.445312 208.91797 C 18.501822 222.14391 16.931585 235.81766 17.113281 248.41406 C 17.294978 261.01046 19.234095 272.56014 22.892578 282.92578 C 26.55106 293.29142 31.936592 302.46653 39.292969 311.09961 C 46.649343 319.73268 55.946182 327.81447 65.132812 334.3418 C 74.319441 340.86912 83.45599 345.86407 94.886719 350.09766 C 106.31744 354.33124 120.04398 357.82164 133.97852 359.75195 C 147.91305 361.68226 162.02858 362.04164 177.48633 360.95898 C 192.94408 359.87633 209.74661 357.35658 224.95898 353.86914 C 240.17136 350.38171 253.79516 345.91943 268.3418 339.66797 C 282.88843 333.41651 298.35721 325.38123 313.57812 316.57227 C 328.79904 307.7633 343.78672 298.17111 358.53711 287.49805 C 373.2875 276.82499 387.76152 265.09997 402.77344 253.14844 C 417.78381 241.19813 436.47458 226.55957 445.64062 219.14453 C 454.80669 211.72949 463.51931 204.20106 467.89258 200.2207 C 472.0521 196.4349 473.61727 194.69106 474.96484 193.14453 A 1.82362 1.82362 0 0 0 475.30664 192.79492 C 479.04478 187.76909 483.11985 182.52519 483.28711 176.38086 C 483.45437 170.23656 479.33868 163.93359 469.82227 159.3418 C 460.30586 154.75 445.47368 151.60285 433.10742 148.73438 C 420.74117 145.86592 410.76335 143.30638 401.47266 141.62891 C 392.68327 140.04194 384.6096 139.26698 376.62695 138.53906 C 374.98027 130.56825 373.28018 121.93301 371.43555 113.35547 C 369.04023 102.21718 366.40179 91.173006 363.14453 81.099609 C 359.88728 71.026213 356.05686 61.98953 352.30859 56.179688 C 348.56032 50.369841 344.75171 47.858646 341.05469 46.392578 C 337.35766 44.926508 333.54013 44.30254 328.60742 43.998047 C 323.67471 43.693555 317.61547 43.693726 311.75195 43.166016 C 305.88843 42.638304 300.07074 41.571343 294.35156 40.728516 C 288.63239 39.885687 283.0979 39.283692 277.04297 38.744141 C 270.98802 38.204591 264.40897 37.728012 257.7168 37.25 C 251.02464 36.771988 244.18147 36.290508 237.24805 36.169922 z M 237.18555 39.816406 C 243.9918 39.93478 250.76795 40.408927 257.45703 40.886719 C 264.14612 41.364511 270.70863 41.843176 276.7207 42.378906 C 282.73277 42.914637 288.18931 43.508056 293.82031 44.337891 C 299.45132 45.167725 305.34174 46.25127 311.42578 46.798828 C 317.50982 47.346385 323.63803 47.34578 328.38281 47.638672 C 329.16703 47.687081 329.91314 47.743093 330.62695 47.808594 C 321.24455 50.396524 311.98794 52.962323 303.38281 55.414062 C 292.67863 58.463861 282.94736 61.346561 272.24609 65.314453 C 261.54483 69.282344 249.92223 74.315472 239.85352 78.990234 C 229.7848 83.664997 221.29593 87.968455 214.02148 91.162109 C 206.74703 94.355764 200.60328 96.482041 196.05273 97.900391 C 191.50219 99.31874 188.92943 99.873825 186.58203 99.203125 C 185.40832 98.867773 184.48473 98.242062 184.18555 97.603516 C 183.88636 96.964969 183.78639 95.866893 185.37891 93.556641 C 188.56396 88.936114 198.58528 80.798374 208.36328 76.240234 C 218.14128 71.682097 228.02468 70.327465 238.13281 68.958984 A 1.82362 1.82362 0 0 0 239.69531 66.908203 A 1.82362 1.82362 0 0 0 237.64258 65.345703 C 227.53445 66.714184 217.20086 68.09548 206.82227 72.933594 C 196.44368 77.771705 186.37082 85.689623 182.375 91.486328 C 180.37708 94.384692 179.91415 97.084933 180.88281 99.152344 C 181.85147 101.21975 183.82664 102.20799 185.58008 102.70898 C 189.08697 103.71097 192.48768 102.83186 197.13672 101.38281 C 201.78575 99.933768 208.06726 97.759955 215.48828 94.501953 C 222.9093 91.24395 231.38552 86.94315 241.38867 82.298828 C 251.39182 77.654507 262.94828 72.651886 273.51367 68.734375 C 284.07906 64.816864 293.7009 61.965326 304.38281 58.921875 C 315.06472 55.878424 326.76808 52.65354 338.47656 49.427734 A 1.82362 1.82362 0 0 0 338.62305 49.380859 C 338.98815 49.506674 339.35055 49.640288 339.71094 49.783203 C 342.9435 51.065089 345.82387 52.854805 349.24414 58.15625 C 352.66441 63.457699 356.47942 72.343623 359.67383 82.222656 C 362.86824 92.101692 365.48741 103.03887 367.87109 114.12305 C 369.7881 123.0371 371.55421 132.04327 373.27539 140.33398 A 1.82362 1.82362 0 0 0 373.38477 140.86133 C 373.76678 142.69655 374.14633 144.49594 374.52539 146.25 C 376.64679 156.06659 378.73221 164.42928 380.81055 172.76758 A 1.82362 1.82362 0 0 0 380.98828 173.2168 A 1.82362 1.82362 0 0 0 381.24219 173.80859 C 382.2639 175.34116 383.19605 176.73303 384.42578 179.37695 C 385.65551 182.02087 387.05078 185.73408 386.9375 189.47266 C 386.82422 193.21122 385.22999 197.33091 381.86328 201.92188 C 378.49658 206.51286 373.48403 211.43849 362.67969 218.38867 C 351.87535 225.33885 335.38697 234.21906 315.11523 241.1875 C 294.8435 248.15594 270.67065 253.24862 249.72852 255.66016 C 228.78638 258.0717 211.04938 257.81442 195.72461 256.16797 C 180.39984 254.52152 167.54292 251.4912 156.1582 247.02539 C 144.77349 242.55959 134.83346 236.60576 129.04688 231.00195 C 123.26032 225.39815 121.38522 220.07916 119.3418 214.33203 A 1.82362 1.82362 0 0 0 119.32422 214.2832 C 119.74499 213.44798 120.20566 212.46176 120.70898 211.29102 C 122.99351 205.97715 126.34186 196.63883 129.16992 186.95117 C 131.99799 177.26353 134.25957 167.40347 137.96484 157.69922 C 141.67011 147.99497 146.88968 138.25579 150.37695 131.28125 C 153.86422 124.30671 155.5689 120.16822 157.36133 115.80664 C 159.15377 111.44506 161.07149 106.77416 162.52344 102.8418 C 163.97539 98.909438 164.92289 95.871892 166.29688 93.34375 C 167.67088 90.815602 169.59902 88.529998 171.66797 86.224609 C 173.73691 83.919218 175.97179 81.563858 178.15625 78.318359 C 180.34071 75.072865 182.40726 71.04582 184.23242 66.787109 C 186.05758 62.528401 187.60325 58.186169 189.7207 54.787109 C 191.83816 51.388044 194.4949 48.817043 199.0918 46.490234 C 203.68869 44.163423 210.25307 42.155729 216.90625 41.046875 C 223.55942 39.938021 230.37929 39.698033 237.18555 39.816406 z M 151.48047 120.38672 C 150.35361 122.96169 149.00618 125.86851 147.11523 129.65039 C 143.67295 136.53495 138.37835 146.38923 134.55664 156.39844 C 130.73493 166.40765 128.45524 176.37982 125.66797 185.92773 C 122.88069 195.47566 119.53878 204.77573 117.35742 209.84961 C 115.17606 214.9235 114.35644 215.55733 113.40234 216.83789 C 112.44824 218.11845 111.85791 219.42604 111.4375 220.60156 C 111.0171 221.77708 110.74762 222.86501 110.49219 223.88672 A 1.82362 1.82362 0 0 0 110.46094 224.05469 A 1.82362 1.82362 0 0 0 110.44727 225.5293 C 113.17633 231.82086 116.12471 238.54964 124.16016 245.25391 C 132.19558 251.95816 145.06783 258.61778 157.87695 263.21094 C 170.68608 267.80408 183.37034 270.25858 197.95703 271.80078 C 212.54373 273.34297 229.14174 273.98868 246.97852 272.31445 C 264.81529 270.64022 283.80606 266.65792 301.57422 261.71875 C 319.34237 256.77957 335.89011 250.88201 348.7832 244.95117 C 361.67629 239.02033 370.88119 233.06751 377.41016 227.64844 C 383.93913 222.22938 387.79565 217.32574 390.31641 213.21289 C 392.83717 209.10006 394.10863 205.58932 394.71484 201.61523 C 395.32105 197.64114 395.32612 193.20659 394.8457 189.84375 C 394.36529 186.48092 393.30576 184.1803 391.86719 181.99609 C 390.42861 179.8119 388.57813 177.58237 386.76172 175.38281 A 1.82362 1.82362 0 0 0 386.26172 174.96094 C 385.57731 173.74808 384.94892 172.79496 384.35156 171.89844 A 1.82362 1.82362 0 0 0 384.34766 171.88477 C 382.26932 163.54646 380.19738 155.23292 378.08984 145.48047 C 377.86235 144.42776 377.63502 143.35869 377.40625 142.27344 C 385.00596 142.97139 392.61659 143.73452 400.82617 145.2168 C 409.92645 146.85989 419.87276 149.4084 432.2832 152.28711 C 444.69365 155.16582 459.48934 158.40446 468.23633 162.625 C 476.9833 166.84553 479.76316 171.78021 479.64062 176.28125 C 479.52016 180.7066 476.22975 185.42912 472.56641 190.36328 A 1.82362 1.82362 0 0 0 472.41211 190.52148 C 471.01429 192.12891 469.72698 193.61935 465.4375 197.52344 C 461.15564 201.42059 452.45185 208.94201 443.3457 216.30859 C 434.23955 223.67517 415.53086 238.32986 400.50195 250.29492 C 385.47459 262.25875 371.03902 273.95132 356.39844 284.54492 C 341.75786 295.13852 326.87586 304.66206 311.75 313.41602 C 296.62414 322.16997 281.2688 330.14238 266.90234 336.31641 C 252.53589 342.49043 239.15943 346.87034 224.14453 350.3125 C 209.12964 353.75466 192.4799 356.25238 177.23242 357.32031 C 161.98494 358.38824 148.14478 358.03155 134.48047 356.13867 C 120.81616 354.2458 107.30254 350.80742 96.152344 346.67773 C 85.002155 342.54805 76.21779 337.74514 67.244141 331.36914 C 58.270493 324.99314 49.168559 317.06682 42.068359 308.73438 C 34.968162 300.40195 29.842114 291.65611 26.332031 281.71094 C 22.82195 271.76577 20.93653 260.61581 20.759766 248.36133 C 20.583001 236.10685 22.119036 222.77871 25.941406 209.95898 C 29.763775 197.13926 35.900737 184.74365 42.84375 174.56445 C 49.786761 164.38526 57.518234 156.42165 66.513672 149.60156 C 75.509107 142.78147 85.764229 137.12081 96.554688 132.81641 C 107.34514 128.512 118.71664 125.54877 128.42578 123.6543 C 137.00792 121.97972 144.29395 121.13737 151.48047 120.38672 z M 390.51172 187.25 C 390.82252 188.12838 391.05717 189.11894 391.23438 190.35938 C 391.64799 193.25457 391.65259 197.50528 391.10938 201.06641 C 390.56615 204.62752 389.53942 207.50115 387.20703 211.30664 C 384.87465 215.11213 381.32258 219.66051 375.08008 224.8418 C 368.83759 230.02309 359.90769 235.81971 347.25781 241.63867 C 334.60793 247.45763 318.20659 253.31016 300.59766 258.20508 C 282.98872 263.09999 264.17708 267.03523 246.63672 268.68164 C 229.09636 270.32805 212.74454 269.69678 198.33984 268.17383 C 183.93515 266.65087 171.58785 264.25192 159.10938 259.77734 C 146.63091 255.30276 133.96137 248.68168 126.49609 242.45312 C 119.26828 236.42269 116.68649 230.74307 114.05273 224.67773 C 114.29951 223.69146 114.53588 222.76548 114.87109 221.82812 C 115.21699 220.86095 115.64878 219.92675 116.32617 219.01758 C 116.47773 218.81416 116.66719 218.58019 116.89453 218.28125 C 118.74489 223.23213 121.15701 228.43741 126.50977 233.62109 C 132.85621 239.76708 143.0944 245.81798 154.82617 250.41992 C 166.55794 255.02186 179.75358 258.1208 195.33594 259.79492 C 210.91829 261.46904 228.94059 261.72489 250.14453 259.2832 C 271.34847 256.84151 295.70567 251.71699 316.30273 244.63672 C 336.89979 237.55645 353.6175 228.55549 364.65234 221.45703 C 375.68719 214.35858 381.14709 209.06773 384.80469 204.08008 C 388.46228 199.09243 390.44186 194.27267 390.58398 189.58203 C 390.608 188.78961 390.5807 188.01053 390.51172 187.25 z " />
  </g>
</svg>
