<?xml version="1.0" encoding="UTF-8" standalone="no"?>
<!-- Created with Inkscape (http://www.inkscape.org/) -->

<svg
   version="1.1"
   id="svg1"
   width="887.85297"
   height="1310.385"
   viewBox="0 0 887.85297 1310.385"
   sodipodi:docname="3.svg"
   inkscape:version="1.4.2 (ebf0e940d0, 2025-05-08)"
   xmlns:inkscape="http://www.inkscape.org/namespaces/inkscape"
   xmlns:sodipodi="http://sodipodi.sourceforge.net/DTD/sodipodi-0.dtd"
   xmlns="http://www.w3.org/2000/svg"
   xmlns:svg="http://www.w3.org/2000/svg">
  <defs
     id="defs1">
    <inkscape:path-effect
       effect="bspline"
       id="path-effect35"
       is_visible="true"
       lpeversion="1.3"
       weight="33.333333"
       steps="2"
       helper_size="0"
       apply_no_weight="true"
       apply_with_weight="true"
       only_selected="false"
       uniform="false" />
    <inkscape:path-effect
       effect="bspline"
       id="path-effect34"
       is_visible="true"
       lpeversion="1.3"
       weight="33.333333"
       steps="2"
       helper_size="0"
       apply_no_weight="true"
       apply_with_weight="true"
       only_selected="false"
       uniform="false" />
    <inkscape:path-effect
       effect="bspline"
       id="path-effect33"
       is_visible="true"
       lpeversion="1.3"
       weight="33.333333"
       steps="2"
       helper_size="0"
       apply_no_weight="true"
       apply_with_weight="true"
       only_selected="false"
       uniform="false" />
  </defs>
  <sodipodi:namedview
     id="namedview1"
     pagecolor="#ffffff"
     bordercolor="#000000"
     borderopacity="0.25"
     inkscape:showpageshadow="2"
     inkscape:pageopacity="0.0"
     inkscape:pagecheckerboard="0"
     inkscape:deskcolor="#d1d1d1"
     showgrid="false"
     inkscape:zoom="0.3"
     inkscape:cx="198.33333"
     inkscape:cy="166.66667"
     inkscape:window-width="1920"
     inkscape:window-height="1011"
     inkscape:window-x="0"
     inkscape:window-y="0"
     inkscape:window-maximized="1"
     inkscape:current-layer="g1" />
  <g
     inkscape:groupmode="layer"
     inkscape:label="Layer 1"
     id="g1"
     transform="translate(-1.3692597,-1.6149646)">
    <path
       id="path7"
       style="display:inline;opacity:0.99;fill:#008000;stroke-width:9.01192;stroke-linecap:round;paint-order:markers fill stroke"
       d="m 818.04883,719.8125 v 75.3125 h -78.97656 v -74.60938 h -72.78321 v 76.22071 h -80.72265 v -76.42774 h -72.88672 v 76.42774 h -80.3086 V 720.30859 H 359.2793 v 76.42774 h -80.10352 v -76.22071 h -74.64062 v 76.22071 H 124.43359 V 720.61914 H 79.380859 v 76.11719 H 79.246094 V 949.87891 H 864.11328 V 796.73633 h -0.10937 V 719.8125 Z" />
    <path
       id="path6"
       style="display:inline;opacity:0.99;fill:#2a7fff;stroke-width:30.879;stroke-linecap:round;paint-order:markers fill stroke"
       d="M 81.148438,170.08203 V 719.24414 H 125.10938 V 795.5 h 78.51953 v -76.25586 h 76.34179 v 77.12695 h 78.375 v -77.12695 h 75.03516 v 76.83789 h 78.51953 v -76.83789 h 74.16602 v 77.12695 h 79.24609 v -77.12695 h 74.74609 v 74.51563 h 77.35743 v -74.51563 h 45.9746 V 170.08203 Z" />
    <path
       id="path5"
       style="opacity:0.99;fill:#2a7fff;stroke-width:3.61024;stroke-linecap:round;paint-order:markers fill stroke"
       d="m 307.21484,100.25391 v 66.96093 h 74.6836 v -66.96093 z m 256.20313,0.125 v 66.70898 h 74.55664 v -66.70898 z m -482.554689,0.12695 v 67.80664 h 73.109379 v -67.80664 z m 708.882809,0.25391 v 66.20312 h 73.41797 v -66.20312 z m -777.634762,67.5625 v 75.77734 h 66.771484 v -75.77734 z m -0.621094,218.01367 v 76.08594 h 66.771485 v -76.08594 z m -0.259765,263.21875 v 76.82617 h 67.201172 v -76.82617 z m 1.78125,225.66797 v 73.26172 h 65.0625 v -73.26172 z" />
    <path
       id="path4"
       style="opacity:0.99;fill:#a0892c;stroke-width:3.625;stroke-linecap:round;paint-order:markers fill stroke"
       d="m 31.914062,104.46484 c -1.327838,-0.0687 -2.884808,0.6168 -3.708984,1.66993 -0.824176,1.05312 -0.916663,2.4739 -0.779297,3.5957 0.137366,1.1218 0.504039,1.94523 1.167969,2.51758 0.66393,0.57235 1.625697,0.89323 2.724609,0.75586 1.098913,-0.13737 2.334567,-0.73192 3.181641,-1.53321 0.847074,-0.80129 1.304914,-1.80885 1.396484,-2.72461 0.09157,-0.91576 -0.182318,-1.74027 -0.86914,-2.56445 -0.686823,-0.82418 -1.785443,-1.64811 -3.113282,-1.7168 z m -0.152343,27.01368 c -0.468964,-0.002 -0.888543,0.19451 -1.541016,0.57226 -0.869964,0.50367 -2.152265,1.32795 -2.724609,2.47266 -0.572344,1.1447 -0.434989,2.60985 0,3.61718 0.434989,1.00734 1.16649,1.55633 2.173828,1.625 1.007338,0.0687 2.288894,-0.34312 3.433594,-0.89257 1.144699,-0.54946 2.153013,-1.2354 2.427734,-2.26563 0.274721,-1.03023 -0.182861,-2.40369 -0.892578,-3.36523 -0.709717,-0.96155 -1.671149,-1.51217 -2.38086,-1.69531 -0.177427,-0.0458 -0.339772,-0.0676 -0.496093,-0.0684 z" />
    <path
       id="path3"
       style="opacity:0.99;fill:#ffcc00;stroke-width:3.625;stroke-linecap:round;paint-order:markers fill stroke"
       d="M 32.818359,2.8125 A 30.486969,29.45816 0 0 0 2.3320312,32.269531 30.486969,29.45816 0 0 0 32.818359,61.728516 30.486969,29.45816 0 0 0 63.306641,32.269531 30.486969,29.45816 0 0 0 32.818359,2.8125 Z M 14.753906,93.443359 V 151.23047 H 51.433594 V 93.443359 Z m 17.160156,11.021481 c 1.327839,0.0687 2.426459,0.89262 3.113282,1.7168 0.686822,0.82418 0.96071,1.64869 0.86914,2.56445 -0.09157,0.91576 -0.54941,1.92332 -1.396484,2.72461 -0.847074,0.80129 -2.082728,1.39584 -3.181641,1.53321 -1.098912,0.13737 -2.060679,-0.18351 -2.724609,-0.75586 -0.66393,-0.57235 -1.030603,-1.39578 -1.167969,-2.51758 -0.137366,-1.1218 -0.04488,-2.54258 0.779297,-3.5957 0.824176,-1.05313 2.381147,-1.73863 3.708984,-1.66993 z m -0.152343,27.01368 c 0.156321,8e-4 0.318666,0.0225 0.496093,0.0684 0.709711,0.18314 1.671143,0.73376 2.38086,1.69531 0.709717,0.96154 1.167299,2.335 0.892578,3.36523 -0.274721,1.03023 -1.283035,1.71617 -2.427734,2.26563 -1.1447,0.54945 -2.426256,0.96128 -3.433594,0.89257 -1.007338,-0.0687 -1.738839,-0.61766 -2.173828,-1.625 -0.434989,-1.00733 -0.572344,-2.47248 0,-3.61718 0.572344,-1.14471 1.854645,-1.96899 2.724609,-2.47266 0.652473,-0.37775 1.072052,-0.57426 1.541016,-0.57226 z" />
    <path
       id="path2"
       style="display:inline;opacity:0.99;fill:#784421;stroke-width:12.5545;stroke-linecap:round;paint-order:markers fill stroke"
       d="M 15.119141,61.001953 V 93.847656 H 51.720703 V 61.001953 Z M 383.12109,103.99219 v 36.66211 h 178.94727 v -36.66211 z m 486.70899,0.61328 c -2.4331,0.0174 -3.85932,0.15556 -4.53711,6.23828 -0.67779,6.08272 -0.60736,18.10924 -0.25977,24.07031 0.3476,5.96107 0.97352,5.85703 3.44141,5.82227 2.46789,-0.0348 6.77734,7.3e-4 9.67969,-0.27735 2.90234,-0.27807 4.39692,-0.86907 5.63086,-2.57226 1.23393,-1.70319 2.20697,-4.51879 2.88476,-7.69922 0.6778,-3.18043 1.06029,-6.72609 0.69531,-10.27148 -0.36497,-3.5454 -1.47802,-7.08938 -2.97265,-9.60938 -1.49463,-2.52 -3.37024,-4.01501 -6.0293,-4.81445 -2.65905,-0.79945 -6.1001,-0.9041 -8.5332,-0.88672 z m -230.62891,0.11328 v 34.48242 h 148.63867 v -34.48242 z m -586.207029,0.18164 v 35.57227 h 26.316406 v -35.57227 z m 102.359379,0 v 35.93359 H 306.35156 V 104.90039 Z M 15.425781,150.27148 v 18.875 h 36.117188 v -18.875 z m -0.361328,94.19336 V 384.93555 H 51.361328 V 244.46484 Z M 14.519531,462.25 V 648.63867 H 51.724609 V 462.25 Z m 1.69336,265.57617 V 873.00781 H 52.173828 V 727.82617 Z m 0.03125,222.08985 v 359.68358 h 35.58789 V 949.91602 Z" />
    <path
       style="fill:#000000"
       d="m 14.666667,1131.3333 c 0,-159.70367 -0.232062,-180.66663 -2,-180.66663 -3.016323,0 -3.016323,-76.65803 0,-77.81551 1.743373,-0.66899 2,-9.9419 2,-72.26747 0,-70.37867 -0.04182,-71.51095 -2.666667,-72.19736 C 9.4083812,727.70861 9.3333335,726.56764 9.3333335,687.84449 9.3333335,653.31605 9.6001737,648 11.333334,648 c 1.758454,0 2,-11.11111 2,-92 0,-80.88889 -0.241546,-92 -2,-92 -1.7333338,0 -2.0000005,-5.33333 -2.0000005,-40 0,-34.66667 0.2666667,-40 2.0000005,-40 1.752136,0 2,-8.59259 2,-69.33333 0,-60.74074 -0.247864,-69.33334 -2,-69.33334 -1.7325805,0 -2.0000005,-5.25926 -2.0000005,-39.33333 0,-34.07407 0.26742,-39.33333 2.0000005,-39.33333 1.745118,0 2,-6.93714 2,-54.43425 V 57.798171 L 10.06731,54.729901 C -0.68318554,44.630335 -1.6190271,24.745391 8.1015618,12.961304 15.810016,3.6164894 28.549752,-0.40006739 41.004419,2.587761 c 19.135549,4.5905475 29.629449,27.858115 19.985877,44.313625 -1.926796,3.28783 -4.437847,6.753506 -5.580114,7.701503 -1.734441,1.439458 -2.076847,5.543643 -2.076847,24.893704 v 23.170077 h 11.37518 c 8.881283,0 11.54344,-0.43848 12.142652,-2 1.157689,-3.016894 79.148833,-3.016894 79.148833,0 0,1.75396 9.18519,2 74.66667,2 65.48148,0 74.66667,-0.24604 74.66667,-2 0,-1.732583 5.25926,-2.000003 39.33333,-2.000003 34.07408,0 39.33334,0.26742 39.33334,2.000003 0,1.75772 10.74074,2 88.66667,2 77.92593,0 88.66667,-0.24228 88.66667,-2 0,-1.732583 5.25926,-2.000003 39.33333,-2.000003 34.07408,0 39.33333,0.26742 39.33333,2.000003 0,1.75332 8.96762,2 72.70852,2 63.3998,0 72.80677,-0.25606 73.47599,-2 1.10382,-2.876515 79.14883,-3.034534 79.14883,-0.16026 0,1.29689 2.37799,2.01176 8.05905,2.42269 6.5172,0.47141 8.74434,1.26823 11.64099,4.16488 3.12383,3.12382 3.64672,4.86472 4.08843,13.6118 0.83335,16.50276 -3.40562,21.96089 -17.05559,21.96089 h -6.73288 V 546.6645 950.66234 L 459.66668,950.99784 54.000001,951.33333 53.661872,1131.6667 53.323744,1312 H 33.995205 14.666667 Z m 34.683583,0.3334 c -0.0039,-97.35 -0.0093,-177.61907 -0.01198,-178.37568 -0.0032,-0.88837 -5.554323,-1.24259 -15.671606,-1 L 18,952.66667 17.657169,1129.3333 c -0.188557,97.1667 -0.05004,177.4358 0.307809,178.3759 0.488996,1.2846 4.469347,1.6158 16.021476,1.3333 l 15.370836,-0.3758 z M 862.66669,834 V 720 h -22 -22 v 38 38 h -40.00001 -40 v -37.33333 -37.33334 h -36 -36 v 38 38 h -40.66667 -40.66666 v -38 -38 h -36 -36 v 38 38 h -40.66667 -40.66667 v -38 -38 h -36 -36 v 38 38 h -40.66667 -40.66667 v -38 -38 h -36.66666 -36.66667 v 38 38 H 164.66667 124 v -38 -38 H 102 80.000002 V 834.66667 948 H 471.33334 862.66669 Z M 75.689178,911.66667 76.045022,877.33333 H 45.355844 14.666667 v 34.6917 34.6917 L 45.000001,946.35837 75.333335,946 Z m 1.644157,-111 V 728 h -12 -12 v 72.66667 72.66666 h 12 12 z m -27.777778,70.00411 c 0.244444,-0.73108 0.144444,-32.98108 -0.222223,-71.66667 L 48.666668,728.66667 H 33.333334 18 L 17.655084,800.33333 17.310168,872 H 33.21064 c 9.381438,0 16.08269,-0.54497 16.344917,-1.32922 z M 201.44266,761.66667 c 0.0601,-18.15 0.13095,-35.51574 0.15739,-38.59053 l 0.0481,-5.59053 37.64206,-0.11125 c 20.70313,-0.0612 38.6323,0.26874 39.8426,0.73318 1.97368,0.75737 2.20055,4.7474 2.20055,38.70178 v 37.85735 h 37.33333 37.33334 v -36.08766 c 0,-22.63799 0.5214,-37.0619 1.399,-38.70172 1.34213,-2.50779 2.96199,-2.60959 39.84262,-2.50395 l 38.44362,0.11012 0.0481,5.5916 c 0.0264,3.07539 0.0972,20.44161 0.15738,38.59161 l 0.10932,33 h 37.31289 37.31288 L 510.97956,756.33333 511.33335,718 h 38 38 l 0.35378,38.33333 0.35378,38.33334 h 37.31288 37.31289 v -36.57143 c 0,-31.46898 0.29233,-36.86376 2.09524,-38.66667 1.80074,-1.80074 7.12843,-2.09524 37.90476,-2.09524 30.77634,0 36.10402,0.2945 37.90477,2.09524 1.79905,1.79906 2.09523,7.07648 2.09523,37.33333 V 792 h 36 36.00001 v -35.22428 c 0,-19.37336 0.36419,-36.17336 0.80931,-37.33334 0.69507,-1.81131 4.08312,-2.10905 24,-2.10905 h 23.19069 V 444 170.66667 H 472.00727 81.347846 L 81.007257,409 c -0.187323,131.08333 -0.04059,253.93333 0.326078,273 L 82.000002,716.66667 104,717.33333 126,718 l 0.35378,38.33333 0.35378,38.33334 h 37.31289 37.31289 z M 76.000002,688 V 650.66667 H 44.000001 12 V 688 725.33333 h 32.000001 32.000001 z m -27.43005,-41.17684 c 0.400031,-0.64727 0.752832,-41.89727 0.784002,-91.66667 l 0.05667,-90.48982 -15.888122,-0.37317 -15.888122,-0.37316 -0.483858,4.37316 c -0.266122,2.40524 -0.325323,43.82317 -0.131558,92.03983 L 17.371267,648 h 15.235678 c 8.379623,0 15.562976,-0.52958 15.963007,-1.17684 z M 77.333335,556 v -92 h -12 -12 v 92 92 h 12 12 z m -1.645575,-132.33333 0.354425,-37 H 44.830411 c -27.231068,0 -31.314993,0.26898 -32.021092,2.10905 C 12.364194,389.93569 12,406.01569 12,424.50905 c 0,24.65376 0.433339,34.05762 1.624288,35.24857 1.202754,1.20276 9.420859,1.53148 31.666668,1.26667 l 30.042379,-0.35762 z M 48.651471,382.69126 c 1.293539,-2.09299 0.93408,-134.97238 -0.368645,-136.2751 -0.647621,-0.64762 -7.726193,-1.00619 -15.730159,-0.79683 L 18,246 17.333334,312.77399 c -0.366667,36.7257 -0.472672,67.7757 -0.235568,69 0.372473,1.92329 2.49229,2.22601 15.587978,2.22601 8.47648,0 15.513378,-0.57683 15.965727,-1.30874 z m 28.681864,-68.02459 v -69.33334 h -12 -12 V 314.66667 384 h 12 12 z m -1.333333,-108 v -36 H 44.000001 12 v 36 36 H 44.000001 76.000002 Z M 77.333335,154 v -12.66667 h -12 -12 V 154 166.66667 h 12 12 z m 228.000005,0.66667 v -12 H 230.66667 156 v 12 12 h 74.66667 74.66667 z m 256.00001,0 v -12 h -88.66667 -88.66667 v 12 12 h 88.66667 88.66667 z m 225.33333,0 v -12 h -73.33333 -73.33334 v 12 12 h 73.33334 73.33333 z m -736.918584,4 5.83e-4,-6 -13.874339,-0.38878 c -19.102965,-0.53529 -19.346142,-0.44398 -18.750868,7.04062 l 0.484731,6.09469 16.069654,-0.37326 16.069655,-0.37327 z M 153.33334,133.31156 V 101.28978 L 117.66667,101.64489 82.000002,102 l -0.357465,31.66667 -0.357465,31.66666 h 36.024128 36.02414 z m 226.8639,20.02177 c 0.002,-6.23333 -0.0412,-20.48333 -0.0966,-31.66666 l -0.10068,-20.33334 h -36 -36 v 32.02143 32.02143 l 36.09654,-0.35476 36.09655,-0.35476 z m 255.91389,11.44662 c 0.30555,-0.30436 0.38441,-14.70436 0.17524,-32 l -0.38031,-31.44662 h -35.95302 -35.95303 v 32 32 h 35.77778 c 19.67778,0 36.02778,-0.24902 36.33334,-0.55338 z m 226.55556,-31.44662 v -32 h -35.95303 -35.95302 l -0.38031,31.44662 c -0.20917,17.29564 -0.13031,31.69564 0.17524,32 0.30556,0.30436 16.65556,0.55338 36.33334,0.55338 h 35.77778 z M 49.399713,146.54264 c 0.782577,-1.46226 1.178151,-12.45821 0.96382,-26.79176 L 50.000001,95.439299 37.487242,94.938255 c -6.882017,-0.275574 -14.50411,-0.127463 -16.937985,0.329134 l -4.425226,0.830177 v 25.577524 c 0,18.46225 0.44639,25.87064 1.604652,26.6312 0.882558,0.57952 8.070932,0.97782 15.974164,0.8851 12.542799,-0.14714 14.538252,-0.48386 15.696866,-2.64875 z m -24.064257,-11.1999 c -0.472518,-4.25913 1.09243,-3.13019 3.331213,-4.65287 4.046225,-1.48159 8.332955,1.09859 8.96356,5.39518 0.582914,3.97164 -11.092512,10.09449 -12.294773,-0.74231 z m 8.998267,0.99129 c 0.729016,-2.1895 -3.448637,-3.75245 -5.240503,-1.96058 -0.76681,0.76681 -0.970537,2.0797 -0.452728,2.91753 1.17807,1.90616 4.951093,1.27197 5.693231,-0.95695 z m -6.912219,-22.90327 c -3.841706,-4.24504 -1.970203,-11.07109 3.138556,-11.44746 2.726152,0.24936 5.235124,2.08645 6.367697,4.69014 1.225618,3.24704 1.049817,4.20355 -1.136193,6.18186 -3.497346,3.16505 -5.878363,3.32875 -8.37006,0.57546 z m 6.504133,-2.64377 c 1.130416,-1.82905 -0.634989,-5.45366 -2.656265,-5.45366 -2.342419,0 -3.691524,2.31005 -2.762702,4.73052 0.825562,2.15138 4.253547,2.60883 5.418967,0.72314 z M 303.73334,138.4 c 1.94174,-1.94174 2.2346,-29.23168 0.3341,-31.13333 -0.78506,-0.78554 -29.01972,-1.01344 -74.33333,-0.6 l -73.06744,0.66666 V 122.66667 138 l 72,0.68407 c 39.6,0.37623 72.33,0.82623 72.73334,1 0.40333,0.17376 1.45333,-0.40407 2.33333,-1.28407 z m 256.33169,-0.44018 c 1.65501,-1.02285 1.65566,-29.56305 6.9e-4,-30.58587 -1.37762,-0.85142 -173.5495,-1.00127 -174.39898,-0.15179 -1.16469,1.16468 -0.45785,29.0213 0.77405,30.50545 1.01861,1.22721 21.4904,1.53622 86.84436,1.3109 47.03136,-0.16216 86.0823,-0.64757 86.77988,-1.07869 z m 322.39415,0.0255 c 1.64925,-1.64924 4.16893,-11.0402 4.18743,-15.60671 0.0262,-6.47425 -3.76223,-14.27313 -7.37378,-15.17957 -1.57319,-0.39484 -5.20314,-0.52615 -8.06657,-0.29178 l -5.20624,0.42611 -0.37987,14.47398 c -0.22022,8.39104 0.18673,15.15668 0.96831,16.09844 1.30334,1.57042 14.31462,1.63563 15.87072,0.0795 z M 76.000002,123.63663 c 0.366666,-7.89985 0.466666,-14.94985 0.222222,-15.66667 -0.244444,-0.71681 -5.194445,-1.30329 -11,-1.30329 -9.131528,0 -10.567063,0.31478 -10.640851,2.33333 -0.289368,7.91597 0.366051,27.70892 0.948768,28.65177 0.383137,0.61993 4.995593,0.95189 10.249903,0.73769 L 75.333335,138 Z m 709.643708,14.03004 c 0.25725,-0.55 0.23958,-7.75 -0.0393,-16 l -0.50701,-15 h -71.88204 c -56.59584,0 -71.89036,0.35442 -71.92121,1.66666 -0.10157,4.32081 -0.15349,28.44997 -0.0631,29.33334 0.13376,1.30752 143.80108,1.30752 144.41266,0 z M 49.555557,78.666667 c 0.122222,-6.6 0.272222,-13.05 0.333333,-14.333334 0.082,-1.721942 -0.762304,-2.235334 -3.222222,-1.959326 -13.128818,1.473081 -20.298323,1.560159 -22.698382,0.275686 -4.26168,-2.280781 -7.610304,-0.562732 -7.226684,3.70773 0.179969,2.003417 0.386732,8.292577 0.459474,13.97591 l 0.132258,10.333334 h 16 16 z M 59.882716,42.440411 C 64.737857,32.767216 57.329555,15.862343 52.395807,12.160426 50.344781,10.621487 47.899617,8.7162413 46.96211,7.9265463 43.699485,5.1783232 30.367118,3.5750046 26.000001,5.4056932 23.800001,6.3279297 21.319,6.9497371 20.576865,7.2079101 16.934731,8.4749319 15.501209,10.685938 13.502815,12 12.221413,12.842597 7.914731,17.676838 5.6016596,23.062737 -0.0956863,36.328794 8.4005879,59.216029 33.000001,59.748011 c 10.826936,-0.1552 21.914821,-7.778831 26.882715,-17.3076 z"
       id="path1"
       sodipodi:nodetypes="sssssssssssssssscsssssscsssssssssssssssssscccccccccsssscssscscccccccccccccccccccccccccccccccccccccccccccccccccccccccccccccccccccsscccccsssscssscccssscsscccccccccccssssscccssscccccsscccccccscccccccccsscccsscsscccccccccccsssssccssscssssccccccccccccccccccccccccccccccccccccccccccccccccccccccccssccccccccccccccsccccccccsscccccssccccsssccsscsscssssscsssssssssssssssssscccssssssssssssscsssssssssscssscsssssssssscccssssssssss" />
  </g>
</svg>
