<?xml version="1.0" encoding="UTF-8" standalone="no"?>
<!-- Created with Inkscape (http://www.inkscape.org/) -->

<svg
   version="1.1"
   id="svg1"
   width="880"
   height="880"
   viewBox="0 0 880 880"
   sodipodi:docname="pulling-rope-competition.svg"
   inkscape:version="1.3.2 (091e20e, 2023-11-25, custom)"
   xmlns:inkscape="http://www.inkscape.org/namespaces/inkscape"
   xmlns:sodipodi="http://sodipodi.sourceforge.net/DTD/sodipodi-0.dtd"
   xmlns="http://www.w3.org/2000/svg"
   xmlns:svg="http://www.w3.org/2000/svg">
  <defs
     id="defs1">
    <clipPath
       clipPathUnits="userSpaceOnUse"
       id="clipPath4">
      <path
         d="M 0,660 H 660 V 0 H 0 Z"
         transform="translate(-234.7969,-515.31691)"
         id="path4" />
    </clipPath>
    <clipPath
       clipPathUnits="userSpaceOnUse"
       id="clipPath6">
      <path
         d="M 0,660 H 660 V 0 H 0 Z"
         transform="translate(-339.25391,-76.858404)"
         id="path6" />
    </clipPath>
    <clipPath
       clipPathUnits="userSpaceOnUse"
       id="clipPath8">
      <path
         d="M 0,660 H 660 V 0 H 0 Z"
         transform="translate(-492.93751,-138.376)"
         id="path8" />
    </clipPath>
    <clipPath
       clipPathUnits="userSpaceOnUse"
       id="clipPath10">
      <path
         d="M 0,660 H 660 V 0 H 0 Z"
         transform="translate(-224.63821,-400.94921)"
         id="path10" />
    </clipPath>
    <clipPath
       clipPathUnits="userSpaceOnUse"
       id="clipPath12">
      <path
         d="M 0,660 H 660 V 0 H 0 Z"
         transform="translate(-196.8667,-452.82571)"
         id="path12" />
    </clipPath>
    <clipPath
       clipPathUnits="userSpaceOnUse"
       id="clipPath14">
      <path
         d="M 0,660 H 660 V 0 H 0 Z"
         id="path14" />
    </clipPath>
    <clipPath
       clipPathUnits="userSpaceOnUse"
       id="clipPath16">
      <path
         d="M 0,660 H 660 V 0 H 0 Z"
         transform="translate(-361.68551,-386.22361)"
         id="path16" />
    </clipPath>
    <clipPath
       clipPathUnits="userSpaceOnUse"
       id="clipPath18">
      <path
         d="M 0,660 H 660 V 0 H 0 Z"
         transform="translate(-136.43121,-123.9004)"
         id="path18" />
    </clipPath>
    <clipPath
       clipPathUnits="userSpaceOnUse"
       id="clipPath20">
      <path
         d="M 0,660 H 660 V 0 H 0 Z"
         transform="translate(-450.03321,-468.77151)"
         id="path20" />
    </clipPath>
    <clipPath
       clipPathUnits="userSpaceOnUse"
       id="clipPath22">
      <path
         d="M 0,660 H 660 V 0 H 0 Z"
         transform="translate(-430.29201,-440.33541)"
         id="path22" />
    </clipPath>
    <clipPath
       clipPathUnits="userSpaceOnUse"
       id="clipPath24">
      <path
         d="M 0,660 H 660 V 0 H 0 Z"
         transform="translate(-164.59671,-415.95951)"
         id="path24" />
    </clipPath>
    <clipPath
       clipPathUnits="userSpaceOnUse"
       id="clipPath26">
      <path
         d="M 0,660 H 660 V 0 H 0 Z"
         transform="translate(-98.450702,-305.80081)"
         id="path26" />
    </clipPath>
    <clipPath
       clipPathUnits="userSpaceOnUse"
       id="clipPath28">
      <path
         d="M 0,660 H 660 V 0 H 0 Z"
         transform="translate(-218.85211,-294.7354)"
         id="path28" />
    </clipPath>
    <clipPath
       clipPathUnits="userSpaceOnUse"
       id="clipPath30">
      <path
         d="M 0,660 H 660 V 0 H 0 Z"
         transform="translate(-205.3096,-309.10841)"
         id="path30" />
    </clipPath>
    <clipPath
       clipPathUnits="userSpaceOnUse"
       id="clipPath32">
      <path
         d="M 0,660 H 660 V 0 H 0 Z"
         transform="translate(-466.61621,-134.6328)"
         id="path32" />
    </clipPath>
    <clipPath
       clipPathUnits="userSpaceOnUse"
       id="clipPath34">
      <path
         d="M 0,660 H 660 V 0 H 0 Z"
         transform="translate(-218.07961,-103.67481)"
         id="path34" />
    </clipPath>
    <clipPath
       clipPathUnits="userSpaceOnUse"
       id="clipPath36">
      <path
         d="M 0,660 H 660 V 0 H 0 Z"
         transform="translate(-211.78611,-412.57521)"
         id="path36" />
    </clipPath>
    <clipPath
       clipPathUnits="userSpaceOnUse"
       id="clipPath38">
      <path
         d="M 0,660 H 660 V 0 H 0 Z"
         transform="translate(-233.1001,-444.53031)"
         id="path38" />
    </clipPath>
    <clipPath
       clipPathUnits="userSpaceOnUse"
       id="clipPath40">
      <path
         d="M 0,660 H 660 V 0 H 0 Z"
         transform="translate(-233.1001,-444.53031)"
         id="path40" />
    </clipPath>
    <clipPath
       clipPathUnits="userSpaceOnUse"
       id="clipPath42">
      <path
         d="M 0,660 H 660 V 0 H 0 Z"
         transform="translate(-235.75441,-458.02151)"
         id="path42" />
    </clipPath>
    <clipPath
       clipPathUnits="userSpaceOnUse"
       id="clipPath44">
      <path
         d="M 0,660 H 660 V 0 H 0 Z"
         transform="translate(-209.17381,-511.41361)"
         id="path44" />
    </clipPath>
    <clipPath
       clipPathUnits="userSpaceOnUse"
       id="clipPath46">
      <path
         d="M 0,660 H 660 V 0 H 0 Z"
         transform="translate(-189.45411,-489.79201)"
         id="path46" />
    </clipPath>
    <clipPath
       clipPathUnits="userSpaceOnUse"
       id="clipPath48">
      <path
         d="M 0,660 H 660 V 0 H 0 Z"
         transform="translate(-186.72171,-473.16111)"
         id="path48" />
    </clipPath>
    <clipPath
       clipPathUnits="userSpaceOnUse"
       id="clipPath50">
      <path
         d="M 0,660 H 660 V 0 H 0 Z"
         transform="translate(-250.0396,-481.95171)"
         id="path50" />
    </clipPath>
  </defs>
  <sodipodi:namedview
     id="namedview1"
     pagecolor="#ffffff"
     bordercolor="#000000"
     borderopacity="0.25"
     inkscape:showpageshadow="2"
     inkscape:pageopacity="0.0"
     inkscape:pagecheckerboard="0"
     inkscape:deskcolor="#d1d1d1"
     inkscape:zoom="0.69318182"
     inkscape:cx="439.27869"
     inkscape:cy="440"
     inkscape:window-width="1440"
     inkscape:window-height="830"
     inkscape:window-x="-6"
     inkscape:window-y="-6"
     inkscape:window-maximized="1"
     inkscape:current-layer="g1">
    <inkscape:page
       x="0"
       y="0"
       inkscape:label="1"
       id="page1"
       width="880"
       height="880"
       margin="0 0 0.59066665 1.0670574"
       bleed="0" />
  </sodipodi:namedview>
  <g
     id="g1"
     inkscape:groupmode="layer"
     inkscape:label="1">
    <g
       id="group-MC0">
      <path
         id="path2"
         d="M 0.8,0 H 660 V 659.557 H 0.8 Z"
         style="fill:#f5793b;fill-opacity:1;fill-rule:nonzero;stroke:none"
         transform="matrix(1.3333333,0,0,-1.3333333,0,880)" />
      <path
         id="path3"
         d="m 0,0 c 8.572,0 15.563,6.991 15.563,15.563 0,8.57 -6.991,15.562 -15.563,15.562 -8.571,0 -15.563,-6.992 -15.563,-15.562 C -15.563,6.991 -8.571,0 0,0"
         style="fill:#332d2a;fill-opacity:1;fill-rule:evenodd;stroke:none"
         transform="matrix(1.3333333,0,0,-1.3333333,313.06253,192.9108)"
         clip-path="url(#clipPath4)" />
      <path
         id="path5"
         d="M 0,0 C 125.365,0 227.613,8.539 227.613,19.008 227.613,29.477 125.365,38.015 0,38.015 -125.365,38.015 -227.613,29.477 -227.613,19.008 -227.613,8.539 -125.365,0 0,0"
         style="fill:#e36a2d;fill-opacity:1;fill-rule:evenodd;stroke:none"
         transform="matrix(1.3333333,0,0,-1.3333333,452.33853,777.52213)"
         clip-path="url(#clipPath6)" />
      <path
         id="path7"
         d="m 0,0 c 8.62,-8.863 8.424,-23.037 -0.439,-31.657 -8.863,-8.622 -23.036,-8.426 -31.657,0.437 l -149.878,153.364 -23.595,-17.16 -42.789,-57.051 35.519,-56.368 c 6.586,-10.462 3.445,-24.282 -7.016,-30.869 -10.461,-6.588 -24.282,-3.446 -30.869,7.016 l -43.716,69.378 0.014,0.009 c -4.793,7.613 -4.682,17.705 1.038,25.334 l 53.178,70.903 c 1.47,2.297 3.386,4.362 5.728,6.06 l 41.817,30.412 0.016,-0.023 c 8.858,6.436 21.327,5.557 29.185,-2.52 z"
         style="fill:#332d2a;fill-opacity:1;fill-rule:evenodd;stroke:none"
         transform="matrix(1.3333333,0,0,-1.3333333,657.25,695.49867)"
         clip-path="url(#clipPath8)" />
      <path
         id="path9"
         d="m 0,0 v 0 c 29.373,14.961 65.647,3.169 80.609,-26.203 l 26.325,-51.684 c 14.961,-29.375 3.17,-65.647 -26.204,-80.61 -29.373,-14.961 -65.646,-3.169 -80.608,26.203 l -26.325,51.686 C -41.165,-51.237 -29.374,-14.962 0,0"
         style="fill:#332d2a;fill-opacity:1;fill-rule:evenodd;stroke:none"
         transform="matrix(1.3333333,0,0,-1.3333333,299.5176,345.40107)"
         clip-path="url(#clipPath10)" />
      <path
         id="path11"
         d="m 0,0 v 0 c 36.097,18.387 80.673,3.897 99.059,-32.201 l 32.351,-63.512 c 18.386,-36.097 3.897,-80.673 -32.2,-99.061 -36.098,-18.387 -80.674,-3.896 -99.06,32.2 l -32.351,63.516 C -50.587,-62.961 -36.097,-18.386 0,0"
         style="fill:#b84c16;fill-opacity:1;fill-rule:evenodd;stroke:none"
         transform="matrix(1.3333333,0,0,-1.3333333,262.48893,276.2324)"
         clip-path="url(#clipPath12)" />
      <path
         id="path13"
         d="m 249.322,392.85 h 98.834 v 53.006 h -98.834 z"
         style="fill:#b84c16;fill-opacity:1;fill-rule:evenodd;stroke:none"
         transform="matrix(1.3333333,0,0,-1.3333333,0,880)"
         clip-path="url(#clipPath14)" />
      <path
         id="path15"
         d="M 0,0 H 88.346 V 66.259 H 0 C -18.22,66.259 -33.128,51.352 -33.128,33.13 -33.128,14.908 -18.22,0 0,0"
         style="fill:#f5b290;fill-opacity:1;fill-rule:evenodd;stroke:none"
         transform="matrix(1.3333333,0,0,-1.3333333,482.24733,365.0352)"
         clip-path="url(#clipPath16)" />
      <path
         id="path17"
         d="m 0,0 c 0,-3.72 -3.016,-6.734 -6.735,-6.734 -3.72,0 -6.735,3.014 -6.735,6.734 v 44.74 c 0,15.649 2.97,30.26 8.836,43.666 5.861,13.397 14.586,25.501 26.099,36.14 l 55.967,51.717 c 0.611,0.562 1.3,0.989 2.027,1.285 l 221.705,90.112 10.504,77.789 c 0.454,3.375 3.341,5.826 6.656,5.822 v 0.018 H 523.925 V 337.82 H 324.191 l -10.184,-75.423 c -0.184,-2.471 -1.732,-4.749 -4.186,-5.741 L 85.635,165.538 30.568,114.654 C 20.431,105.286 12.779,94.698 7.678,83.038 2.581,71.39 0,58.572 0,44.74 Z"
         style="fill:#ffffff;fill-opacity:1;fill-rule:evenodd;stroke:none"
         transform="matrix(1.3333333,0,0,-1.3333333,181.90827,714.79947)"
         clip-path="url(#clipPath18)" />
      <path
         id="path19"
         d="m 0,0 v 0 c 19.436,0 35.337,-15.901 35.337,-35.337 v -11.872 c 0,-19.437 -15.901,-35.339 -35.337,-35.339 -19.437,0 -35.338,15.902 -35.338,35.339 v 11.872 C -35.338,-15.901 -19.437,0 0,0"
         style="fill:#fcc3a6;fill-opacity:1;fill-rule:evenodd;stroke:none"
         transform="matrix(1.3333333,0,0,-1.3333333,600.04427,254.97133)"
         clip-path="url(#clipPath20)" />
      <path
         id="path21"
         d="m 0,0 c 7.679,0 13.941,6.263 13.941,13.942 0,7.68 -6.262,13.942 -13.941,13.942 -7.68,0 -13.942,-6.262 -13.942,-13.942 C -13.942,6.263 -7.68,0 0,0"
         style="fill:#ffd8c4;fill-opacity:1;fill-rule:evenodd;stroke:none"
         transform="matrix(1.3333333,0,0,-1.3333333,573.72267,292.88613)"
         clip-path="url(#clipPath22)" />
      <path
         id="path23"
         d="m 0,0 -65.738,-73.805 39.582,-35.255 65.737,73.804 z"
         style="fill:#b84c16;fill-opacity:1;fill-rule:evenodd;stroke:none"
         transform="matrix(1.3333333,0,0,-1.3333333,219.46227,325.38733)"
         clip-path="url(#clipPath24)" />
      <path
         id="path25"
         d="m 0,0 58.76,-65.969 49.477,44.07 -58.76,65.97 C 37.358,57.677 16.311,58.894 2.704,46.774 -10.903,34.655 -12.12,13.606 0,0"
         style="fill:#f5b290;fill-opacity:1;fill-rule:evenodd;stroke:none"
         transform="matrix(1.3333333,0,0,-1.3333333,131.2676,472.2656)"
         clip-path="url(#clipPath26)" />
      <path
         id="path27"
         d="m 0,0 v 0 c 12.929,-14.516 11.631,-36.965 -2.883,-49.892 l -8.866,-7.898 c -14.513,-12.927 -36.963,-11.629 -49.891,2.885 -12.927,14.514 -11.63,36.965 2.883,49.89 l 8.867,7.898 C -35.378,15.81 -12.927,14.512 0,0"
         style="fill:#f5b290;fill-opacity:1;fill-rule:evenodd;stroke:none"
         transform="matrix(1.3333333,0,0,-1.3333333,291.8028,487.01947)"
         clip-path="url(#clipPath28)" />
      <path
         id="path29"
         d="m 0,0 c 5.122,-5.748 4.613,-14.563 -1.138,-19.682 -5.75,-5.123 -14.562,-4.613 -19.684,1.137 -5.121,5.749 -4.612,14.562 1.138,19.683 C -13.934,6.262 -5.121,5.751 0,0"
         style="fill:#f5b290;fill-opacity:1;fill-rule:evenodd;stroke:none"
         transform="matrix(1.3333333,0,0,-1.3333333,273.74613,467.85547)"
         clip-path="url(#clipPath30)" />
      <path
         id="path31"
         d="m 0,0 v 0 c 5.742,5.528 14.963,5.354 20.492,-0.387 l 19.779,-20.536 c 5.529,-5.741 5.356,-14.962 -0.384,-20.492 -5.742,-5.53 -14.964,-5.356 -20.492,0.385 l -19.78,20.536 C -5.915,-14.752 -5.741,-5.531 0,0"
         style="fill:#332d2a;fill-opacity:1;fill-rule:evenodd;stroke:none"
         transform="matrix(1.3333333,0,0,-1.3333333,622.15493,700.4896)"
         clip-path="url(#clipPath32)" />
      <path
         id="path33"
         d="m 0,0 v 0 c 0,7.971 6.521,14.493 14.493,14.493 h 28.511 c 7.972,0 14.493,-6.522 14.493,-14.493 0,-7.973 -6.521,-14.494 -14.493,-14.494 H 14.493 C 6.521,-14.494 0,-7.973 0,0"
         style="fill:#332d2a;fill-opacity:1;fill-rule:evenodd;stroke:none"
         transform="matrix(1.3333333,0,0,-1.3333333,290.7728,741.76693)"
         clip-path="url(#clipPath34)" />
      <path
         id="path35"
         d="M 0,0 C 19.563,0 35.52,12.22 35.52,27.203 35.52,42.188 19.563,54.408 0,54.408 -19.563,54.408 -35.52,42.188 -35.52,27.203 -35.52,12.22 -19.563,0 0,0"
         style="fill:#b84c16;fill-opacity:1;fill-rule:evenodd;stroke:none"
         transform="matrix(1.3333333,0,0,-1.3333333,282.38147,329.89973)"
         clip-path="url(#clipPath36)" />
      <path
         id="path37"
         d="m 0,0 c 0,-9.016 -9.543,-16.323 -21.314,-16.323 -11.771,0 -21.314,7.307 -21.314,16.323 V 40.272 H 0 Z"
         style="fill:#f5b290;fill-opacity:1;fill-rule:evenodd;stroke:none"
         transform="matrix(1.3333333,0,0,-1.3333333,310.80013,287.29293)"
         clip-path="url(#clipPath38)" />
      <path
         id="path39"
         d="M 0,0 C 0,-0.306 -0.012,-0.609 -0.034,-0.91 -14.056,-1.155 -27.487,7.167 -32.98,20.911 l -7.664,19.174 -0.071,0.187 H 0 Z"
         style="fill:#d6855c;fill-opacity:1;fill-rule:evenodd;stroke:none"
         transform="matrix(1.3333333,0,0,-1.3333333,310.80013,287.29293)"
         clip-path="url(#clipPath40)" />
      <path
         id="path41"
         d="M 0,0 V 0 C 17.738,7.09 26.45,27.403 19.362,45.141 L 11.698,64.315 C 4.609,82.053 -15.704,90.764 -33.441,83.675 -51.18,76.586 -59.892,56.273 -52.803,38.536 L -45.14,19.361 C -38.05,1.624 -17.739,-7.089 0,0"
         style="fill:#f5b290;fill-opacity:1;fill-rule:evenodd;stroke:none"
         transform="matrix(1.3333333,0,0,-1.3333333,314.3392,269.30467)"
         clip-path="url(#clipPath42)" />
      <path
         id="path43"
         d="M 0,0 C 14.395,0 26.135,11.74 26.135,26.135 26.135,40.53 14.395,52.27 0,52.27 -14.395,52.27 -26.135,40.53 -26.135,26.135 -26.135,11.74 -14.395,0 0,0"
         style="fill:#332d2a;fill-opacity:1;fill-rule:evenodd;stroke:none"
         transform="matrix(1.3333333,0,0,-1.3333333,278.8984,198.1152)"
         clip-path="url(#clipPath44)" />
      <path
         id="path45"
         d="m 0,0 c 11.385,0 20.67,9.286 20.67,20.671 0,11.385 -9.285,20.67 -20.67,20.67 -11.385,0 -20.671,-9.285 -20.671,-20.67 C -20.671,9.286 -11.385,0 0,0"
         style="fill:#332d2a;fill-opacity:1;fill-rule:evenodd;stroke:none"
         transform="matrix(1.3333333,0,0,-1.3333333,252.60547,226.944)"
         clip-path="url(#clipPath46)" />
      <path
         id="path47"
         d="m 0,0 c 7.393,0 13.424,6.03 13.424,13.423 0,7.394 -6.031,13.425 -13.424,13.425 -7.393,0 -13.424,-6.031 -13.424,-13.425 C -13.424,6.03 -7.393,0 0,0"
         style="fill:#332d2a;fill-opacity:1;fill-rule:evenodd;stroke:none"
         transform="matrix(1.3333333,0,0,-1.3333333,248.96227,249.11853)"
         clip-path="url(#clipPath48)" />
      <path
         id="path49"
         d="M 0,0 C -9.448,-8.221 -21.898,-15.919 -25.898,0 Z"
         style="fill:#ffffff;fill-opacity:1;fill-rule:evenodd;stroke:none"
         transform="matrix(1.3333333,0,0,-1.3333333,333.38613,237.39773)"
         clip-path="url(#clipPath50)" />
    </g>
  </g>
</svg>
