<?xml version="1.0" encoding="UTF-8" standalone="no"?>
<!-- Created with Inkscape (http://www.inkscape.org/) -->

<svg
   version="1.1"
   id="svg1"
   width="880"
   height="880"
   viewBox="0 0 880 880"
   sodipodi:docname="redhead-woman-with-glasses.svg"
   inkscape:version="1.3.2 (091e20e, 2023-11-25, custom)"
   xmlns:inkscape="http://www.inkscape.org/namespaces/inkscape"
   xmlns:sodipodi="http://sodipodi.sourceforge.net/DTD/sodipodi-0.dtd"
   xmlns="http://www.w3.org/2000/svg"
   xmlns:svg="http://www.w3.org/2000/svg">
  <defs
     id="defs1">
    <clipPath
       clipPathUnits="userSpaceOnUse"
       id="clipPath3">
      <path
         d="M 0,660 H 660 V 0 H 0 Z"
         transform="translate(-386.77441,-254.14941)"
         id="path3" />
    </clipPath>
    <clipPath
       clipPathUnits="userSpaceOnUse"
       id="clipPath5">
      <path
         d="M 0,660 H 660 V 0 H 0 Z"
         transform="translate(-386.77441,-254.14941)"
         id="path5" />
    </clipPath>
    <clipPath
       clipPathUnits="userSpaceOnUse"
       id="clipPath7">
      <path
         d="M 0,660 H 660 V 0 H 0 Z"
         transform="translate(-497.52151,-491.77591)"
         id="path7" />
    </clipPath>
    <clipPath
       clipPathUnits="userSpaceOnUse"
       id="clipPath9">
      <path
         d="M 0,660 H 660 V 0 H 0 Z"
         transform="translate(-462.15631,-486.22071)"
         id="path9" />
    </clipPath>
    <clipPath
       clipPathUnits="userSpaceOnUse"
       id="clipPath11">
      <path
         d="M 0,660 H 660 V 0 H 0 Z"
         transform="translate(-262.4824,-262.75291)"
         id="path11" />
    </clipPath>
    <clipPath
       clipPathUnits="userSpaceOnUse"
       id="clipPath13">
      <path
         d="M 0,660 H 660 V 0 H 0 Z"
         transform="translate(-385.03221,-476.01661)"
         id="path13" />
    </clipPath>
    <clipPath
       clipPathUnits="userSpaceOnUse"
       id="clipPath15">
      <path
         d="M 0,660 H 660 V 0 H 0 Z"
         transform="translate(-497.52151,-491.77591)"
         id="path15" />
    </clipPath>
    <clipPath
       clipPathUnits="userSpaceOnUse"
       id="clipPath17">
      <path
         d="M 0,660 H 660 V 0 H 0 Z"
         transform="translate(-497.52151,-491.77591)"
         id="path17" />
    </clipPath>
    <clipPath
       clipPathUnits="userSpaceOnUse"
       id="clipPath19">
      <path
         d="M 0,660 H 660 V 0 H 0 Z"
         transform="translate(-307.00001,-414.30471)"
         id="path19" />
    </clipPath>
    <clipPath
       clipPathUnits="userSpaceOnUse"
       id="clipPath21">
      <path
         d="M 0,660 H 660 V 0 H 0 Z"
         transform="translate(-438.46681,-302.19431)"
         id="path21" />
    </clipPath>
    <clipPath
       clipPathUnits="userSpaceOnUse"
       id="clipPath23">
      <path
         d="M 0,660 H 660 V 0 H 0 Z"
         transform="translate(-301.49661,-412.24801)"
         id="path23" />
    </clipPath>
    <clipPath
       clipPathUnits="userSpaceOnUse"
       id="clipPath25">
      <path
         d="M 0,660 H 660 V 0 H 0 Z"
         transform="translate(-275.39601,-373.23441)"
         id="path25" />
    </clipPath>
    <clipPath
       clipPathUnits="userSpaceOnUse"
       id="clipPath27">
      <path
         d="M 0,660 H 660 V 0 H 0 Z"
         transform="translate(-212.26611,-527.07862)"
         id="path27" />
    </clipPath>
    <clipPath
       clipPathUnits="userSpaceOnUse"
       id="clipPath29">
      <path
         d="M 0,660 H 660 V 0 H 0 Z"
         transform="translate(-383.45121,-545.83501)"
         id="path29" />
    </clipPath>
    <clipPath
       clipPathUnits="userSpaceOnUse"
       id="clipPath31">
      <path
         d="M 0,660 H 660 V 0 H 0 Z"
         transform="translate(-450.99511,-383.43801)"
         id="path31" />
    </clipPath>
    <clipPath
       clipPathUnits="userSpaceOnUse"
       id="clipPath33">
      <path
         d="M 0,660 H 660 V 0 H 0 Z"
         transform="translate(-413.13871,-412.24801)"
         id="path33" />
    </clipPath>
    <clipPath
       clipPathUnits="userSpaceOnUse"
       id="clipPath35">
      <path
         d="M 0,660 H 660 V 0 H 0 Z"
         transform="translate(-381.40531,-373.23441)"
         id="path35" />
    </clipPath>
    <clipPath
       clipPathUnits="userSpaceOnUse"
       id="clipPath37">
      <path
         d="M 0,660 H 660 V 0 H 0 Z"
         transform="translate(-365.81351,-274.0273)"
         id="path37" />
    </clipPath>
  </defs>
  <sodipodi:namedview
     id="namedview1"
     pagecolor="#ffffff"
     bordercolor="#000000"
     borderopacity="0.25"
     inkscape:showpageshadow="2"
     inkscape:pageopacity="0.0"
     inkscape:pagecheckerboard="0"
     inkscape:deskcolor="#d1d1d1"
     inkscape:zoom="0.69318182"
     inkscape:cx="439.27869"
     inkscape:cy="440"
     inkscape:window-width="1440"
     inkscape:window-height="830"
     inkscape:window-x="-6"
     inkscape:window-y="-6"
     inkscape:window-maximized="1"
     inkscape:current-layer="g1">
    <inkscape:page
       x="0"
       y="0"
       inkscape:label="1"
       id="page1"
       width="880"
       height="880"
       margin="97.505997 171.696 27.172001 187.32001"
       bleed="0" />
  </sodipodi:namedview>
  <g
     id="g1"
     inkscape:groupmode="layer"
     inkscape:label="1">
    <g
       id="group-MC0">
      <path
         id="path2"
         d="m 0,0 c -4.584,-37.874 -0.343,-87.803 25.31,-118.002 17.196,-6.877 34.392,-13.75 51.587,-20.627 65.466,-67.392 -252.531,-44.504 -238.666,0 25.888,6.398 51.778,12.793 77.667,19.187 10.965,44.286 3.076,88.573 -17.704,132.856 C -68.626,3.988 -33.18,9.429 0,0"
         style="fill:#f29d72;fill-opacity:1;fill-rule:evenodd;stroke:none"
         transform="matrix(1.3333333,0,0,-1.3333333,515.6992,541.13413)"
         clip-path="url(#clipPath3)" />
      <path
         id="path4"
         d="m 0,0 c -1.154,-9.543 -1.749,-19.856 -1.58,-30.421 -19.26,-19.534 -41.871,-30.786 -66.06,-30.786 -4.224,0 -8.398,0.352 -12.515,1.02 -2.587,24.534 -10.139,49.067 -21.651,73.601 C -68.626,3.988 -33.18,9.429 0,0"
         style="fill:#c97145;fill-opacity:1;fill-rule:evenodd;stroke:none"
         transform="matrix(1.3333333,0,0,-1.3333333,515.6992,541.13413)"
         clip-path="url(#clipPath5)" />
      <path
         id="path6"
         d="m 0,0 c 42.297,-91.812 49.199,-155.487 -4.867,-170.701 3.528,-69.3 -22.452,-90.32 -68.811,-77.984 -12.241,-11.689 -25.209,-16.849 -38.673,-17.553 -0.076,9.934 0.514,19.614 1.604,28.612 -33.18,9.428 -68.627,3.988 -101.806,13.414 -9.176,5.562 -18.335,10.958 -27.417,15.666 -5.29,-43.147 -48.775,-74.082 -82.572,-67.665 -6.566,36.131 -31.98,74.888 -34.035,109.695 -4.943,83.774 31.62,138.465 53.819,199.897 27.329,75.636 68.864,100.121 132.973,112.972 19.665,3.942 38.048,0.059 54.438,-11.5 16.393,-11.559 26.223,-27.57 29.115,-47.418 1.284,-8.842 2.029,-18.434 2.233,-28.768 10.323,-3.559 20.649,-7.12 30.976,-10.681 C -28.663,39.586 -10.782,23.405 0,0"
         style="fill:#a6450d;fill-opacity:1;fill-rule:evenodd;stroke:none"
         transform="matrix(1.3333333,0,0,-1.3333333,663.362,224.2988)"
         clip-path="url(#clipPath7)" />
      <path
         id="path8"
         d="m 0,0 c 2.685,-17.167 4.121,-35.179 4.121,-53.75 0,-117.26 -56.994,-212.317 -127.301,-212.317 -70.305,0 -127.299,95.057 -127.299,212.317 0,18.571 1.433,36.583 4.12,53.75 z"
         style="fill:#f5b290;fill-opacity:1;fill-rule:evenodd;stroke:none"
         transform="matrix(1.3333333,0,0,-1.3333333,616.2084,231.70573)"
         clip-path="url(#clipPath9)" />
      <path
         id="path10"
         d="m 0,0 c -30.854,38.746 -50.805,100.342 -50.805,169.717 0,18.572 1.433,36.583 4.119,53.751 H 111.933 L 122.55,213.264 C 28.411,203.967 57.285,35.38 0,0"
         style="fill:#eba07b;fill-opacity:1;fill-rule:evenodd;stroke:none"
         transform="matrix(1.3333333,0,0,-1.3333333,349.97653,529.6628)"
         clip-path="url(#clipPath11)" />
      <path
         id="path12"
         d="M 0,0 C 12.329,7.289 23.95,24.782 36.281,32.071 24.237,44.328 12.194,56.587 0.152,68.845 -5.946,73.216 -12.044,77.587 -18.142,81.959 -40.63,70.808 -63.118,59.661 -85.604,48.511 -83.111,20.527 -80.617,-7.456 -78.122,-35.44 -63.604,-1.662 -20.845,13.889 0,0"
         style="fill:#702f09;fill-opacity:1;fill-rule:evenodd;stroke:none"
         transform="matrix(1.3333333,0,0,-1.3333333,513.37627,245.3112)"
         clip-path="url(#clipPath13)" />
      <path
         id="path14"
         d="m 0,0 c 42.297,-91.812 49.199,-155.487 -4.867,-170.701 3.528,-69.3 -22.452,-90.32 -68.811,-77.984 -12.244,-11.689 -25.209,-16.846 -38.673,-17.55 -0.022,3.066 0.019,6.107 0.118,9.112 19.539,12.733 36.727,33.279 50.186,59.344 l 0.011,0.011 c 37.688,96.075 -13.463,203.875 -50.453,182.009 25.35,151.562 -117.783,165.389 -183.141,66.983 27.276,61.782 67.073,83.35 125.845,95.129 19.665,3.942 38.048,0.059 54.438,-11.5 16.393,-11.559 26.223,-27.57 29.115,-47.418 1.284,-8.842 2.029,-18.434 2.233,-28.768 10.323,-3.559 20.649,-7.12 30.976,-10.681 C -28.663,39.586 -10.782,23.405 0,0"
         style="fill:#bd591e;fill-opacity:1;fill-rule:evenodd;stroke:none"
         transform="matrix(1.3333333,0,0,-1.3333333,663.362,224.2988)"
         clip-path="url(#clipPath15)" />
      <path
         id="path16"
         d="M 0,0 C 42.297,-91.812 49.199,-155.487 -4.867,-170.701 -3.361,-37.682 -32.594,32.985 -83.999,58.667 -73.676,55.108 -63.35,51.547 -53.023,47.986 -28.663,39.586 -10.782,23.405 0,0"
         style="fill:#de7538;fill-opacity:1;fill-rule:evenodd;stroke:none"
         transform="matrix(1.3333333,0,0,-1.3333333,663.362,224.2988)"
         clip-path="url(#clipPath17)" />
      <path
         id="path18"
         d="m 0,0 -11.622,-8.928 -33.873,10.061 -24.943,-2.692 -6.804,4.394 h 0.427 7.511 l 22.121,6.101 39.53,-8.795 z m 38.898,0 11.622,-8.928 33.873,10.061 24.944,-2.692 6.803,4.394 h -0.424 -7.514 L 86.081,8.936 46.553,0.141 Z"
         style="fill:#332d2a;fill-opacity:1;fill-rule:evenodd;stroke:none"
         transform="matrix(1.3333333,0,0,-1.3333333,409.33333,327.59373)"
         clip-path="url(#clipPath19)" />
      <path
         id="path20"
         d="M 0,0 C 31.814,93.89 -17.491,195.069 -53.435,173.822 -30.967,243.838 70.708,115.685 0,0"
         style="fill:#a6450d;fill-opacity:1;fill-rule:evenodd;stroke:none"
         transform="matrix(1.3333333,0,0,-1.3333333,584.6224,477.07427)"
         clip-path="url(#clipPath21)" />
      <path
         id="path22"
         d="m 0,0 c -7.979,7.979 -19.003,12.915 -31.178,12.915 -12.175,0 -23.2,-4.936 -31.178,-12.915 -7.979,-7.979 -12.914,-19.002 -12.914,-31.178 0,-12.176 4.935,-23.2 12.914,-31.178 7.978,-7.98 19.003,-12.915 31.178,-12.915 12.175,0 23.199,4.935 31.178,12.915 7.98,7.978 12.915,19.002 12.915,31.178 C 12.915,-19.002 7.98,-7.979 0,0 m -31.178,16.932 c 13.284,0 25.313,-5.385 34.018,-14.092 8.707,-8.705 14.092,-20.733 14.092,-34.018 0,-13.285 -5.385,-25.314 -14.092,-34.02 -8.705,-8.705 -20.734,-14.09 -34.018,-14.09 -13.284,0 -25.312,5.385 -34.019,14.09 -8.705,8.706 -14.091,20.735 -14.091,34.02 0,13.285 5.386,25.313 14.091,34.018 8.707,8.707 20.735,14.092 34.019,14.092"
         style="fill:#ffffff;fill-opacity:1;fill-rule:evenodd;stroke:none"
         transform="matrix(1.3333333,0,0,-1.3333333,401.99547,330.336)"
         clip-path="url(#clipPath23)" />
      <path
         id="path24"
         d="M 0,0 C 5.776,0 10.487,5.984 10.487,13.322 10.487,20.66 5.776,26.645 0,26.645 -5.776,26.645 -10.487,20.66 -10.487,13.322 -10.487,5.984 -5.776,0 0,0"
         style="fill:#332d2a;fill-opacity:1;fill-rule:evenodd;stroke:none"
         transform="matrix(1.3333333,0,0,-1.3333333,367.19467,382.35413)"
         clip-path="url(#clipPath25)" />
      <path
         id="path26"
         d="m 0,0 -37.415,-118.483 45.868,-54.866 1.185,1.576 63.493,142.293 z"
         style="fill:#a6450d;fill-opacity:1;fill-rule:evenodd;stroke:none"
         transform="matrix(1.3333333,0,0,-1.3333333,283.02147,177.22853)"
         clip-path="url(#clipPath27)" />
      <path
         id="path28"
         d="M 0,0 C -77.293,123.704 -165.27,-180.546 -226.74,-216.606 -87.09,-295.525 -65.386,39.803 0,0"
         style="fill:#8c3604;fill-opacity:1;fill-rule:evenodd;stroke:none"
         transform="matrix(1.3333333,0,0,-1.3333333,511.26827,152.22)"
         clip-path="url(#clipPath29)" />
      <path
         id="path30"
         d="M 0,0 C 8.844,0 14.067,-14.784 11.667,-33.021 9.265,-51.26 0.148,-66.044 -8.698,-66.044 c -8.844,0 -14.069,14.784 -11.667,33.023 C -17.962,-14.784 -8.847,0 0,0"
         style="fill:#f5b290;fill-opacity:1;fill-rule:evenodd;stroke:none"
         transform="matrix(1.3333333,0,0,-1.3333333,601.3268,368.74933)"
         clip-path="url(#clipPath31)" />
      <path
         id="path32"
         d="m 0,0 c -7.978,7.979 -19.001,12.915 -31.177,12.915 -12.176,0 -23.201,-4.936 -31.178,-12.915 -7.98,-7.979 -12.915,-19.002 -12.915,-31.178 0,-12.176 4.935,-23.2 12.915,-31.178 7.977,-7.98 19.002,-12.915 31.178,-12.915 12.176,0 23.199,4.935 31.177,12.915 7.98,7.978 12.914,19.002 12.914,31.178 C 12.914,-19.002 7.98,-7.979 0,0 m -31.177,16.932 c 13.284,0 25.312,-5.385 34.019,-14.092 8.706,-8.705 14.092,-20.733 14.092,-34.018 0,-13.285 -5.386,-25.314 -14.092,-34.02 -8.707,-8.705 -20.735,-14.09 -34.019,-14.09 -13.286,0 -25.313,5.385 -34.02,14.09 -8.705,8.706 -14.091,20.735 -14.091,34.02 0,13.285 5.386,25.313 14.091,34.018 8.707,8.707 20.734,14.092 34.02,14.092"
         style="fill:#ffffff;fill-opacity:1;fill-rule:evenodd;stroke:none"
         transform="matrix(1.3333333,0,0,-1.3333333,550.8516,330.336)"
         clip-path="url(#clipPath33)" />
      <path
         id="path34"
         d="M 0,0 C 5.778,0 10.49,5.984 10.49,13.322 10.49,20.66 5.778,26.645 0,26.645 -5.774,26.645 -10.486,20.66 -10.486,13.322 -10.486,5.984 -5.774,0 0,0"
         style="fill:#332d2a;fill-opacity:1;fill-rule:evenodd;stroke:none"
         transform="matrix(1.3333333,0,0,-1.3333333,508.5404,382.35413)"
         clip-path="url(#clipPath35)" />
      <path
         id="path36"
         d="m 0,0 c -7.73,-10.184 -17.13,-16.727 -30.335,-14.966 -5.529,0.738 -10.331,0.738 -15.86,0 C -59.4,-16.727 -68.798,-10.184 -76.53,0 c 7.522,2.568 14.229,4.194 20.076,8.867 4.179,3.343 9.198,4.44 14.39,3.146 2.484,-0.619 5.114,-0.619 7.598,0 5.193,1.294 10.211,0.197 14.391,-3.146 C -14.228,4.194 -7.522,2.568 0,0"
         style="fill:#cc3300;fill-opacity:1;fill-rule:evenodd;stroke:none"
         transform="matrix(1.3333333,0,0,-1.3333333,487.75133,514.63027)"
         clip-path="url(#clipPath37)" />
    </g>
  </g>
</svg>
