<?xml version="1.0" encoding="UTF-8" standalone="no"?>
<!-- Created with Inkscape (http://www.inkscape.org/) -->

<svg
   version="1.1"
   id="svg1"
   width="880"
   height="880"
   viewBox="0 0 880 880"
   sodipodi:docname="super-soldier.svg"
   inkscape:version="1.3.2 (091e20e, 2023-11-25, custom)"
   xmlns:inkscape="http://www.inkscape.org/namespaces/inkscape"
   xmlns:sodipodi="http://sodipodi.sourceforge.net/DTD/sodipodi-0.dtd"
   xmlns="http://www.w3.org/2000/svg"
   xmlns:svg="http://www.w3.org/2000/svg">
  <defs
     id="defs1">
    <clipPath
       clipPathUnits="userSpaceOnUse"
       id="clipPath3">
      <path
         d="M 0,660 H 660 V 0 H 0 Z"
         transform="translate(-312.51861,-614.19682)"
         id="path3" />
    </clipPath>
    <clipPath
       clipPathUnits="userSpaceOnUse"
       id="clipPath5">
      <path
         d="M 0,660 H 660 V 0 H 0 Z"
         transform="translate(-348.78221,-605.11522)"
         id="path5" />
    </clipPath>
    <clipPath
       clipPathUnits="userSpaceOnUse"
       id="clipPath7">
      <path
         d="M 0,660 H 660 V 0 H 0 Z"
         transform="translate(-376.42771,-612.64702)"
         id="path7" />
    </clipPath>
    <clipPath
       clipPathUnits="userSpaceOnUse"
       id="clipPath9">
      <path
         d="M 0,660 H 660 V 0 H 0 Z"
         transform="translate(-324.95021,-578.27051)"
         id="path9" />
    </clipPath>
    <clipPath
       clipPathUnits="userSpaceOnUse"
       id="clipPath11">
      <path
         d="M 0,660 H 660 V 0 H 0 Z"
         transform="translate(-485.50981,-179.01561)"
         id="path11" />
    </clipPath>
    <clipPath
       clipPathUnits="userSpaceOnUse"
       id="clipPath13">
      <path
         d="M 0,660 H 660 V 0 H 0 Z"
         transform="translate(-497.93951,-145.49511)"
         id="path13" />
    </clipPath>
    <clipPath
       clipPathUnits="userSpaceOnUse"
       id="clipPath15">
      <path
         d="M 0,660 H 660 V 0 H 0 Z"
         transform="translate(-185.8794,-179.01561)"
         id="path15" />
    </clipPath>
    <clipPath
       clipPathUnits="userSpaceOnUse"
       id="clipPath17">
      <path
         d="M 0,660 H 660 V 0 H 0 Z"
         transform="translate(-163.86231,-145.49511)"
         id="path17" />
    </clipPath>
    <clipPath
       clipPathUnits="userSpaceOnUse"
       id="clipPath19">
      <path
         d="M 0,660 H 660 V 0 H 0 Z"
         transform="translate(-314.68991,-348.98541)"
         id="path19" />
    </clipPath>
    <clipPath
       clipPathUnits="userSpaceOnUse"
       id="clipPath21">
      <path
         d="M 0,660 H 660 V 0 H 0 Z"
         transform="translate(-251.7808,-394.27691)"
         id="path21" />
    </clipPath>
    <clipPath
       clipPathUnits="userSpaceOnUse"
       id="clipPath23">
      <path
         d="M 0,660 H 660 V 0 H 0 Z"
         id="path23" />
    </clipPath>
    <clipPath
       clipPathUnits="userSpaceOnUse"
       id="clipPath25">
      <path
         d="M 0,660 H 660 V 0 H 0 Z"
         id="path25" />
    </clipPath>
    <clipPath
       clipPathUnits="userSpaceOnUse"
       id="clipPath27">
      <path
         d="M 0,660 H 660 V 0 H 0 Z"
         id="path27" />
    </clipPath>
    <clipPath
       clipPathUnits="userSpaceOnUse"
       id="clipPath29">
      <path
         d="M 0,660 H 660 V 0 H 0 Z"
         id="path29" />
    </clipPath>
    <clipPath
       clipPathUnits="userSpaceOnUse"
       id="clipPath31">
      <path
         d="M 0,660 H 660 V 0 H 0 Z"
         id="path31" />
    </clipPath>
    <clipPath
       clipPathUnits="userSpaceOnUse"
       id="clipPath33">
      <path
         d="M 0,660 H 660 V 0 H 0 Z"
         id="path33" />
    </clipPath>
    <clipPath
       clipPathUnits="userSpaceOnUse"
       id="clipPath35">
      <path
         d="M 0,660 H 660 V 0 H 0 Z"
         transform="translate(-217.7725,-415.42241)"
         id="path35" />
    </clipPath>
    <clipPath
       clipPathUnits="userSpaceOnUse"
       id="clipPath37">
      <path
         d="M 0,660 H 660 V 0 H 0 Z"
         id="path37" />
    </clipPath>
    <clipPath
       clipPathUnits="userSpaceOnUse"
       id="clipPath39">
      <path
         d="M 0,660 H 660 V 0 H 0 Z"
         transform="translate(-291.31741,-446.26561)"
         id="path39" />
    </clipPath>
    <clipPath
       clipPathUnits="userSpaceOnUse"
       id="clipPath41">
      <path
         d="M 0,660 H 660 V 0 H 0 Z"
         transform="translate(-291.31741,-522.46001)"
         id="path41" />
    </clipPath>
    <clipPath
       clipPathUnits="userSpaceOnUse"
       id="clipPath43">
      <path
         d="M 0,660 H 660 V 0 H 0 Z"
         id="path43" />
    </clipPath>
    <clipPath
       clipPathUnits="userSpaceOnUse"
       id="clipPath45">
      <path
         d="M 0,660 H 660 V 0 H 0 Z"
         transform="translate(-348.37501,-387.79101)"
         id="path45" />
    </clipPath>
    <clipPath
       clipPathUnits="userSpaceOnUse"
       id="clipPath47">
      <path
         d="M 0,660 H 660 V 0 H 0 Z"
         transform="translate(-348.37501,-524.76031)"
         id="path47" />
    </clipPath>
    <clipPath
       clipPathUnits="userSpaceOnUse"
       id="clipPath49">
      <path
         d="M 0,660 H 660 V 0 H 0 Z"
         id="path49" />
    </clipPath>
    <clipPath
       clipPathUnits="userSpaceOnUse"
       id="clipPath51">
      <path
         d="M 0,660 H 660 V 0 H 0 Z"
         transform="translate(-439.90821,-411.17971)"
         id="path51" />
    </clipPath>
    <clipPath
       clipPathUnits="userSpaceOnUse"
       id="clipPath53">
      <path
         d="M 0,660 H 660 V 0 H 0 Z"
         transform="translate(-410.74801,-391.33451)"
         id="path53" />
    </clipPath>
    <clipPath
       clipPathUnits="userSpaceOnUse"
       id="clipPath55">
      <path
         d="M 0,660 H 660 V 0 H 0 Z"
         id="path55" />
    </clipPath>
    <clipPath
       clipPathUnits="userSpaceOnUse"
       id="clipPath57">
      <path
         d="M 0,660 H 660 V 0 H 0 Z"
         transform="translate(-452.65431,-349.69381)"
         id="path57" />
    </clipPath>
    <clipPath
       clipPathUnits="userSpaceOnUse"
       id="clipPath59">
      <path
         d="M 0,660 H 660 V 0 H 0 Z"
         transform="translate(-408.79491,-388.74801)"
         id="path59" />
    </clipPath>
    <clipPath
       clipPathUnits="userSpaceOnUse"
       id="clipPath61">
      <path
         d="M 0,660 H 660 V 0 H 0 Z"
         transform="translate(-392.72951,-343.84421)"
         id="path61" />
    </clipPath>
    <clipPath
       clipPathUnits="userSpaceOnUse"
       id="clipPath63">
      <path
         d="M 0,660 H 660 V 0 H 0 Z"
         transform="translate(-276.0859,-374.48931)"
         id="path63" />
    </clipPath>
    <clipPath
       clipPathUnits="userSpaceOnUse"
       id="clipPath65">
      <path
         d="M 0,660 H 660 V 0 H 0 Z"
         id="path65" />
    </clipPath>
    <clipPath
       clipPathUnits="userSpaceOnUse"
       id="clipPath67">
      <path
         d="M 0,660 H 660 V 0 H 0 Z"
         transform="translate(-307.28371,-373.24801)"
         id="path67" />
    </clipPath>
    <clipPath
       clipPathUnits="userSpaceOnUse"
       id="clipPath69">
      <path
         d="M 0,660 H 660 V 0 H 0 Z"
         transform="translate(-287.58451,-373.24801)"
         id="path69" />
    </clipPath>
    <clipPath
       clipPathUnits="userSpaceOnUse"
       id="clipPath71">
      <path
         d="M 0,660 H 660 V 0 H 0 Z"
         transform="translate(-417.30371,-446.26561)"
         id="path71" />
    </clipPath>
    <clipPath
       clipPathUnits="userSpaceOnUse"
       id="clipPath73">
      <path
         d="M 0,660 H 660 V 0 H 0 Z"
         transform="translate(-417.30371,-522.46001)"
         id="path73" />
    </clipPath>
    <clipPath
       clipPathUnits="userSpaceOnUse"
       id="clipPath75">
      <path
         d="M 0,660 H 660 V 0 H 0 Z"
         id="path75" />
    </clipPath>
    <clipPath
       clipPathUnits="userSpaceOnUse"
       id="clipPath77">
      <path
         d="M 0,660 H 660 V 0 H 0 Z"
         id="path77" />
    </clipPath>
    <clipPath
       clipPathUnits="userSpaceOnUse"
       id="clipPath79">
      <path
         d="M 0,660 H 660 V 0 H 0 Z"
         id="path79" />
    </clipPath>
    <clipPath
       clipPathUnits="userSpaceOnUse"
       id="clipPath81">
      <path
         d="M 0,660 H 660 V 0 H 0 Z"
         id="path81" />
    </clipPath>
    <clipPath
       clipPathUnits="userSpaceOnUse"
       id="clipPath83">
      <path
         d="M 0,660 H 660 V 0 H 0 Z"
         id="path83" />
    </clipPath>
    <clipPath
       clipPathUnits="userSpaceOnUse"
       id="clipPath85">
      <path
         d="M 0,660 H 660 V 0 H 0 Z"
         id="path85" />
    </clipPath>
    <clipPath
       clipPathUnits="userSpaceOnUse"
       id="clipPath87">
      <path
         d="M 0,660 H 660 V 0 H 0 Z"
         id="path87" />
    </clipPath>
    <clipPath
       clipPathUnits="userSpaceOnUse"
       id="clipPath89">
      <path
         d="M 0,660 H 660 V 0 H 0 Z"
         id="path89" />
    </clipPath>
    <clipPath
       clipPathUnits="userSpaceOnUse"
       id="clipPath91">
      <path
         d="M 0,660 H 660 V 0 H 0 Z"
         id="path91" />
    </clipPath>
    <clipPath
       clipPathUnits="userSpaceOnUse"
       id="clipPath93">
      <path
         d="M 0,660 H 660 V 0 H 0 Z"
         id="path93" />
    </clipPath>
    <clipPath
       clipPathUnits="userSpaceOnUse"
       id="clipPath95">
      <path
         d="M 0,660 H 660 V 0 H 0 Z"
         transform="translate(-274.77691,-366.61281)"
         id="path95" />
    </clipPath>
    <clipPath
       clipPathUnits="userSpaceOnUse"
       id="clipPath97">
      <path
         d="M 0,660 H 660 V 0 H 0 Z"
         transform="translate(-170.6221,-405.50781)"
         id="path97" />
    </clipPath>
    <clipPath
       clipPathUnits="userSpaceOnUse"
       id="clipPath99">
      <path
         d="M 0,660 H 660 V 0 H 0 Z"
         transform="translate(-199.2207,-396.32521)"
         id="path99" />
    </clipPath>
    <clipPath
       clipPathUnits="userSpaceOnUse"
       id="clipPath101">
      <path
         d="M 0,660 H 660 V 0 H 0 Z"
         id="path101" />
    </clipPath>
    <clipPath
       clipPathUnits="userSpaceOnUse"
       id="clipPath103">
      <path
         d="M 0,660 H 660 V 0 H 0 Z"
         transform="translate(-311.83641,-617.87112)"
         id="path103" />
    </clipPath>
    <clipPath
       clipPathUnits="userSpaceOnUse"
       id="clipPath105">
      <path
         d="M 0,660 H 660 V 0 H 0 Z"
         transform="translate(-360.43551,-566.57621)"
         id="path105" />
    </clipPath>
    <clipPath
       clipPathUnits="userSpaceOnUse"
       id="clipPath107">
      <path
         d="M 0,660 H 660 V 0 H 0 Z"
         transform="translate(-378.46481,-539.37601)"
         id="path107" />
    </clipPath>
    <clipPath
       clipPathUnits="userSpaceOnUse"
       id="clipPath109">
      <path
         d="M 0,660 H 660 V 0 H 0 Z"
         id="path109" />
    </clipPath>
    <clipPath
       clipPathUnits="userSpaceOnUse"
       id="clipPath111">
      <path
         d="M 0,660 H 660 V 0 H 0 Z"
         id="path111" />
    </clipPath>
    <clipPath
       clipPathUnits="userSpaceOnUse"
       id="clipPath113">
      <path
         d="M 0,660 H 660 V 0 H 0 Z"
         id="path113" />
    </clipPath>
    <clipPath
       clipPathUnits="userSpaceOnUse"
       id="clipPath115">
      <path
         d="M 0,660 H 660 V 0 H 0 Z"
         transform="translate(-350.78421,-564.15772)"
         id="path115" />
    </clipPath>
    <clipPath
       clipPathUnits="userSpaceOnUse"
       id="clipPath117">
      <path
         d="M 0,660 H 660 V 0 H 0 Z"
         transform="translate(-449.70021,-439.02731)"
         id="path117" />
    </clipPath>
    <clipPath
       clipPathUnits="userSpaceOnUse"
       id="clipPath119">
      <path
         d="M 0,660 H 660 V 0 H 0 Z"
         transform="translate(-376.36041,-376.10501)"
         id="path119" />
    </clipPath>
    <clipPath
       clipPathUnits="userSpaceOnUse"
       id="clipPath121">
      <path
         d="M 0,660 H 660 V 0 H 0 Z"
         transform="translate(-334.69141,-92.309605)"
         id="path121" />
    </clipPath>
  </defs>
  <sodipodi:namedview
     id="namedview1"
     pagecolor="#ffffff"
     bordercolor="#000000"
     borderopacity="0.25"
     inkscape:showpageshadow="2"
     inkscape:pageopacity="0.0"
     inkscape:pagecheckerboard="0"
     inkscape:deskcolor="#d1d1d1"
     inkscape:zoom="0.69318182"
     inkscape:cx="439.27869"
     inkscape:cy="440"
     inkscape:window-width="1440"
     inkscape:window-height="830"
     inkscape:window-x="-6"
     inkscape:window-y="-6"
     inkscape:window-maximized="1"
     inkscape:current-layer="g1">
    <inkscape:page
       x="0"
       y="0"
       inkscape:label="1"
       id="page1"
       width="880"
       height="880"
       margin="123.07947 14.144 19.962667 26.654934"
       bleed="0" />
  </sodipodi:namedview>
  <g
     id="g1"
     inkscape:groupmode="layer"
     inkscape:label="1">
    <g
       id="group-MC0">
      <path
         id="path2"
         d="m 0,0 c 8.491,0 15.417,6.925 15.417,15.416 0,8.49 -6.926,15.415 -15.417,15.415 -8.49,0 -15.415,-6.925 -15.415,-15.415 C -15.415,6.925 -8.49,0 0,0"
         style="fill:#332d2a;fill-opacity:1;fill-rule:evenodd;stroke:none"
         transform="matrix(1.3333333,0,0,-1.3333333,416.69147,61.070933)"
         clip-path="url(#clipPath3)" />
      <path
         id="path4"
         d="m 0,0 c 14.982,0 27.2,8 27.2,17.807 0,9.81 -12.218,17.808 -27.2,17.808 -14.981,0 -27.199,-7.998 -27.199,-17.808 C -27.199,8 -14.981,0 0,0"
         style="fill:#332d2a;fill-opacity:1;fill-rule:evenodd;stroke:none"
         transform="matrix(1.3333333,0,0,-1.3333333,465.04293,73.179733)"
         clip-path="url(#clipPath5)" />
      <path
         id="path6"
         d="M 0,0 C 5.903,0 10.719,4.516 10.719,10.055 10.719,15.593 5.903,20.11 0,20.11 -5.908,20.11 -10.723,15.593 -10.723,10.055 -10.723,4.516 -5.908,0 0,0"
         style="fill:#332d2a;fill-opacity:1;fill-rule:evenodd;stroke:none"
         transform="matrix(1.3333333,0,0,-1.3333333,501.9036,63.137333)"
         clip-path="url(#clipPath7)" />
      <path
         id="path8"
         d="M 0,0 C 14.149,0 25.692,12.297 25.692,27.377 25.692,42.454 14.149,54.753 0,54.753 -14.15,54.753 -25.694,42.454 -25.694,27.377 -25.694,12.297 -14.15,0 0,0"
         style="fill:#332d2a;fill-opacity:1;fill-rule:evenodd;stroke:none"
         transform="matrix(1.3333333,0,0,-1.3333333,433.26693,108.97267)"
         clip-path="url(#clipPath9)" />
      <path
         id="path10"
         d="m 0,0 h -35.383 l -9.676,-67.661 h 35.384 z"
         style="fill:#332d2a;fill-opacity:1;fill-rule:evenodd;stroke:none"
         transform="matrix(1.3333333,0,0,-1.3333333,647.3464,641.31253)"
         clip-path="url(#clipPath11)" />
      <path
         id="path12"
         d="m 0,0 h -27.776 l -4.882,-34.141 h 57.111 l 0.688,4.811 C 27.449,-13.177 16.157,0 0,0"
         style="fill:#332d2a;fill-opacity:1;fill-rule:evenodd;stroke:none"
         transform="matrix(1.3333333,0,0,-1.3333333,663.91933,686.00653)"
         clip-path="url(#clipPath13)" />
      <path
         id="path14"
         d="M 0,0 H 35.384 L 25.706,-67.661 H -9.675 Z"
         style="fill:#332d2a;fill-opacity:1;fill-rule:evenodd;stroke:none"
         transform="matrix(1.3333333,0,0,-1.3333333,247.8392,641.31253)"
         clip-path="url(#clipPath15)" />
      <path
         id="path16"
         d="m 0,0 h 27.776 l -4.881,-34.141 h -57.11 l 0.687,4.811 C -31.218,-13.177 -16.157,0 0,0"
         style="fill:#332d2a;fill-opacity:1;fill-rule:evenodd;stroke:none"
         transform="matrix(1.3333333,0,0,-1.3333333,218.48307,686.00653)"
         clip-path="url(#clipPath17)" />
      <path
         id="path18"
         d="m 0,0 -11.642,-3.58 c -53.45,-16.442 -100.533,-66.674 -122.791,-131.006 -1.588,-4.596 -2.911,-9.256 -3.96,-13.944 -1.982,-8.856 -0.582,-16.77 4.126,-23.318 4.709,-6.55 11.414,-9.914 19.762,-9.914 h 8.303 c 11.566,0 22.431,6.809 28.787,18.037 52.192,92.205 172.799,92.205 198.623,0 3.145,-11.228 12.064,-18.037 23.63,-18.037 h 8.303 c 8.347,0 16.017,3.364 22.597,9.914 6.582,6.548 10.245,14.462 10.796,23.318 0.29,4.688 0.299,9.348 0.024,13.944 -3.86,64.332 -36.579,114.564 -85.326,131.006 L 90.615,0 47.061,12.258 Z"
         style="fill:#087826;fill-opacity:1;fill-rule:evenodd;stroke:none"
         transform="matrix(1.3333333,0,0,-1.3333333,419.58653,414.68613)"
         clip-path="url(#clipPath19)" />
      <path
         id="path20"
         d="M 0,0 C 27.01,-4.625 48.907,-20.189 48.907,-34.764 48.907,-49.336 27.01,-57.4 0,-52.776 -27.011,-48.147 -48.906,-32.583 -48.906,-18.011 -48.906,-3.438 -27.011,4.628 0,0"
         style="fill:#f29d72;fill-opacity:1;fill-rule:evenodd;stroke:none"
         transform="matrix(1.3333333,0,0,-1.3333333,335.70773,354.29747)"
         clip-path="url(#clipPath21)" />
      <path
         id="path22"
         d="m 44.992,399.306 h 103.481 v 14.176 H 44.992 Z"
         style="fill:#332d2a;fill-opacity:1;fill-rule:evenodd;stroke:none"
         transform="matrix(1.3333333,0,0,-1.3333333,0,880)"
         clip-path="url(#clipPath23)" />
      <path
         id="path24"
         d="m 73.166,390.977 h 76.726 v 4.074 H 73.166 Z"
         style="fill:#332d2a;fill-opacity:1;fill-rule:evenodd;stroke:none"
         transform="matrix(1.3333333,0,0,-1.3333333,0,880)"
         clip-path="url(#clipPath25)" />
      <path
         id="path26"
         d="m 65.28,388.942 h 17.897 v 8.149 H 65.28 Z"
         style="fill:#332d2a;fill-opacity:1;fill-rule:evenodd;stroke:none"
         transform="matrix(1.3333333,0,0,-1.3333333,0,880)"
         clip-path="url(#clipPath27)" />
      <path
         id="path28"
         d="m 95.138,389.293 h 8.505 v 16.215 h -8.505 z"
         style="fill:#332d2a;fill-opacity:1;fill-rule:evenodd;stroke:none"
         transform="matrix(1.3333333,0,0,-1.3333333,0,880)"
         clip-path="url(#clipPath29)" />
      <path
         id="path30"
         d="m 122.87,389.293 h 8.506 v 16.215 h -8.506 z"
         style="fill:#332d2a;fill-opacity:1;fill-rule:evenodd;stroke:none"
         transform="matrix(1.3333333,0,0,-1.3333333,0,880)"
         clip-path="url(#clipPath31)" />
      <path
         id="path32"
         d="m 51.547,407.81 h 9.745 v 19.847 h -9.745 z"
         style="fill:#332d2a;fill-opacity:1;fill-rule:evenodd;stroke:none"
         transform="matrix(1.3333333,0,0,-1.3333333,0,880)"
         clip-path="url(#clipPath33)" />
      <path
         id="path34"
         d="m 0,0 h -74.438 v -34.721 l 74.727,-6.38 32.48,11.871 z"
         style="fill:#a6450d;fill-opacity:1;fill-rule:evenodd;stroke:none"
         transform="matrix(1.3333333,0,0,-1.3333333,290.36333,326.10347)"
         clip-path="url(#clipPath35)" />
      <path
         id="path36"
         d="m 250.541,386.192 h 55.642 v 94.269 h -55.642 z"
         style="fill:#f29d72;fill-opacity:1;fill-rule:evenodd;stroke:none"
         transform="matrix(1.3333333,0,0,-1.3333333,0,880)"
         clip-path="url(#clipPath37)" />
      <path
         id="path38"
         d="M 0,0 C 24.888,0 45.186,17.113 45.186,38.097 45.186,59.082 24.888,76.194 0,76.194 -24.886,76.194 -45.185,59.082 -45.185,38.097 -45.185,17.113 -24.886,0 0,0"
         style="fill:#f29d72;fill-opacity:1;fill-rule:evenodd;stroke:none"
         transform="matrix(1.3333333,0,0,-1.3333333,388.4232,284.9792)"
         clip-path="url(#clipPath39)" />
      <path
         id="path40"
         d="m 0,0 c -22.832,0 -41.705,-14.28 -44.751,-32.826 14.443,14.075 79.034,-14.558 74.694,-33.801 9.348,6.982 15.243,17.175 15.243,28.529 C 45.186,-17.058 24.955,0 0,0"
         style="fill:#087826;fill-opacity:1;fill-rule:evenodd;stroke:none"
         transform="matrix(1.3333333,0,0,-1.3333333,388.4232,183.38667)"
         clip-path="url(#clipPath41)" />
      <path
         id="path42"
         d="m 303.721,348.1 h 111.28 v 107.733 h -111.28 z"
         style="fill:#087826;fill-opacity:1;fill-rule:evenodd;stroke:none"
         transform="matrix(1.3333333,0,0,-1.3333333,0,880)"
         clip-path="url(#clipPath43)" />
      <path
         id="path44"
         d="m 0,0 c 47.236,0 85.763,30.765 85.763,68.485 0,37.719 -38.527,68.484 -85.763,68.484 -47.235,0 -85.762,-30.765 -85.762,-68.484 C -85.762,30.765 -47.235,0 0,0"
         style="fill:#18963a;fill-opacity:1;fill-rule:evenodd;stroke:none"
         transform="matrix(1.3333333,0,0,-1.3333333,464.5,362.94533)"
         clip-path="url(#clipPath45)" />
      <path
         id="path46"
         d="M 0,0 C 17.905,0 34.526,-4.384 48.28,-11.878 40.29,-17.711 21.682,-21.799 0,-21.799 c -21.68,0 -40.288,4.088 -48.278,9.921 C -34.525,-4.384 -17.903,0 0,0"
         style="fill:#f29d72;fill-opacity:1;fill-rule:evenodd;stroke:none"
         transform="matrix(1.3333333,0,0,-1.3333333,464.5,180.3196)"
         clip-path="url(#clipPath47)" />
      <path
         id="path48"
         d="m 217.772,373.25 h 208.383 v 42.172 H 217.772 Z"
         style="fill:#332d2a;fill-opacity:1;fill-rule:evenodd;stroke:none"
         transform="matrix(1.3333333,0,0,-1.3333333,0,880)"
         clip-path="url(#clipPath49)" />
      <path
         id="path50"
         d="M 0,0 C 16.732,0 30.378,18.714 30.378,41.659 30.378,64.603 16.732,83.318 0,83.318 -16.73,83.318 -30.38,64.603 -30.38,41.659 -30.38,18.714 -16.73,0 0,0"
         style="fill:#f29d72;fill-opacity:1;fill-rule:evenodd;stroke:none"
         transform="matrix(1.3333333,0,0,-1.3333333,586.54427,331.7604)"
         clip-path="url(#clipPath51)" />
      <path
         id="path52"
         d="M 0,0 C 14.054,0 25.517,15.442 25.517,34.376 25.517,53.309 14.054,68.753 0,68.753 -14.055,68.753 -25.517,53.309 -25.517,34.376 -25.517,15.442 -14.055,0 0,0"
         style="fill:#f29d72;fill-opacity:1;fill-rule:evenodd;stroke:none"
         transform="matrix(1.3333333,0,0,-1.3333333,547.664,358.22067)"
         clip-path="url(#clipPath53)" />
      <path
         id="path54"
         d="m 406.673,358.051 h 54.222 v 80.242 h -54.222 z"
         style="fill:#f29d72;fill-opacity:1;fill-rule:evenodd;stroke:none"
         transform="matrix(1.3333333,0,0,-1.3333333,0,880)"
         clip-path="url(#clipPath55)" />
      <path
         id="path56"
         d="m 0,0 c 7.176,0 13.026,5.852 13.026,13.025 0,7.173 -5.85,13.024 -13.026,13.024 -7.172,0 -13.023,-5.851 -13.023,-13.024 C -13.023,5.852 -7.172,0 0,0"
         style="fill:#f29d72;fill-opacity:1;fill-rule:evenodd;stroke:none"
         transform="matrix(1.3333333,0,0,-1.3333333,603.53907,413.7416)"
         clip-path="url(#clipPath57)" />
      <path
         id="path58"
         d="m 0,0 c 26.814,2.603 48.555,-2.349 48.555,-11.058 0,-8.71 -21.741,-17.879 -48.555,-20.482 -26.817,-2.602 -48.558,2.348 -48.558,11.062 0,8.707 21.741,17.875 48.558,20.478"
         style="fill:#f29d72;fill-opacity:1;fill-rule:evenodd;stroke:none"
         transform="matrix(1.3333333,0,0,-1.3333333,545.05987,361.66933)"
         clip-path="url(#clipPath59)" />
      <path
         id="path60"
         d="M 0,0 C 33.12,0 60.131,7.084 60.131,15.773 60.131,24.457 33.12,31.541 0,31.541 -33.118,31.541 -60.129,24.457 -60.129,15.773 -60.129,7.084 -33.118,0 0,0"
         style="fill:#f29d72;fill-opacity:1;fill-rule:evenodd;stroke:none"
         transform="matrix(1.3333333,0,0,-1.3333333,523.63933,421.54107)"
         clip-path="url(#clipPath61)" />
      <path
         id="path62"
         d="m 0,0 h 63.944 l 4.291,-17.927 H 13.252 c -4.93,0 -9.928,4.033 -11.109,8.964 z"
         style="fill:#332d2a;fill-opacity:1;fill-rule:evenodd;stroke:none"
         transform="matrix(1.3333333,0,0,-1.3333333,368.11453,380.68093)"
         clip-path="url(#clipPath63)" />
      <path
         id="path64"
         d="m 330.739,347.213 h 86.826 v 26.035 h -86.826 z"
         style="fill:#f29d72;fill-opacity:1;fill-rule:evenodd;stroke:none"
         transform="matrix(1.3333333,0,0,-1.3333333,0,880)"
         clip-path="url(#clipPath65)" />
      <path
         id="path66"
         d="m 0,0 h 42.5 v -18.735 c 0,-10.303 -8.429,-18.732 -18.734,-18.732 H 6.571 C 2.957,-37.467 0,-34.511 0,-30.896 Z"
         style="fill:#f29d72;fill-opacity:1;fill-rule:evenodd;stroke:none"
         transform="matrix(1.3333333,0,0,-1.3333333,409.7116,382.336)"
         clip-path="url(#clipPath67)" />
      <path
         id="path68"
         d="m 0,0 h 39.161 l 2.627,-10.978 H 8.117 c -3.02,0 -6.08,2.469 -6.804,5.49 z"
         style="fill:#f29d72;fill-opacity:1;fill-rule:evenodd;stroke:none"
         transform="matrix(1.3333333,0,0,-1.3333333,383.446,382.336)"
         clip-path="url(#clipPath69)" />
      <path
         id="path70"
         d="M 0,0 C 24.889,0 45.185,17.113 45.185,38.097 45.185,59.082 24.889,76.194 0,76.194 -24.886,76.194 -45.184,59.082 -45.184,38.097 -45.184,17.113 -24.886,0 0,0"
         style="fill:#f29d72;fill-opacity:1;fill-rule:evenodd;stroke:none"
         transform="matrix(1.3333333,0,0,-1.3333333,556.40493,284.9792)"
         clip-path="url(#clipPath71)" />
      <path
         id="path72"
         d="m 0,0 c 22.833,0 41.708,-14.28 44.754,-32.826 -14.443,14.075 -79.034,-14.558 -74.697,-33.801 -9.347,6.982 -15.241,17.175 -15.241,28.529 C -45.184,-17.058 -24.954,0 0,0"
         style="fill:#087826;fill-opacity:1;fill-rule:evenodd;stroke:none"
         transform="matrix(1.3333333,0,0,-1.3333333,556.40493,183.38667)"
         clip-path="url(#clipPath73)" />
      <path
         id="path74"
         d="m 223.872,365.371 h 55.464 v 13.646 h -55.464 z"
         style="fill:#332d2a;fill-opacity:1;fill-rule:evenodd;stroke:none"
         transform="matrix(1.3333333,0,0,-1.3333333,0,880)"
         clip-path="url(#clipPath75)" />
      <path
         id="path76"
         d="m 256.918,407.456 h 108.089 v 15.242 H 256.918 Z"
         style="fill:#332d2a;fill-opacity:1;fill-rule:evenodd;stroke:none"
         transform="matrix(1.3333333,0,0,-1.3333333,0,880)"
         clip-path="url(#clipPath77)" />
      <path
         id="path78"
         d="m 264.715,418.087 h 8.772 v 7.798 h -8.772 z"
         style="fill:#332d2a;fill-opacity:1;fill-rule:evenodd;stroke:none"
         transform="matrix(1.3333333,0,0,-1.3333333,0,880)"
         clip-path="url(#clipPath79)" />
      <path
         id="path80"
         d="m 276.814,425.885 h 8.772 v -7.798 h -8.772 z"
         style="fill:#332d2a;fill-opacity:1;fill-rule:evenodd;stroke:none"
         transform="matrix(1.3333333,0,0,-1.3333333,0,880)"
         clip-path="url(#clipPath81)" />
      <path
         id="path82"
         d="m 288.916,425.885 h 8.77 v -7.798 h -8.77 z"
         style="fill:#332d2a;fill-opacity:1;fill-rule:evenodd;stroke:none"
         transform="matrix(1.3333333,0,0,-1.3333333,0,880)"
         clip-path="url(#clipPath83)" />
      <path
         id="path84"
         d="m 301.015,425.885 h 8.772 v -7.798 h -8.772 z"
         style="fill:#332d2a;fill-opacity:1;fill-rule:evenodd;stroke:none"
         transform="matrix(1.3333333,0,0,-1.3333333,0,880)"
         clip-path="url(#clipPath85)" />
      <path
         id="path86"
         d="m 313.116,425.885 h 8.77 v -7.798 h -8.77 z"
         style="fill:#332d2a;fill-opacity:1;fill-rule:evenodd;stroke:none"
         transform="matrix(1.3333333,0,0,-1.3333333,0,880)"
         clip-path="url(#clipPath87)" />
      <path
         id="path88"
         d="m 325.215,425.885 h 8.773 v -7.798 h -8.773 z"
         style="fill:#332d2a;fill-opacity:1;fill-rule:evenodd;stroke:none"
         transform="matrix(1.3333333,0,0,-1.3333333,0,880)"
         clip-path="url(#clipPath89)" />
      <path
         id="path90"
         d="m 337.316,425.885 h 8.77 v -7.798 h -8.77 z"
         style="fill:#332d2a;fill-opacity:1;fill-rule:evenodd;stroke:none"
         transform="matrix(1.3333333,0,0,-1.3333333,0,880)"
         clip-path="url(#clipPath91)" />
      <path
         id="path92"
         d="m 349.416,418.087 h 8.771 v 7.798 h -8.771 z"
         style="fill:#332d2a;fill-opacity:1;fill-rule:evenodd;stroke:none"
         transform="matrix(1.3333333,0,0,-1.3333333,0,880)"
         clip-path="url(#clipPath93)" />
      <path
         id="path94"
         d="m 0,0 0.016,-6.419 c 0.04,-16.456 -3.479,-32.134 -10.352,-46.611 -6.783,-14.283 -16.779,-27.329 -29.782,-38.706 l -30.764,35.158 c 8.077,7.07 14.2,14.992 18.245,23.511 3.954,8.327 5.978,17.295 5.955,26.648 L -46.699,0 Z"
         style="fill:#332d2a;fill-opacity:1;fill-rule:evenodd;stroke:none"
         transform="matrix(1.3333333,0,0,-1.3333333,366.3692,391.18293)"
         clip-path="url(#clipPath95)" />
      <path
         id="path96"
         d="m 0,0 h 29.592 c 2.534,0 4.607,-2.071 4.607,-4.607 0,-2.536 -2.073,-4.607 -4.607,-4.607 H 0 c -2.534,0 -4.607,2.071 -4.607,4.607 C -4.607,-2.071 -2.534,0 0,0"
         style="fill:#332d2a;fill-opacity:1;fill-rule:evenodd;stroke:none"
         transform="matrix(1.3333333,0,0,-1.3333333,227.49613,339.32293)"
         clip-path="url(#clipPath97)" />
      <path
         id="path98"
         d="M 0,0 C 15.414,-2.171 27.909,-14.204 27.909,-26.879 27.909,-39.55 15.414,-48.065 0,-45.893 c -15.414,2.17 -27.908,14.207 -27.908,26.877 C -27.908,-6.342 -15.414,2.171 0,0"
         style="fill:#f29d72;fill-opacity:1;fill-rule:evenodd;stroke:none"
         transform="matrix(1.3333333,0,0,-1.3333333,265.6276,351.5664)"
         clip-path="url(#clipPath99)" />
      <path
         id="path100"
         d="m 322.86,511.115 h 51.03 v 54.93 h -51.03 z"
         style="fill:#f29d72;fill-opacity:1;fill-rule:evenodd;stroke:none"
         transform="matrix(1.3333333,0,0,-1.3333333,0,880)"
         clip-path="url(#clipPath101)" />
      <path
         id="path102"
         d="M 0,0 H 71.321 L 62.764,-47.873 C 59.256,-67.487 40.338,-83.534 20.727,-83.534 h -0.002 c -19.614,0 -32.79,16.047 -29.286,35.661 z"
         style="fill:#f5b290;fill-opacity:1;fill-rule:evenodd;stroke:none"
         transform="matrix(1.3333333,0,0,-1.3333333,415.78187,56.171867)"
         clip-path="url(#clipPath103)" />
      <path
         id="path104"
         d="M 0,0 C 9.687,0 17.588,10.348 17.588,23.036 17.588,35.722 9.687,46.071 0,46.071 -9.688,46.071 -17.588,35.722 -17.588,23.036 -17.588,10.348 -9.688,0 0,0"
         style="fill:#332d2a;fill-opacity:1;fill-rule:evenodd;stroke:none"
         transform="matrix(1.3333333,0,0,-1.3333333,480.58067,124.56507)"
         clip-path="url(#clipPath105)" />
      <path
         id="path106"
         d="M 0,0 C 10.15,0 18.427,10.069 18.427,22.416 18.427,34.76 10.15,44.83 0,44.83 -10.151,44.83 -18.429,34.76 -18.429,22.416 -18.429,10.069 -10.151,0 0,0"
         style="fill:#332d2a;fill-opacity:1;fill-rule:evenodd;stroke:none"
         transform="matrix(1.3333333,0,0,-1.3333333,504.61973,160.832)"
         clip-path="url(#clipPath107)" />
      <path
         id="path108"
         d="m 298.549,602.368 h 88.598 v 20.556 h -88.598 z"
         style="fill:#eb4912;fill-opacity:1;fill-rule:evenodd;stroke:none"
         transform="matrix(1.3333333,0,0,-1.3333333,0,880)"
         clip-path="url(#clipPath109)" />
      <path
         id="path110"
         d="m 368.896,566.576 h 18.252 v 52.451 h -18.252 z"
         style="fill:#eb4912;fill-opacity:1;fill-rule:evenodd;stroke:none"
         transform="matrix(1.3333333,0,0,-1.3333333,0,880)"
         clip-path="url(#clipPath111)" />
      <path
         id="path112"
         d="m 360.036,582.522 h 23.569 v 39.337 h -23.569 z"
         style="fill:#eb4912;fill-opacity:1;fill-rule:evenodd;stroke:none"
         transform="matrix(1.3333333,0,0,-1.3333333,0,880)"
         clip-path="url(#clipPath113)" />
      <path
         id="path114"
         d="M 0,0 C 5.152,0 9.355,6.056 9.355,13.48 9.355,20.903 5.152,26.958 0,26.958 -5.154,26.958 -9.354,20.903 -9.354,13.48 -9.354,6.056 -5.154,0 0,0"
         style="fill:#f5b290;fill-opacity:1;fill-rule:evenodd;stroke:none"
         transform="matrix(1.3333333,0,0,-1.3333333,467.71227,127.78973)"
         clip-path="url(#clipPath115)" />
      <path
         id="path116"
         d="m 0,0 c 7.542,0 13.692,8.436 13.692,18.776 0,10.341 -6.15,18.777 -13.692,18.777 -7.542,0 -13.693,-8.436 -13.693,-18.777 C -13.693,8.436 -7.542,0 0,0"
         style="fill:#f5b290;fill-opacity:1;fill-rule:evenodd;stroke:none"
         transform="matrix(1.3333333,0,0,-1.3333333,599.60027,294.63027)"
         clip-path="url(#clipPath117)" />
      <path
         id="path118"
         d="m 0,0 c 0,4.06 8.407,7.349 18.776,7.349 10.371,0 18.78,-3.289 18.78,-7.349 0,-4.057 -8.409,-7.346 -18.78,-7.346 C 8.407,-7.346 0,-4.057 0,0"
         style="fill:#f5b290;fill-opacity:1;fill-rule:evenodd;stroke:none"
         transform="matrix(1.3333333,0,0,-1.3333333,501.81387,378.52667)"
         clip-path="url(#clipPath119)" />
      <path
         id="path120"
         d="M 0,0 C 173.331,0 314.7,7.96 314.7,17.72 314.7,27.48 173.331,35.439 0,35.439 -173.33,35.439 -314.7,27.48 -314.7,17.72 -314.7,7.96 -173.33,0 0,0"
         style="fill:#332d2a;fill-opacity:1;fill-rule:evenodd;stroke:none"
         transform="matrix(1.3333333,0,0,-1.3333333,446.2552,756.92053)"
         clip-path="url(#clipPath121)" />
    </g>
  </g>
</svg>
